Warnes-Regular.otf.ufo
<glyph name="exclam" format="1">
  <advance width="343"/>
  <unicode hex="0021"/>
  <outline>
    <contour>
      <point x="241" y="220" type="line" smooth="yes" name="hr00"/>
      <point x="241" y="209" smooth="yes"/>
      <point x="251" y="200" smooth="yes"/>
      <point x="262" y="200" type="curve" smooth="yes"/>
      <point x="301" y="200" type="line" smooth="yes"/>
      <point x="312" y="200" smooth="yes"/>
      <point x="321" y="209" smooth="yes"/>
      <point x="321" y="220" type="curve" smooth="yes"/>
      <point x="321" y="437" type="line"/>
      <point x="339" y="533" smooth="yes"/>
      <point x="350" y="607" smooth="yes"/>
      <point x="350" y="655" type="curve" smooth="yes"/>
      <point x="350" y="718"/>
      <point x="332" y="760"/>
      <point x="241" y="760" type="curve"/>
    </contour>
    <contour>
      <point x="214" y="61" type="curve" smooth="yes"/>
      <point x="214" y="23" smooth="yes"/>
      <point x="227" y="-6" smooth="yes"/>
      <point x="281" y="-6" type="curve" smooth="yes"/>
      <point x="333" y="-6" smooth="yes"/>
      <point x="349" y="23" smooth="yes"/>
      <point x="349" y="61" type="curve" smooth="yes"/>
      <point x="349" y="98" smooth="yes"/>
      <point x="333" y="129" smooth="yes"/>
      <point x="281" y="129" type="curve" smooth="yes"/>
      <point x="227" y="129" smooth="yes"/>
      <point x="214" y="98" smooth="yes"/>
    </contour>
  </outline>
</glyph>
<glyph name="numbersign" format="1">
  <advance width="717"/>
  <unicode hex="0023"/>
  <outline>
    <contour>
      <point x="569" y="200" type="line" smooth="yes" name="hr00"/>
      <point x="613" y="200"/>
      <point x="623" y="225"/>
      <point x="623" y="270" type="curve"/>
      <point x="529" y="270" type="line"/>
      <point x="574" y="440" type="line"/>
      <point x="633" y="440" type="line" smooth="yes"/>
      <point x="677" y="440"/>
      <point x="687" y="465"/>
      <point x="687" y="510" type="curve"/>
      <point x="592" y="510" type="line"/>
      <point x="646" y="710" type="line"/>
      <point x="627" y="710" type="line" smooth="yes"/>
      <point x="584" y="710" smooth="yes"/>
      <point x="565" y="705" smooth="yes"/>
      <point x="550" y="650" type="curve" smooth="yes"/>
      <point x="512" y="510" type="line"/>
      <point x="322" y="510" type="line"/>
      <point x="376" y="710" type="line"/>
      <point x="357" y="710" type="line" smooth="yes"/>
      <point x="314" y="710" smooth="yes"/>
      <point x="295" y="705" smooth="yes"/>
      <point x="280" y="650" type="curve" smooth="yes"/>
      <point x="242" y="510" type="line"/>
      <point x="185" y="510" type="line" smooth="yes"/>
      <point x="140" y="510"/>
      <point x="131" y="485"/>
      <point x="131" y="440" type="curve"/>
      <point x="224" y="440" type="line"/>
      <point x="178" y="270" type="line"/>
      <point x="121" y="270" type="line" smooth="yes"/>
      <point x="76" y="270"/>
      <point x="67" y="245"/>
      <point x="67" y="200" type="curve"/>
      <point x="160" y="200" type="line"/>
      <point x="107" y="0" type="line"/>
      <point x="126" y="0" type="line" smooth="yes"/>
      <point x="175" y="0" smooth="yes"/>
      <point x="190" y="12" smooth="yes"/>
      <point x="203" y="60" type="curve" smooth="yes"/>
      <point x="240" y="200" type="line"/>
      <point x="430" y="200" type="line"/>
      <point x="377" y="0" type="line"/>
      <point x="396" y="0" type="line" smooth="yes"/>
      <point x="445" y="0" smooth="yes"/>
      <point x="460" y="12" smooth="yes"/>
      <point x="473" y="60" type="curve" smooth="yes"/>
      <point x="510" y="200" type="line"/>
    </contour>
    <contour>
      <point x="304" y="440" type="line"/>
      <point x="494" y="440" type="line"/>
      <point x="448" y="270" type="line"/>
      <point x="259" y="270" type="line"/>
    </contour>
  </outline>
</glyph>
<glyph name="dollar" format="1">
  <advance width="600"/>
  <unicode hex="0024"/>
  <outline>
    <contour>
      <point x="330" y="760" type="line" name="hr00"/>
      <point x="321" y="760" type="line" smooth="yes"/>
      <point x="278" y="760" smooth="yes"/>
      <point x="260" y="755" smooth="yes"/>
      <point x="260" y="700" type="curve" smooth="yes"/>
      <point x="260" y="679" type="line"/>
      <point x="112" y="622" smooth="yes"/>
      <point x="72" y="493" smooth="yes"/>
      <point x="72" y="384" type="curve" smooth="yes"/>
      <point x="72" y="314" smooth="yes"/>
      <point x="105" y="299" smooth="yes"/>
      <point x="146" y="299" type="curve" smooth="yes"/>
      <point x="260" y="299" type="line"/>
      <point x="260" y="85" type="line"/>
      <point x="223" y="75" smooth="yes"/>
      <point x="178" y="70" smooth="yes"/>
      <point x="124" y="70" type="curve" smooth="yes"/>
      <point x="72" y="70" type="line"/>
      <point x="72" y="60" type="line" smooth="yes"/>
      <point x="72" y="10" smooth="yes"/>
      <point x="98" y="0" smooth="yes"/>
      <point x="123" y="0" type="curve" smooth="yes"/>
      <point x="174" y="0"/>
      <point x="220" y="4"/>
      <point x="260" y="12" type="curve"/>
      <point x="260" y="-50" type="line"/>
      <point x="269" y="-50" type="line" smooth="yes"/>
      <point x="318" y="-50" smooth="yes"/>
      <point x="330" y="-38" smooth="yes"/>
      <point x="330" y="10" type="curve" smooth="yes"/>
      <point x="330" y="30" type="line"/>
      <point x="475" y="81" smooth="yes"/>
      <point x="527" y="188" smooth="yes"/>
      <point x="527" y="294" type="curve" smooth="yes"/>
      <point x="527" y="364" smooth="yes"/>
      <point x="494" y="374" smooth="yes"/>
      <point x="453" y="374" type="curve" smooth="yes"/>
      <point x="330" y="374" type="line"/>
      <point x="330" y="618" type="line"/>
      <point x="360" y="625" smooth="yes"/>
      <point x="396" y="630" smooth="yes"/>
      <point x="438" y="630" type="curve" smooth="yes"/>
      <point x="497" y="630" type="line"/>
      <point x="497" y="650" type="line" smooth="yes"/>
      <point x="497" y="700" smooth="yes"/>
      <point x="472" y="710" smooth="yes"/>
      <point x="447" y="710" type="curve" smooth="yes"/>
      <point x="403" y="710"/>
      <point x="364" y="706"/>
      <point x="330" y="699" type="curve"/>
    </contour>
    <contour>
      <point x="162" y="374" type="line"/>
      <point x="162" y="435"/>
      <point x="169" y="534"/>
      <point x="260" y="589" type="curve"/>
      <point x="260" y="374" type="line"/>
    </contour>
    <contour>
      <point x="437" y="299" type="line"/>
      <point x="437" y="241"/>
      <point x="420" y="160"/>
      <point x="330" y="111" type="curve"/>
      <point x="330" y="299" type="line"/>
    </contour>
  </outline>
</glyph>
<glyph name="ampersand" format="1">
  <advance width="693"/>
  <unicode hex="0026"/>
  <outline>
    <contour>
      <point x="793" y="70" type="line" smooth="yes" name="hr00"/>
      <point x="510" y="70" smooth="yes"/>
      <point x="370" y="316" smooth="yes"/>
      <point x="370" y="469" type="curve" smooth="yes"/>
      <point x="370" y="561" smooth="yes"/>
      <point x="435" y="640" smooth="yes"/>
      <point x="610" y="640" type="curve" smooth="yes"/>
      <point x="664" y="640" type="line"/>
      <point x="664" y="666" type="line" smooth="yes"/>
      <point x="664" y="693" smooth="yes"/>
      <point x="655" y="720" smooth="yes"/>
      <point x="610" y="720" type="curve" smooth="yes"/>
      <point x="383" y="720" smooth="yes"/>
      <point x="288" y="602" smooth="yes"/>
      <point x="288" y="465" type="curve" smooth="yes"/>
      <point x="288" y="438"/>
      <point x="292" y="410"/>
      <point x="299" y="380" type="curve"/>
      <point x="211" y="302" smooth="yes"/>
      <point x="153" y="179" smooth="yes"/>
      <point x="153" y="80" type="curve" smooth="yes"/>
      <point x="153" y="10" smooth="yes"/>
      <point x="193" y="0" smooth="yes"/>
      <point x="243" y="0" type="curve" smooth="yes"/>
      <point x="813" y="0" type="line" smooth="yes"/>
      <point x="848" y="0"/>
      <point x="883" y="12"/>
      <point x="883" y="70" type="curve"/>
    </contour>
    <contour>
      <point x="528" y="70" type="curve"/>
      <point x="233" y="70" type="line"/>
      <point x="233" y="146"/>
      <point x="265" y="234"/>
      <point x="326" y="298" type="curve"/>
      <point x="365" y="209"/>
      <point x="434" y="121"/>
    </contour>
  </outline>
</glyph>
<glyph name="parenright" format="1">
  <advance width="431"/>
  <unicode hex="0029"/>
  <outline>
    <contour>
      <point x="411" y="355" type="curve" smooth="yes" name="hr00"/>
      <point x="411" y="69" smooth="yes"/>
      <point x="256" y="-55" smooth="yes"/>
      <point x="256" y="-55" type="curve" smooth="yes"/>
      <point x="252" y="-58" smooth="yes"/>
      <point x="247" y="-60" smooth="yes"/>
      <point x="242" y="-60" type="curve" smooth="yes"/>
      <point x="238" y="-60" smooth="yes"/>
      <point x="234" y="-58" smooth="yes"/>
      <point x="231" y="-56" type="curve" smooth="yes"/>
      <point x="206" y="-29" type="line" smooth="yes"/>
      <point x="203" y="-26" smooth="yes"/>
      <point x="200" y="-20" smooth="yes"/>
      <point x="200" y="-16" type="curve" smooth="yes"/>
      <point x="200" y="-10" smooth="yes"/>
      <point x="202" y="-7" smooth="yes"/>
      <point x="205" y="-3" type="curve" smooth="yes"/>
      <point x="205" y="-3" smooth="yes"/>
      <point x="321" y="99" smooth="yes"/>
      <point x="321" y="355" type="curve" smooth="yes"/>
      <point x="321" y="611" smooth="yes"/>
      <point x="205" y="713" smooth="yes"/>
      <point x="205" y="713" type="curve" smooth="yes"/>
      <point x="202" y="717" smooth="yes"/>
      <point x="200" y="720" smooth="yes"/>
      <point x="200" y="726" type="curve" smooth="yes"/>
      <point x="200" y="730" smooth="yes"/>
      <point x="203" y="736" smooth="yes"/>
      <point x="206" y="739" type="curve" smooth="yes"/>
      <point x="231" y="764" type="line" smooth="yes"/>
      <point x="234" y="768" smooth="yes"/>
      <point x="238" y="770" smooth="yes"/>
      <point x="242" y="770" type="curve" smooth="yes"/>
      <point x="247" y="770" smooth="yes"/>
      <point x="252" y="768" smooth="yes"/>
      <point x="256" y="764" type="curve" smooth="yes"/>
      <point x="256" y="764" smooth="yes"/>
      <point x="411" y="641" smooth="yes"/>
    </contour>
  </outline>
</glyph>
<glyph name="asterisk" format="1">
  <advance width="698"/>
  <unicode hex="002A"/>
  <outline>
    <contour>
      <point x="632" y="713" type="curve" smooth="yes" name="hr00"/>
      <point x="632" y="744" smooth="yes"/>
      <point x="615" y="756" smooth="yes"/>
      <point x="586" y="756" type="curve" smooth="yes"/>
      <point x="543" y="756" type="line"/>
      <point x="543" y="694"/>
      <point x="536" y="651"/>
      <point x="510" y="620" type="curve"/>
      <point x="496" y="673" smooth="yes"/>
      <point x="451" y="752" smooth="yes"/>
      <point x="386" y="752" type="curve" smooth="yes"/>
      <point x="367" y="752" smooth="yes"/>
      <point x="355" y="740" smooth="yes"/>
      <point x="348" y="719" type="curve" smooth="yes"/>
      <point x="334" y="676" type="line"/>
      <point x="393" y="657"/>
      <point x="435" y="639"/>
      <point x="455" y="604" type="curve"/>
      <point x="438" y="604" type="line" smooth="yes"/>
      <point x="390" y="604" smooth="yes"/>
      <point x="290" y="572" smooth="yes"/>
      <point x="290" y="516" type="curve" smooth="yes"/>
      <point x="290" y="503" smooth="yes"/>
      <point x="296" y="491" smooth="yes"/>
      <point x="310" y="481" type="curve" smooth="yes"/>
      <point x="347" y="455" type="line"/>
      <point x="382" y="505"/>
      <point x="414" y="536"/>
      <point x="453" y="547" type="curve"/>
      <point x="443" y="522" smooth="yes"/>
      <point x="437" y="494" smooth="yes"/>
      <point x="437" y="465" type="curve" smooth="yes"/>
      <point x="437" y="427" smooth="yes"/>
      <point x="457" y="361" smooth="yes"/>
      <point x="496" y="361" type="curve" smooth="yes"/>
      <point x="504" y="361" smooth="yes"/>
      <point x="515" y="365" smooth="yes"/>
      <point x="525" y="372" type="curve" smooth="yes"/>
      <point x="561" y="398" type="line"/>
      <point x="526" y="444" smooth="yes"/>
      <point x="506" y="482" smooth="yes"/>
      <point x="506" y="521" type="curve" smooth="yes"/>
      <point x="506" y="529" type="line"/>
      <point x="540" y="497" smooth="yes"/>
      <point x="579" y="479" smooth="yes"/>
      <point x="625" y="479" type="curve" smooth="yes"/>
      <point x="663" y="479" smooth="yes"/>
      <point x="698" y="491" smooth="yes"/>
      <point x="698" y="522" type="curve" smooth="yes"/>
      <point x="698" y="529"/>
      <point x="697" y="535"/>
      <point x="683" y="583" type="curve"/>
      <point x="644" y="571" smooth="yes"/>
      <point x="612" y="564" smooth="yes"/>
      <point x="586" y="564" type="curve" smooth="yes"/>
      <point x="571" y="564"/>
      <point x="557" y="566"/>
      <point x="543" y="572" type="curve"/>
      <point x="590" y="602" smooth="yes"/>
      <point x="632" y="651" smooth="yes"/>
    </contour>
  </outline>
</glyph>
<glyph name="hyphen" format="1">
  <advance width="460"/>
  <unicode hex="002D"/>
  <outline>
    <contour>
      <point x="100" y="374" type="line" name="hr00"/>
      <point x="100" y="312" smooth="yes"/>
      <point x="137" y="299" smooth="yes"/>
      <point x="175" y="299" type="curve" smooth="yes"/>
      <point x="400" y="299" type="line"/>
      <point x="400" y="361" smooth="yes"/>
      <point x="362" y="374" smooth="yes"/>
      <point x="325" y="374" type="curve" smooth="yes"/>
    </contour>
  </outline>
</glyph>
<glyph name="zero" format="1">
  <advance width="600"/>
  <unicode hex="0030"/>
  <outline>
    <contour>
      <point x="563" y="720" type="curve" smooth="yes" name="hr00"/>
      <point x="239" y="720" smooth="yes"/>
      <point x="157" y="589" smooth="yes"/>
      <point x="157" y="282" type="curve" smooth="yes"/>
      <point x="157" y="84" type="line" smooth="yes"/>
      <point x="157" y="38" smooth="yes"/>
      <point x="170" y="0" smooth="yes"/>
      <point x="236" y="0" type="curve" smooth="yes"/>
      <point x="560" y="0" smooth="yes"/>
      <point x="642" y="131" smooth="yes"/>
      <point x="642" y="438" type="curve" smooth="yes"/>
      <point x="642" y="636" type="line" smooth="yes"/>
      <point x="642" y="682" smooth="yes"/>
      <point x="629" y="720" smooth="yes"/>
    </contour>
    <contour>
      <point x="552" y="438" type="line" smooth="yes"/>
      <point x="552" y="182"/>
      <point x="514" y="80"/>
      <point x="247" y="80" type="curve"/>
      <point x="247" y="282" type="line" smooth="yes"/>
      <point x="247" y="538"/>
      <point x="285" y="640"/>
      <point x="552" y="640" type="curve"/>
    </contour>
  </outline>
</glyph>
<glyph name="one" format="1">
  <advance width="600"/>
  <unicode hex="0031"/>
  <outline>
    <contour>
      <point x="553" y="0" type="line" smooth="yes" name="hr00"/>
      <point x="588" y="0"/>
      <point x="623" y="22"/>
      <point x="623" y="80" type="curve"/>
      <point x="453" y="80" type="line"/>
      <point x="453" y="583" type="line"/>
      <point x="466" y="608" smooth="yes"/>
      <point x="475" y="636" smooth="yes"/>
      <point x="475" y="657" type="curve" smooth="yes"/>
      <point x="475" y="694" smooth="yes"/>
      <point x="454" y="710" smooth="yes"/>
      <point x="418" y="710" type="curve" smooth="yes"/>
      <point x="370" y="710" type="line"/>
      <point x="370" y="648" type="line" smooth="yes"/>
      <point x="370" y="611" smooth="yes"/>
      <point x="324" y="496" smooth="yes"/>
      <point x="196" y="496" type="curve" smooth="yes"/>
      <point x="185" y="496" smooth="yes"/>
      <point x="176" y="487" smooth="yes"/>
      <point x="176" y="476" type="curve" smooth="yes"/>
      <point x="176" y="436" type="line" smooth="yes"/>
      <point x="176" y="425" smooth="yes"/>
      <point x="185" y="416" smooth="yes"/>
      <point x="196" y="416" type="curve" smooth="yes"/>
      <point x="265" y="416"/>
      <point x="326" y="444"/>
      <point x="364" y="490" type="curve"/>
      <point x="364" y="80" type="line"/>
      <point x="264" y="80" type="line" smooth="yes"/>
      <point x="229" y="80"/>
      <point x="194" y="58"/>
      <point x="194" y="0" type="curve"/>
    </contour>
  </outline>
</glyph>
<glyph name="two" format="1">
  <advance width="600"/>
  <unicode hex="0032"/>
  <outline>
    <contour>
      <point x="186" y="710" type="line" name="hr00"/>
      <point x="186" y="690" type="line" smooth="yes"/>
      <point x="186" y="640" smooth="yes"/>
      <point x="212" y="630" smooth="yes"/>
      <point x="235" y="630" type="curve" smooth="yes"/>
      <point x="416" y="630" type="line" smooth="yes"/>
      <point x="493" y="630" smooth="yes"/>
      <point x="518" y="622" smooth="yes"/>
      <point x="518" y="561" type="curve" smooth="yes"/>
      <point x="518" y="414" smooth="yes"/>
      <point x="320" y="230" smooth="yes"/>
      <point x="169" y="60" type="curve" smooth="yes"/>
      <point x="157" y="47"/>
      <point x="149" y="27"/>
      <point x="149" y="0" type="curve"/>
      <point x="568" y="0" type="line" smooth="yes"/>
      <point x="603" y="0"/>
      <point x="638" y="22"/>
      <point x="638" y="80" type="curve"/>
      <point x="293" y="80" type="line"/>
      <point x="419" y="207" smooth="yes"/>
      <point x="608" y="411" smooth="yes"/>
      <point x="608" y="561" type="curve" smooth="yes"/>
      <point x="608" y="689" smooth="yes"/>
      <point x="561" y="710" smooth="yes"/>
      <point x="416" y="710" type="curve" smooth="yes"/>
    </contour>
  </outline>
</glyph>
<glyph name="six" format="1">
  <advance width="600"/>
  <unicode hex="0036"/>
  <outline>
    <contour>
      <point x="393" y="430" type="line" smooth="yes" name="hr00"/>
      <point x="328" y="430"/>
      <point x="285" y="414"/>
      <point x="257" y="385" type="curve"/>
      <point x="264" y="582" smooth="yes"/>
      <point x="311" y="640" smooth="yes"/>
      <point x="551" y="640" type="curve" smooth="yes"/>
      <point x="610" y="640" type="line"/>
      <point x="610" y="650" type="line" smooth="yes"/>
      <point x="610" y="700" smooth="yes"/>
      <point x="588" y="720" smooth="yes"/>
      <point x="551" y="720" type="curve" smooth="yes"/>
      <point x="236" y="720" smooth="yes"/>
      <point x="166" y="615" smooth="yes"/>
      <point x="166" y="312" type="curve" smooth="yes"/>
      <point x="166" y="90" type="line" smooth="yes"/>
      <point x="166" y="40" smooth="yes"/>
      <point x="181" y="0" smooth="yes"/>
      <point x="256" y="0" type="curve" smooth="yes"/>
      <point x="512" y="0" smooth="yes"/>
      <point x="634" y="109" smooth="yes"/>
      <point x="634" y="330" type="curve" smooth="yes"/>
      <point x="634" y="340" type="line" smooth="yes"/>
      <point x="634" y="390" smooth="yes"/>
      <point x="618" y="430" smooth="yes"/>
      <point x="544" y="430" type="curve" smooth="yes"/>
    </contour>
    <contour>
      <point x="544" y="350" type="line"/>
      <point x="544" y="134"/>
      <point x="455" y="80"/>
      <point x="256" y="80" type="curve"/>
      <point x="256" y="219" type="line" smooth="yes"/>
      <point x="256" y="327" smooth="yes"/>
      <point x="300" y="350" smooth="yes"/>
      <point x="393" y="350" type="curve" smooth="yes"/>
    </contour>
  </outline>
</glyph>
<glyph name="seven" format="1">
  <advance width="630"/>
  <unicode hex="0037"/>
  <outline>
    <contour>
      <point x="186" y="710" type="line" name="hr00"/>
      <point x="186" y="690" type="line" smooth="yes"/>
      <point x="186" y="640" smooth="yes"/>
      <point x="212" y="630" smooth="yes"/>
      <point x="235" y="630" type="curve" smooth="yes"/>
      <point x="570" y="630" type="line"/>
      <point x="482" y="418" smooth="yes"/>
      <point x="318" y="59" smooth="yes"/>
      <point x="318" y="27" type="curve" smooth="yes"/>
      <point x="318" y="-5"/>
      <point x="341" y="-10"/>
      <point x="396" y="-10" type="curve"/>
      <point x="656" y="630" type="line"/>
      <point x="656" y="685" smooth="yes"/>
      <point x="625" y="710" smooth="yes"/>
      <point x="588" y="710" type="curve" smooth="yes"/>
    </contour>
  </outline>
</glyph>
<glyph name="eight" format="1">
  <advance width="600"/>
  <unicode hex="0038"/>
  <outline>
    <contour>
      <point x="168" y="191" type="curve" name="hr00"/>
      <point x="168" y="82" type="line" smooth="yes"/>
      <point x="168" y="36" smooth="yes"/>
      <point x="182" y="0" smooth="yes"/>
      <point x="255" y="0" type="curve" smooth="yes"/>
      <point x="482" y="0" smooth="yes"/>
      <point x="631" y="93" smooth="yes"/>
      <point x="631" y="308" type="curve" smooth="yes"/>
      <point x="631" y="342"/>
      <point x="622" y="371"/>
      <point x="587" y="383" type="curve"/>
      <point x="618" y="416" smooth="yes"/>
      <point x="631" y="464" smooth="yes"/>
      <point x="631" y="529" type="curve" smooth="yes"/>
      <point x="631" y="638" type="line" smooth="yes"/>
      <point x="631" y="684" smooth="yes"/>
      <point x="617" y="720" smooth="yes"/>
      <point x="544" y="720" type="curve" smooth="yes"/>
      <point x="317" y="720" smooth="yes"/>
      <point x="178" y="627" smooth="yes"/>
      <point x="178" y="412" type="curve" smooth="yes"/>
      <point x="178" y="379"/>
      <point x="186" y="351"/>
      <point x="218" y="338" type="curve"/>
      <point x="184" y="305"/>
      <point x="168" y="256"/>
    </contour>
    <contour>
      <point x="546" y="325" type="line"/>
      <point x="546" y="132"/>
      <point x="450" y="80"/>
      <point x="258" y="80" type="curve"/>
      <point x="258" y="196" type="line" smooth="yes"/>
      <point x="258" y="299" smooth="yes"/>
      <point x="309" y="325" smooth="yes"/>
      <point x="400" y="325" type="curve" smooth="yes"/>
    </contour>
    <contour>
      <point x="263" y="395" type="line"/>
      <point x="263" y="588"/>
      <point x="349" y="640"/>
      <point x="541" y="640" type="curve"/>
      <point x="541" y="524" type="line" smooth="yes"/>
      <point x="541" y="421" smooth="yes"/>
      <point x="500" y="395" smooth="yes"/>
      <point x="409" y="395" type="curve" smooth="yes"/>
    </contour>
  </outline>
</glyph>
<glyph name="colon" format="1">
  <advance width="343"/>
  <unicode hex="003A"/>
  <outline>
    <contour>
      <point x="214" y="61" type="curve" smooth="yes" name="hr00"/>
      <point x="214" y="23" smooth="yes"/>
      <point x="227" y="-6" smooth="yes"/>
      <point x="281" y="-6" type="curve" smooth="yes"/>
      <point x="333" y="-6" smooth="yes"/>
      <point x="349" y="23" smooth="yes"/>
      <point x="349" y="61" type="curve" smooth="yes"/>
      <point x="349" y="98" smooth="yes"/>
      <point x="333" y="129" smooth="yes"/>
      <point x="281" y="129" type="curve" smooth="yes"/>
      <point x="227" y="129" smooth="yes"/>
      <point x="214" y="98" smooth="yes"/>
    </contour>
    <contour>
      <point x="214" y="481" type="curve" smooth="yes"/>
      <point x="214" y="443" smooth="yes"/>
      <point x="227" y="414" smooth="yes"/>
      <point x="281" y="414" type="curve" smooth="yes"/>
      <point x="333" y="414" smooth="yes"/>
      <point x="349" y="443" smooth="yes"/>
      <point x="349" y="481" type="curve" smooth="yes"/>
      <point x="349" y="518" smooth="yes"/>
      <point x="333" y="549" smooth="yes"/>
      <point x="281" y="549" type="curve" smooth="yes"/>
      <point x="227" y="549" smooth="yes"/>
      <point x="214" y="518" smooth="yes"/>
    </contour>
  </outline>
</glyph>
<glyph name="less" format="1">
  <advance width="460"/>
  <unicode hex="003C"/>
  <outline>
    <contour>
      <point x="477" y="142" type="line" name="hr00"/>
      <point x="488" y="167" smooth="yes"/>
      <point x="493" y="184" smooth="yes"/>
      <point x="493" y="197" type="curve" smooth="yes"/>
      <point x="493" y="212" smooth="yes"/>
      <point x="484" y="220" smooth="yes"/>
      <point x="465" y="228" type="curve" smooth="yes"/>
      <point x="233" y="334" type="line"/>
      <point x="465" y="440" type="line" smooth="yes"/>
      <point x="484" y="448" smooth="yes"/>
      <point x="493" y="456" smooth="yes"/>
      <point x="493" y="471" type="curve" smooth="yes"/>
      <point x="493" y="484"/>
      <point x="488" y="501"/>
      <point x="477" y="526" type="curve"/>
      <point x="159" y="380" type="line" smooth="yes"/>
      <point x="141" y="372" smooth="yes"/>
      <point x="130" y="356" smooth="yes"/>
      <point x="130" y="334" type="curve" smooth="yes"/>
      <point x="130" y="312" smooth="yes"/>
      <point x="140" y="297" smooth="yes"/>
      <point x="159" y="288" type="curve" smooth="yes"/>
    </contour>
  </outline>
</glyph>
<glyph name="equal" format="1">
  <advance width="460"/>
  <unicode hex="003D"/>
  <outline>
    <contour>
      <point x="130" y="469" type="line" name="hr00"/>
      <point x="130" y="407" smooth="yes"/>
      <point x="137" y="394" smooth="yes"/>
      <point x="175" y="394" type="curve" smooth="yes"/>
      <point x="490" y="394" type="line"/>
      <point x="490" y="456" smooth="yes"/>
      <point x="483" y="469" smooth="yes"/>
      <point x="445" y="469" type="curve" smooth="yes"/>
    </contour>
    <contour>
      <point x="130" y="279" type="line"/>
      <point x="130" y="217" smooth="yes"/>
      <point x="137" y="204" smooth="yes"/>
      <point x="175" y="204" type="curve" smooth="yes"/>
      <point x="490" y="204" type="line"/>
      <point x="490" y="266" smooth="yes"/>
      <point x="483" y="279" smooth="yes"/>
      <point x="445" y="279" type="curve" smooth="yes"/>
    </contour>
  </outline>
</glyph>
<glyph name="greater" format="1">
  <advance width="460"/>
  <unicode hex="003E"/>
  <outline>
    <contour>
      <point x="464" y="288" type="line" name="hr00"/>
      <point x="483" y="297" smooth="yes"/>
      <point x="493" y="312" smooth="yes"/>
      <point x="493" y="334" type="curve" smooth="yes"/>
      <point x="493" y="356" smooth="yes"/>
      <point x="482" y="372" smooth="yes"/>
      <point x="464" y="380" type="curve" smooth="yes"/>
      <point x="146" y="526" type="line"/>
      <point x="135" y="501" smooth="yes"/>
      <point x="130" y="484" smooth="yes"/>
      <point x="130" y="471" type="curve" smooth="yes"/>
      <point x="130" y="456" smooth="yes"/>
      <point x="139" y="448" smooth="yes"/>
      <point x="158" y="440" type="curve" smooth="yes"/>
      <point x="390" y="334" type="line"/>
      <point x="158" y="228" type="line" smooth="yes"/>
      <point x="139" y="220" smooth="yes"/>
      <point x="130" y="212" smooth="yes"/>
      <point x="130" y="197" type="curve" smooth="yes"/>
      <point x="130" y="184"/>
      <point x="135" y="167"/>
      <point x="146" y="142" type="curve"/>
    </contour>
  </outline>
</glyph>
<glyph name="question" format="1">
  <advance width="601"/>
  <unicode hex="003F"/>
  <outline>
    <contour>
      <point x="214" y="61" type="curve" smooth="yes" name="hr00"/>
      <point x="214" y="23" smooth="yes"/>
      <point x="227" y="-6" smooth="yes"/>
      <point x="281" y="-6" type="curve" smooth="yes"/>
      <point x="333" y="-6" smooth="yes"/>
      <point x="349" y="23" smooth="yes"/>
      <point x="349" y="61" type="curve" smooth="yes"/>
      <point x="349" y="98" smooth="yes"/>
      <point x="333" y="129" smooth="yes"/>
      <point x="281" y="129" type="curve" smooth="yes"/>
      <point x="227" y="129" smooth="yes"/>
      <point x="214" y="98" smooth="yes"/>
    </contour>
    <contour>
      <point x="232" y="690" type="line" smooth="yes"/>
      <point x="452" y="690"/>
      <point x="521" y="536"/>
      <point x="521" y="403" type="curve"/>
      <point x="301" y="403" type="line" smooth="yes"/>
      <point x="251" y="403" smooth="yes"/>
      <point x="241" y="373" smooth="yes"/>
      <point x="241" y="343" type="curve" smooth="yes"/>
      <point x="241" y="220" type="line" smooth="yes"/>
      <point x="241" y="209" smooth="yes"/>
      <point x="251" y="200" smooth="yes"/>
      <point x="262" y="200" type="curve" smooth="yes"/>
      <point x="301" y="200" type="line" smooth="yes"/>
      <point x="312" y="200" smooth="yes"/>
      <point x="321" y="209" smooth="yes"/>
      <point x="321" y="220" type="curve" smooth="yes"/>
      <point x="321" y="313" type="line"/>
      <point x="511" y="313" type="line" smooth="yes"/>
      <point x="561" y="313" smooth="yes"/>
      <point x="601" y="333" smooth="yes"/>
      <point x="601" y="403" type="curve" smooth="yes"/>
      <point x="601" y="666" smooth="yes"/>
      <point x="407" y="770" smooth="yes"/>
      <point x="232" y="770" type="curve" smooth="yes"/>
      <point x="187" y="770" smooth="yes"/>
      <point x="178" y="743" smooth="yes"/>
      <point x="178" y="716" type="curve" smooth="yes"/>
      <point x="178" y="690" type="line"/>
    </contour>
  </outline>
</glyph>
<glyph name="B" format="1">
  <advance width="733"/>
  <unicode hex="0042"/>
  <outline>
    <contour>
      <point x="106" y="70" type="line"/>
      <point x="106" y="60" type="line" smooth="yes"/>
      <point x="106" y="10" smooth="yes"/>
      <point x="136" y="0" smooth="yes"/>
      <point x="166" y="0" type="curve" smooth="yes"/>
      <point x="853" y="0" type="line" smooth="yes"/>
      <point x="888" y="0"/>
      <point x="923" y="12"/>
      <point x="923" y="70" type="curve"/>
      <point x="482" y="70" type="line"/>
      <point x="624" y="144" smooth="yes"/>
      <point x="691" y="264" smooth="yes"/>
      <point x="691" y="357" type="curve" smooth="yes"/>
      <point x="691" y="427" smooth="yes"/>
      <point x="651" y="437" smooth="yes"/>
      <point x="601" y="437" type="curve" smooth="yes"/>
      <point x="583" y="437" type="line"/>
      <point x="636" y="481" smooth="yes"/>
      <point x="660" y="542" smooth="yes"/>
      <point x="660" y="581" type="curve" smooth="yes" name="hr01"/>
      <point x="660" y="689" smooth="yes"/>
      <point x="613" y="710" smooth="yes"/>
      <point x="468" y="710" type="curve" smooth="yes"/>
      <point x="139" y="710" type="line" smooth="yes"/>
      <point x="116" y="710" smooth="yes"/>
      <point x="90" y="700" smooth="yes"/>
      <point x="90" y="650" type="curve" smooth="yes"/>
      <point x="90" y="630" type="line"/>
      <point x="160" y="630" type="line"/>
      <point x="160" y="120" type="line"/>
      <point x="189" y="120" type="line" smooth="yes"/>
      <point x="219" y="120" smooth="yes"/>
      <point x="250" y="130" smooth="yes"/>
      <point x="250" y="180" type="curve" smooth="yes"/>
      <point x="250" y="630" type="line"/>
      <point x="468" y="630" type="line" smooth="yes"/>
      <point x="545" y="630" smooth="yes"/>
      <point x="570" y="622" smooth="yes"/>
      <point x="570" y="581" type="curve" smooth="yes"/>
      <point x="570" y="538" smooth="yes"/>
      <point x="528" y="437" smooth="yes"/>
      <point x="427" y="437" type="curve" smooth="yes"/>
      <point x="294" y="437" type="line"/>
      <point x="294" y="367" smooth="yes"/>
      <point x="345" y="343" smooth="yes"/>
      <point x="390" y="343" type="curve" smooth="yes"/>
      <point x="423" y="343"/>
      <point x="462" y="352"/>
      <point x="489" y="367" type="curve" name="hr02"/>
      <point x="611" y="367" type="line"/>
      <point x="611" y="279" smooth="yes"/>
      <point x="512" y="70" smooth="yes"/>
      <point x="179" y="70" type="curve" smooth="yes"/>
    </contour>
  </outline>
</glyph>
<glyph name="F" format="1">
  <advance width="547"/>
  <unicode hex="0046"/>
  <outline>
    <contour>
      <point x="190" y="2" type="line" smooth="yes" name="hr00"/>
      <point x="190" y="-208" smooth="yes"/>
      <point x="133" y="-230" smooth="yes"/>
      <point x="13" y="-230" type="curve" smooth="yes"/>
      <point x="-43" y="-230" type="line"/>
      <point x="-43" y="-241" type="line" smooth="yes"/>
      <point x="-43" y="-290" smooth="yes"/>
      <point x="-29" y="-310" smooth="yes"/>
      <point x="13" y="-310" type="curve" smooth="yes"/>
      <point x="202" y="-310" smooth="yes"/>
      <point x="280" y="-226" smooth="yes"/>
      <point x="280" y="0" type="curve" smooth="yes"/>
      <point x="280" y="299" type="line"/>
      <point x="687" y="299" type="line" smooth="yes"/>
      <point x="722" y="299"/>
      <point x="757" y="316"/>
      <point x="757" y="374" type="curve"/>
      <point x="280" y="374" type="line"/>
      <point x="280" y="462" smooth="yes"/>
      <point x="294" y="640" smooth="yes"/>
      <point x="525" y="640" type="curve" smooth="yes"/>
      <point x="577" y="640" type="line"/>
      <point x="577" y="660" type="line" smooth="yes"/>
      <point x="577" y="710" smooth="yes"/>
      <point x="554" y="720" smooth="yes"/>
      <point x="531" y="720" type="curve" smooth="yes"/>
      <point x="255" y="720"/>
      <point x="190" y="530"/>
      <point x="190" y="374" type="curve"/>
      <point x="130" y="374" type="line" smooth="yes"/>
      <point x="95" y="374"/>
      <point x="60" y="352"/>
      <point x="60" y="299" type="curve"/>
      <point x="190" y="299" type="line"/>
    </contour>
  </outline>
</glyph>
<glyph name="H" format="1">
  <advance width="807"/>
  <unicode hex="0048"/>
  <outline>
    <contour>
      <point x="677" y="690" type="line" name="hr00"/>
      <point x="676" y="701" smooth="yes"/>
      <point x="667" y="710" smooth="yes"/>
      <point x="656" y="710" type="curve" smooth="yes"/>
      <point x="607" y="710" type="line" smooth="yes"/>
      <point x="596" y="710" smooth="yes"/>
      <point x="587" y="701" smooth="yes"/>
      <point x="587" y="690" type="curve" smooth="yes"/>
      <point x="587" y="374" type="line"/>
      <point x="250" y="374" type="line"/>
      <point x="250" y="690" type="line" smooth="yes"/>
      <point x="250" y="701" smooth="yes"/>
      <point x="240" y="710" smooth="yes"/>
      <point x="229" y="710" type="curve" smooth="yes"/>
      <point x="180" y="710" type="line" smooth="yes"/>
      <point x="169" y="710" smooth="yes"/>
      <point x="160" y="701" smooth="yes"/>
      <point x="160" y="690" type="curve" smooth="yes"/>
      <point x="160" y="60" type="line" smooth="yes"/>
      <point x="160" y="10" smooth="yes"/>
      <point x="191" y="0" smooth="yes"/>
      <point x="221" y="0" type="curve" smooth="yes"/>
      <point x="250" y="0" type="line"/>
      <point x="250" y="299" type="line"/>
      <point x="587" y="299" type="line"/>
      <point x="587" y="60" type="line" smooth="yes"/>
      <point x="587" y="10" smooth="yes"/>
      <point x="617" y="0" smooth="yes"/>
      <point x="647" y="0" type="curve" smooth="yes"/>
      <point x="927" y="0" type="line" smooth="yes"/>
      <point x="962" y="0"/>
      <point x="997" y="12"/>
      <point x="997" y="70" type="curve"/>
      <point x="677" y="70" type="line"/>
    </contour>
  </outline>
</glyph>
<glyph name="J" format="1">
  <advance width="505"/>
  <unicode hex="004A"/>
  <outline>
    <contour>
      <point x="625" y="0" type="line" smooth="yes" name="hr00"/>
      <point x="660" y="0"/>
      <point x="695" y="12"/>
      <point x="695" y="70" type="curve"/>
      <point x="315" y="70" type="line"/>
      <point x="358" y="121" smooth="yes"/>
      <point x="377" y="205" smooth="yes"/>
      <point x="377" y="340" type="curve" smooth="yes"/>
      <point x="377" y="633" type="line"/>
      <point x="409" y="642" smooth="yes"/>
      <point x="426" y="669" smooth="yes"/>
      <point x="426" y="702" type="curve" smooth="yes"/>
      <point x="426" y="742" smooth="yes"/>
      <point x="401" y="775" smooth="yes"/>
      <point x="353" y="775" type="curve" smooth="yes"/>
      <point x="308" y="775"/>
      <point x="284" y="746"/>
      <point x="281" y="710" type="curve"/>
      <point x="13" y="710" type="line"/>
      <point x="13" y="684" type="line" smooth="yes"/>
      <point x="13" y="657" smooth="yes"/>
      <point x="22" y="630" smooth="yes"/>
      <point x="67" y="630" type="curve" smooth="yes"/>
      <point x="287" y="630" type="line"/>
      <point x="287" y="340" type="line" smooth="yes"/>
      <point x="287" y="104" smooth="yes"/>
      <point x="235" y="70" smooth="yes"/>
      <point x="110" y="70" type="curve" smooth="yes"/>
      <point x="0" y="70" type="line"/>
      <point x="0" y="54" type="line" smooth="yes"/>
      <point x="0" y="27" smooth="yes"/>
      <point x="9" y="0" smooth="yes"/>
      <point x="53" y="0" type="curve" smooth="yes"/>
    </contour>
  </outline>
</glyph>
<glyph name="M" format="1">
  <advance width="1193"/>
  <unicode hex="004D"/>
  <outline>
    <contour>
      <point x="250" y="0" type="line"/>
      <point x="250" y="63" type="line" smooth="yes"/>
      <point x="250" y="342"/>
      <point x="479" y="640"/>
      <point x="567" y="640" type="curve"/>
      <point x="567" y="191" type="line"/>
      <point x="554" y="160" smooth="yes"/>
      <point x="546" y="127" smooth="yes"/>
      <point x="546" y="91" type="curve" smooth="yes"/>
      <point x="546" y="28" smooth="yes"/>
      <point x="572" y="0" smooth="yes"/>
      <point x="627" y="0" type="curve" smooth="yes"/>
      <point x="657" y="0" type="line"/>
      <point x="657" y="63" type="line" smooth="yes"/>
      <point x="657" y="342"/>
      <point x="886" y="640"/>
      <point x="974" y="640" type="curve"/>
      <point x="974" y="60" type="line" smooth="yes"/>
      <point x="974" y="10" smooth="yes"/>
      <point x="1002" y="0" smooth="yes"/>
      <point x="1033" y="0" type="curve" smooth="yes"/>
      <point x="1313" y="0" type="line" smooth="yes"/>
      <point x="1348" y="0"/>
      <point x="1383" y="12"/>
      <point x="1383" y="70" type="curve"/>
      <point x="1064" y="70" type="line"/>
      <point x="1064" y="630" type="line" smooth="yes"/>
      <point x="1064" y="680" smooth="yes"/>
      <point x="1044" y="720" smooth="yes"/>
      <point x="974" y="720" type="curve" smooth="yes"/>
      <point x="873" y="720"/>
      <point x="739" y="558"/>
      <point x="657" y="371" type="curve"/>
      <point x="657" y="630" type="line" smooth="yes"/>
      <point x="657" y="680" smooth="yes"/>
      <point x="637" y="720" smooth="yes"/>
      <point x="567" y="720" type="curve" smooth="yes"/>
      <point x="466" y="720"/>
      <point x="332" y="558"/>
      <point x="250" y="371" type="curve"/>
      <point x="250" y="690" type="line" smooth="yes" name="hr01"/>
      <point x="250" y="701" smooth="yes"/>
      <point x="241" y="710" smooth="yes"/>
      <point x="230" y="710" type="curve" smooth="yes"/>
      <point x="180" y="710" type="line" smooth="yes"/>
      <point x="169" y="710" smooth="yes"/>
      <point x="160" y="701" smooth="yes"/>
      <point x="160" y="690" type="curve" smooth="yes"/>
      <point x="160" y="191" type="line"/>
      <point x="147" y="160" smooth="yes"/>
      <point x="139" y="127" smooth="yes"/>
      <point x="139" y="91" type="curve" smooth="yes"/>
      <point x="139" y="30" smooth="yes"/>
      <point x="163" y="0" smooth="yes"/>
      <point x="214" y="0" type="curve" smooth="yes"/>
    </contour>
  </outline>
</glyph>
<glyph name="N" format="1">
  <advance width="807"/>
  <unicode hex="004E"/>
  <outline>
    <contour>
      <point x="250" y="0" type="line"/>
      <point x="250" y="63" type="line" smooth="yes"/>
      <point x="250" y="342"/>
      <point x="492" y="640"/>
      <point x="587" y="640" type="curve"/>
      <point x="587" y="60" type="line" smooth="yes"/>
      <point x="587" y="10" smooth="yes"/>
      <point x="617" y="0" smooth="yes"/>
      <point x="647" y="0" type="curve" smooth="yes"/>
      <point x="927" y="0" type="line" smooth="yes"/>
      <point x="962" y="0"/>
      <point x="997" y="12"/>
      <point x="997" y="70" type="curve"/>
      <point x="677" y="70" type="line"/>
      <point x="677" y="630" type="line" smooth="yes"/>
      <point x="677" y="680" smooth="yes"/>
      <point x="657" y="720" smooth="yes"/>
      <point x="587" y="720" type="curve" smooth="yes"/>
      <point x="478" y="720"/>
      <point x="335" y="554"/>
      <point x="250" y="363" type="curve"/>
      <point x="250" y="690" type="line" smooth="yes" name="hr01"/>
      <point x="250" y="701" smooth="yes"/>
      <point x="241" y="710" smooth="yes"/>
      <point x="230" y="710" type="curve" smooth="yes"/>
      <point x="180" y="710" type="line" smooth="yes"/>
      <point x="169" y="710" smooth="yes"/>
      <point x="160" y="701" smooth="yes"/>
      <point x="160" y="690" type="curve" smooth="yes"/>
      <point x="160" y="191" type="line"/>
      <point x="147" y="160" smooth="yes"/>
      <point x="139" y="127" smooth="yes"/>
      <point x="139" y="91" type="curve" smooth="yes"/>
      <point x="139" y="28" smooth="yes"/>
      <point x="165" y="0" smooth="yes"/>
      <point x="220" y="0" type="curve" smooth="yes"/>
    </contour>
  </outline>
</glyph>
<glyph name="Q" format="1">
  <advance width="761"/>
  <unicode hex="0051"/>
  <outline>
    <contour>
      <point x="205" y="282" type="curve" smooth="yes"/>
      <point x="205" y="538"/>
      <point x="313" y="640"/>
      <point x="580" y="640" type="curve"/>
      <point x="580" y="437" type="line" smooth="yes"/>
      <point x="580" y="181" smooth="yes"/>
      <point x="472" y="70" smooth="yes"/>
      <point x="205" y="70" type="curve" smooth="yes"/>
      <point x="115" y="70" type="line"/>
      <point x="115" y="-4" smooth="yes"/>
      <point x="162" y="-20" smooth="yes"/>
      <point x="204" y="-20" type="curve" smooth="yes"/>
      <point x="238" y="-20"/>
      <point x="271" y="-11"/>
      <point x="300" y="0" type="curve" name="hr01"/>
      <point x="881" y="0" type="line" smooth="yes"/>
      <point x="916" y="0"/>
      <point x="951" y="12"/>
      <point x="951" y="70" type="curve"/>
      <point x="498" y="70" type="line"/>
      <point x="614" y="133" smooth="yes"/>
      <point x="670" y="251" smooth="yes"/>
      <point x="670" y="437" type="curve" smooth="yes"/>
      <point x="670" y="636" type="line" smooth="yes"/>
      <point x="670" y="682" smooth="yes"/>
      <point x="657" y="720" smooth="yes"/>
      <point x="591" y="720" type="curve" smooth="yes"/>
      <point x="267" y="720" smooth="yes"/>
      <point x="115" y="589" smooth="yes"/>
      <point x="115" y="282" type="curve" smooth="yes"/>
      <point x="115" y="222" type="line"/>
      <point x="144" y="222" type="line" smooth="yes"/>
      <point x="174" y="222" smooth="yes"/>
      <point x="205" y="232" smooth="yes"/>
    </contour>
  </outline>
</glyph>
<glyph name="X" format="1">
  <advance width="713"/>
  <unicode hex="0058"/>
  <outline>
    <contour>
      <point x="99" y="720" type="curve" smooth="yes" name="hr00"/>
      <point x="54" y="720" smooth="yes"/>
      <point x="45" y="693" smooth="yes"/>
      <point x="45" y="666" type="curve" smooth="yes"/>
      <point x="45" y="640" type="line"/>
      <point x="86" y="640" type="line" smooth="yes"/>
      <point x="144" y="640" smooth="yes"/>
      <point x="164" y="627" smooth="yes"/>
      <point x="234" y="506" type="curve" smooth="yes"/>
      <point x="320" y="357" type="line"/>
      <point x="232" y="204" type="line" smooth="yes"/>
      <point x="162" y="82" smooth="yes"/>
      <point x="136" y="70" smooth="yes"/>
      <point x="88" y="70" type="curve" smooth="yes"/>
      <point x="45" y="70" type="line"/>
      <point x="45" y="59" type="line" smooth="yes"/>
      <point x="45" y="10" smooth="yes"/>
      <point x="59" y="0" smooth="yes"/>
      <point x="114" y="0" type="curve" smooth="yes"/>
      <point x="157" y="0" smooth="yes"/>
      <point x="212" y="3" smooth="yes"/>
      <point x="290" y="140" type="curve" smooth="yes"/>
      <point x="367" y="276" type="line"/>
      <point x="446" y="140" type="line" smooth="yes"/>
      <point x="524" y="4" smooth="yes"/>
      <point x="579" y="0" smooth="yes"/>
      <point x="622" y="0" type="curve" smooth="yes"/>
      <point x="833" y="0" type="line" smooth="yes"/>
      <point x="868" y="0"/>
      <point x="903" y="12"/>
      <point x="903" y="70" type="curve"/>
      <point x="651" y="70" type="line" smooth="yes"/>
      <point x="603" y="70" smooth="yes"/>
      <point x="580" y="83" smooth="yes"/>
      <point x="510" y="204" type="curve" smooth="yes"/>
      <point x="417" y="363" type="line"/>
      <point x="498" y="506" type="line" smooth="yes"/>
      <point x="567" y="628" smooth="yes"/>
      <point x="591" y="640" smooth="yes"/>
      <point x="649" y="640" type="curve" smooth="yes"/>
      <point x="690" y="640" type="line"/>
      <point x="690" y="666" type="line" smooth="yes"/>
      <point x="690" y="693" smooth="yes"/>
      <point x="681" y="720" smooth="yes"/>
      <point x="636" y="720" type="curve" smooth="yes"/>
      <point x="560" y="720" smooth="yes"/>
      <point x="520" y="709" smooth="yes"/>
      <point x="447" y="580" type="curve" smooth="yes"/>
      <point x="370" y="444" type="line"/>
      <point x="291" y="580" type="line" smooth="yes"/>
      <point x="217" y="708" smooth="yes"/>
      <point x="177" y="720" smooth="yes"/>
    </contour>
  </outline>
</glyph>
<glyph name="bracketleft" format="1">
  <advance width="271"/>
  <unicode hex="005B"/>
  <outline>
    <contour>
      <point x="140" y="690" type="line" name="hr00"/>
      <point x="200" y="690" type="line" smooth="yes"/>
      <point x="235" y="690"/>
      <point x="270" y="702"/>
      <point x="270" y="760" type="curve"/>
      <point x="50" y="760" type="line"/>
      <point x="50" y="-50" type="line"/>
      <point x="270" y="-50" type="line"/>
      <point x="270" y="8" smooth="yes"/>
      <point x="235" y="20" smooth="yes"/>
      <point x="200" y="20" type="curve" smooth="yes"/>
      <point x="140" y="20" type="line"/>
    </contour>
  </outline>
</glyph>
<glyph name="bracketright" format="1">
  <advance width="470"/>
  <unicode hex="005D"/>
  <outline>
    <contour>
      <point x="330" y="690" type="line" name="hr00"/>
      <point x="270" y="690" type="line" smooth="yes"/>
      <point x="235" y="690"/>
      <point x="200" y="702"/>
      <point x="200" y="760" type="curve"/>
      <point x="420" y="760" type="line"/>
      <point x="420" y="-50" type="line"/>
      <point x="200" y="-50" type="line"/>
      <point x="200" y="8" smooth="yes"/>
      <point x="235" y="20" smooth="yes"/>
      <point x="270" y="20" type="curve" smooth="yes"/>
      <point x="330" y="20" type="line"/>
    </contour>
  </outline>
</glyph>
<glyph name="grave" format="1">
  <advance width="474"/>
  <unicode hex="0060"/>
  <outline>
    <contour>
      <point x="440" y="661" type="line" name="hr00"/>
      <point x="231" y="792" type="line"/>
      <point x="218" y="772" type="line" smooth="yes"/>
      <point x="201" y="746" smooth="yes"/>
      <point x="193" y="728" smooth="yes"/>
      <point x="193" y="715" type="curve" smooth="yes"/>
      <point x="193" y="669"/>
      <point x="326" y="637"/>
      <point x="418" y="620" type="curve"/>
    </contour>
  </outline>
</glyph>
<glyph name="c" format="1">
  <advance width="619"/>
  <unicode hex="0063"/>
  <outline>
    <contour>
      <point x="582" y="443" type="curve" smooth="yes" name="hr00"/>
      <point x="582" y="511" smooth="yes"/>
      <point x="562" y="560" smooth="yes"/>
      <point x="466" y="560" type="curve" smooth="yes"/>
      <point x="254" y="560" smooth="yes"/>
      <point x="140" y="441" smooth="yes"/>
      <point x="140" y="200" type="curve" smooth="yes"/>
      <point x="140" y="38" smooth="yes"/>
      <point x="155" y="0" smooth="yes"/>
      <point x="373" y="0" type="curve" smooth="yes"/>
      <point x="739" y="0" type="line" smooth="yes"/>
      <point x="774" y="0"/>
      <point x="809" y="12"/>
      <point x="809" y="70" type="curve"/>
      <point x="373" y="70" type="line" smooth="yes"/>
      <point x="239" y="70" smooth="yes"/>
      <point x="231" y="82" smooth="yes"/>
      <point x="231" y="200" type="curve" smooth="yes"/>
      <point x="231" y="413"/>
      <point x="310" y="480"/>
      <point x="488" y="480" type="curve"/>
      <point x="488" y="324" type="line"/>
      <point x="568" y="324" smooth="yes"/>
      <point x="582" y="375" smooth="yes"/>
    </contour>
  </outline>
</glyph>
<glyph name="f" format="1">
  <advance width="411"/>
  <unicode hex="0066"/>
  <outline>
    <contour>
      <point x="190" y="30" type="line" smooth="yes" name="hr00"/>
      <point x="190" y="-206" smooth="yes"/>
      <point x="138" y="-230" smooth="yes"/>
      <point x="13" y="-230" type="curve" smooth="yes"/>
      <point x="-43" y="-230" type="line"/>
      <point x="-43" y="-241" type="line" smooth="yes"/>
      <point x="-43" y="-290" smooth="yes"/>
      <point x="-29" y="-310" smooth="yes"/>
      <point x="13" y="-310" type="curve" smooth="yes"/>
      <point x="202" y="-310" smooth="yes"/>
      <point x="280" y="-241" smooth="yes"/>
      <point x="280" y="30" type="curve" smooth="yes"/>
      <point x="280" y="460" type="line"/>
      <point x="591" y="460" type="line" smooth="yes"/>
      <point x="626" y="460"/>
      <point x="661" y="482"/>
      <point x="661" y="540" type="curve"/>
      <point x="285" y="540" type="line"/>
      <point x="301" y="674" smooth="yes"/>
      <point x="355" y="690" smooth="yes"/>
      <point x="457" y="690" type="curve" smooth="yes"/>
      <point x="513" y="690" type="line"/>
      <point x="513" y="701" type="line" smooth="yes"/>
      <point x="513" y="750" smooth="yes"/>
      <point x="499" y="770" smooth="yes"/>
      <point x="457" y="770" type="curve" smooth="yes"/>
      <point x="296" y="770"/>
      <point x="216" y="720"/>
      <point x="195" y="540" type="curve"/>
      <point x="130" y="540" type="line" smooth="yes"/>
      <point x="95" y="540"/>
      <point x="60" y="518"/>
      <point x="60" y="460" type="curve"/>
      <point x="190" y="460" type="line"/>
    </contour>
  </outline>
</glyph>
<glyph name="i" format="1">
  <advance width="411"/>
  <unicode hex="0069"/>
  <outline>
    <contour>
      <point x="280" y="70" type="line" name="hr00"/>
      <point x="280" y="520" type="line" smooth="yes"/>
      <point x="279" y="531" smooth="yes"/>
      <point x="270" y="540" smooth="yes"/>
      <point x="259" y="540" type="curve" smooth="yes"/>
      <point x="210" y="540" type="line" smooth="yes"/>
      <point x="199" y="540" smooth="yes"/>
      <point x="190" y="531" smooth="yes"/>
      <point x="190" y="520" type="curve" smooth="yes"/>
      <point x="190" y="60" type="line" smooth="yes"/>
      <point x="190" y="10" smooth="yes"/>
      <point x="221" y="0" smooth="yes"/>
      <point x="251" y="0" type="curve" smooth="yes"/>
      <point x="531" y="0" type="line" smooth="yes"/>
      <point x="566" y="0"/>
      <point x="601" y="12"/>
      <point x="601" y="70" type="curve"/>
    </contour>
    <contour>
      <point x="174" y="704" type="curve" smooth="yes"/>
      <point x="174" y="670" smooth="yes"/>
      <point x="186" y="643" smooth="yes"/>
      <point x="235" y="643" type="curve" smooth="yes"/>
      <point x="283" y="643" smooth="yes"/>
      <point x="297" y="670" smooth="yes"/>
      <point x="297" y="704" type="curve" smooth="yes"/>
      <point x="297" y="737" smooth="yes"/>
      <point x="283" y="766" smooth="yes"/>
      <point x="235" y="766" type="curve" smooth="yes"/>
      <point x="186" y="766" smooth="yes"/>
      <point x="174" y="737" smooth="yes"/>
    </contour>
  </outline>
</glyph>
<glyph name="j" format="1">
  <advance width="411"/>
  <unicode hex="006A"/>
  <outline>
    <contour>
      <point x="190" y="520" type="curve" name="hr00"/>
      <point x="190" y="30" type="line" smooth="yes"/>
      <point x="190" y="-206" smooth="yes"/>
      <point x="138" y="-230" smooth="yes"/>
      <point x="13" y="-230" type="curve" smooth="yes"/>
      <point x="-43" y="-230" type="line"/>
      <point x="-43" y="-241" type="line" smooth="yes"/>
      <point x="-43" y="-290" smooth="yes"/>
      <point x="-29" y="-310" smooth="yes"/>
      <point x="13" y="-310" type="curve" smooth="yes"/>
      <point x="195" y="-310"/>
      <point x="273" y="-246"/>
      <point x="279" y="0" type="curve"/>
      <point x="531" y="0" type="line" smooth="yes"/>
      <point x="566" y="0"/>
      <point x="601" y="12"/>
      <point x="601" y="70" type="curve"/>
      <point x="280" y="70" type="line"/>
      <point x="280" y="520" type="line"/>
      <point x="279" y="531" smooth="yes"/>
      <point x="270" y="540" smooth="yes"/>
      <point x="259" y="540" type="curve" smooth="yes"/>
      <point x="210" y="540" type="line" smooth="yes"/>
      <point x="199" y="540"/>
      <point x="190" y="531"/>
    </contour>
    <contour>
      <point x="174" y="704" type="curve" smooth="yes"/>
      <point x="174" y="670" smooth="yes"/>
      <point x="186" y="643" smooth="yes"/>
      <point x="235" y="643" type="curve" smooth="yes"/>
      <point x="283" y="643" smooth="yes"/>
      <point x="297" y="670" smooth="yes"/>
      <point x="297" y="704" type="curve" smooth="yes"/>
      <point x="297" y="737" smooth="yes"/>
      <point x="283" y="766" smooth="yes"/>
      <point x="235" y="766" type="curve" smooth="yes"/>
      <point x="186" y="766" smooth="yes"/>
      <point x="174" y="737" smooth="yes"/>
    </contour>
  </outline>
</glyph>
<glyph name="l" format="1">
  <advance width="411"/>
  <unicode hex="006C"/>
  <outline>
    <contour>
      <point x="280" y="422" type="line" name="hr00"/>
      <point x="298" y="512" smooth="yes"/>
      <point x="312" y="605" smooth="yes"/>
      <point x="312" y="675" type="curve" smooth="yes"/>
      <point x="312" y="738" smooth="yes"/>
      <point x="281" y="760" smooth="yes"/>
      <point x="207" y="760" type="curve" smooth="yes"/>
      <point x="190" y="760" type="line"/>
      <point x="190" y="60" type="line" smooth="yes"/>
      <point x="190" y="10" smooth="yes"/>
      <point x="221" y="0" smooth="yes"/>
      <point x="251" y="0" type="curve" smooth="yes"/>
      <point x="531" y="0" type="line" smooth="yes"/>
      <point x="566" y="0"/>
      <point x="601" y="12"/>
      <point x="601" y="70" type="curve"/>
      <point x="280" y="70" type="line"/>
    </contour>
  </outline>
</glyph>
<glyph name="m" format="1">
  <advance width="1124"/>
  <unicode hex="006D"/>
  <outline>
    <contour>
      <point x="280" y="0" type="line"/>
      <point x="280" y="63" type="line" smooth="yes"/>
      <point x="280" y="342"/>
      <point x="459" y="480"/>
      <point x="547" y="480" type="curve"/>
      <point x="547" y="191" type="line"/>
      <point x="534" y="160" smooth="yes"/>
      <point x="526" y="127" smooth="yes"/>
      <point x="526" y="91" type="curve" smooth="yes"/>
      <point x="526" y="28" smooth="yes"/>
      <point x="552" y="0" smooth="yes"/>
      <point x="607" y="0" type="curve" smooth="yes"/>
      <point x="637" y="0" type="line"/>
      <point x="637" y="63" type="line" smooth="yes"/>
      <point x="637" y="342"/>
      <point x="816" y="480"/>
      <point x="904" y="480" type="curve"/>
      <point x="904" y="60" type="line" smooth="yes"/>
      <point x="904" y="10" smooth="yes"/>
      <point x="934" y="0" smooth="yes"/>
      <point x="964" y="0" type="curve" smooth="yes"/>
      <point x="1244" y="0" type="line" smooth="yes"/>
      <point x="1279" y="0"/>
      <point x="1314" y="12"/>
      <point x="1314" y="70" type="curve"/>
      <point x="994" y="70" type="line"/>
      <point x="994" y="470" type="line" smooth="yes"/>
      <point x="994" y="520" smooth="yes"/>
      <point x="974" y="560" smooth="yes"/>
      <point x="904" y="560" type="curve" smooth="yes"/>
      <point x="814" y="560"/>
      <point x="707" y="475"/>
      <point x="637" y="347" type="curve"/>
      <point x="637" y="470" type="line" smooth="yes"/>
      <point x="637" y="520" smooth="yes"/>
      <point x="617" y="560" smooth="yes"/>
      <point x="547" y="560" type="curve" smooth="yes"/>
      <point x="457" y="560"/>
      <point x="350" y="475"/>
      <point x="280" y="347" type="curve"/>
      <point x="280" y="520" type="line" smooth="yes" name="hr01"/>
      <point x="280" y="531" smooth="yes"/>
      <point x="271" y="540" smooth="yes"/>
      <point x="260" y="540" type="curve" smooth="yes"/>
      <point x="210" y="540" type="line" smooth="yes"/>
      <point x="199" y="540" smooth="yes"/>
      <point x="190" y="531" smooth="yes"/>
      <point x="190" y="520" type="curve" smooth="yes"/>
      <point x="190" y="191" type="line"/>
      <point x="177" y="160" smooth="yes"/>
      <point x="169" y="127" smooth="yes"/>
      <point x="169" y="91" type="curve" smooth="yes"/>
      <point x="169" y="30" smooth="yes"/>
      <point x="193" y="0" smooth="yes"/>
      <point x="244" y="0" type="curve" smooth="yes"/>
    </contour>
  </outline>
</glyph>
<glyph name="n" format="1">
  <advance width="788"/>
  <unicode hex="006E"/>
  <outline>
    <contour>
      <point x="281" y="0" type="line"/>
      <point x="281" y="63" type="line" smooth="yes"/>
      <point x="281" y="342"/>
      <point x="473" y="480"/>
      <point x="568" y="480" type="curve"/>
      <point x="568" y="60" type="line" smooth="yes"/>
      <point x="568" y="10" smooth="yes"/>
      <point x="598" y="0" smooth="yes"/>
      <point x="628" y="0" type="curve" smooth="yes"/>
      <point x="908" y="0" type="line" smooth="yes"/>
      <point x="943" y="0"/>
      <point x="978" y="12"/>
      <point x="978" y="70" type="curve"/>
      <point x="658" y="70" type="line"/>
      <point x="658" y="470" type="line" smooth="yes"/>
      <point x="658" y="520" smooth="yes"/>
      <point x="638" y="560" smooth="yes"/>
      <point x="568" y="560" type="curve" smooth="yes"/>
      <point x="471" y="560"/>
      <point x="355" y="472"/>
      <point x="281" y="340" type="curve"/>
      <point x="281" y="520" type="line" smooth="yes" name="hr01"/>
      <point x="281" y="531" smooth="yes"/>
      <point x="272" y="540" smooth="yes"/>
      <point x="261" y="540" type="curve" smooth="yes"/>
      <point x="211" y="540" type="line" smooth="yes"/>
      <point x="200" y="540" smooth="yes"/>
      <point x="191" y="531" smooth="yes"/>
      <point x="191" y="520" type="curve" smooth="yes"/>
      <point x="191" y="191" type="line"/>
      <point x="178" y="160" smooth="yes"/>
      <point x="170" y="127" smooth="yes"/>
      <point x="170" y="91" type="curve" smooth="yes"/>
      <point x="170" y="28" smooth="yes"/>
      <point x="196" y="0" smooth="yes"/>
      <point x="251" y="0" type="curve" smooth="yes"/>
    </contour>
  </outline>
</glyph>
<glyph name="p" format="1">
  <advance width="787"/>
  <unicode hex="0070"/>
  <outline>
    <contour>
      <point x="190" y="38" type="line"/>
      <point x="172" y="-52" smooth="yes"/>
      <point x="158" y="-145" smooth="yes"/>
      <point x="158" y="-215" type="curve" smooth="yes"/>
      <point x="158" y="-278" smooth="yes"/>
      <point x="189" y="-300" smooth="yes"/>
      <point x="263" y="-300" type="curve" smooth="yes"/>
      <point x="280" y="-300" type="line"/>
      <point x="280" y="63" type="line" smooth="yes"/>
      <point x="280" y="342"/>
      <point x="482" y="480"/>
      <point x="577" y="480" type="curve"/>
      <point x="577" y="219" type="line" smooth="yes"/>
      <point x="577" y="164" smooth="yes"/>
      <point x="537" y="70" smooth="yes"/>
      <point x="433" y="70" type="curve" smooth="yes"/>
      <point x="342" y="70" type="line"/>
      <point x="342" y="60" type="line" smooth="yes"/>
      <point x="342" y="10" smooth="yes"/>
      <point x="372" y="0" smooth="yes"/>
      <point x="402" y="0" type="curve" smooth="yes"/>
      <point x="907" y="0" type="line" smooth="yes"/>
      <point x="942" y="0"/>
      <point x="977" y="12"/>
      <point x="977" y="70" type="curve"/>
      <point x="590" y="70" type="line"/>
      <point x="650" y="106" smooth="yes"/>
      <point x="667" y="163" smooth="yes"/>
      <point x="667" y="219" type="curve" smooth="yes"/>
      <point x="667" y="470" type="line" smooth="yes"/>
      <point x="667" y="520" smooth="yes"/>
      <point x="647" y="560" smooth="yes"/>
      <point x="577" y="560" type="curve" smooth="yes"/>
      <point x="474" y="560"/>
      <point x="355" y="472"/>
      <point x="280" y="339" type="curve"/>
      <point x="280" y="520" type="line" smooth="yes" name="hr01"/>
      <point x="280" y="531" smooth="yes"/>
      <point x="270" y="540" smooth="yes"/>
      <point x="259" y="540" type="curve" smooth="yes"/>
      <point x="210" y="540" type="line" smooth="yes"/>
      <point x="199" y="540" smooth="yes"/>
      <point x="190" y="531" smooth="yes"/>
      <point x="190" y="520" type="curve" smooth="yes"/>
    </contour>
  </outline>
</glyph>
<glyph name="r" format="1">
  <advance width="714"/>
  <unicode hex="0072"/>
  <outline>
    <contour>
      <point x="249" y="138" type="line" smooth="yes" name="hr00"/>
      <point x="265" y="181" smooth="yes"/>
      <point x="273" y="229" smooth="yes"/>
      <point x="273" y="274" type="curve" smooth="yes"/>
      <point x="273" y="460" type="line"/>
      <point x="391" y="460" type="line" smooth="yes"/>
      <point x="495" y="460" smooth="yes"/>
      <point x="504" y="436" smooth="yes"/>
      <point x="504" y="340" type="curve" smooth="yes"/>
      <point x="504" y="60" type="line" smooth="yes"/>
      <point x="504" y="10" smooth="yes"/>
      <point x="535" y="0" smooth="yes"/>
      <point x="565" y="0" type="curve" smooth="yes"/>
      <point x="834" y="0" type="line" smooth="yes"/>
      <point x="869" y="0"/>
      <point x="904" y="12"/>
      <point x="904" y="70" type="curve"/>
      <point x="594" y="70" type="line"/>
      <point x="594" y="340" type="line" smooth="yes"/>
      <point x="594" y="492" smooth="yes"/>
      <point x="579" y="540" smooth="yes"/>
      <point x="391" y="540" type="curve" smooth="yes"/>
      <point x="261" y="540" type="line"/>
      <point x="258" y="576" smooth="yes"/>
      <point x="233" y="605" smooth="yes"/>
      <point x="188" y="605" type="curve" smooth="yes"/>
      <point x="140" y="605" smooth="yes"/>
      <point x="116" y="572" smooth="yes"/>
      <point x="116" y="532" type="curve" smooth="yes"/>
      <point x="116" y="492"/>
      <point x="140" y="460"/>
      <point x="188" y="460" type="curve"/>
      <point x="188" y="274" type="line" smooth="yes"/>
      <point x="188" y="238" smooth="yes"/>
      <point x="186" y="202" smooth="yes"/>
      <point x="173" y="169" type="curve" smooth="yes"/>
      <point x="119" y="29" type="line" smooth="yes"/>
      <point x="116" y="22" smooth="yes"/>
      <point x="115" y="17" smooth="yes"/>
      <point x="115" y="13" type="curve" smooth="yes"/>
      <point x="115" y="4" smooth="yes"/>
      <point x="121" y="0" smooth="yes"/>
      <point x="129" y="0" type="curve" smooth="yes"/>
      <point x="185" y="0" type="line" smooth="yes"/>
      <point x="193" y="0" smooth="yes"/>
      <point x="199" y="5" smooth="yes"/>
      <point x="202" y="12" type="curve" smooth="yes"/>
    </contour>
  </outline>
</glyph>
<glyph name="v" format="1">
  <advance width="684"/>
  <unicode hex="0076"/>
  <outline>
    <contour>
      <point x="504" y="532" type="curve" smooth="yes" name="hr00"/>
      <point x="504" y="497"/>
      <point x="529" y="468"/>
      <point x="562" y="461" type="curve"/>
      <point x="540" y="190"/>
      <point x="405" y="96"/>
      <point x="280" y="82" type="curve"/>
      <point x="280" y="520" type="line" smooth="yes"/>
      <point x="280" y="531" smooth="yes"/>
      <point x="270" y="540" smooth="yes"/>
      <point x="259" y="540" type="curve" smooth="yes"/>
      <point x="210" y="540" type="line" smooth="yes"/>
      <point x="199" y="540" smooth="yes"/>
      <point x="190" y="531" smooth="yes"/>
      <point x="190" y="520" type="curve" smooth="yes"/>
      <point x="190" y="54" type="line" smooth="yes"/>
      <point x="190" y="27" smooth="yes"/>
      <point x="199" y="0" smooth="yes"/>
      <point x="244" y="0" type="curve" smooth="yes"/>
      <point x="496" y="0"/>
      <point x="632" y="222"/>
      <point x="647" y="460" type="curve"/>
      <point x="881" y="460" type="line" smooth="yes"/>
      <point x="916" y="460"/>
      <point x="951" y="482"/>
      <point x="951" y="540" type="curve"/>
      <point x="648" y="540" type="line"/>
      <point x="644" y="576" smooth="yes"/>
      <point x="613" y="605" smooth="yes"/>
      <point x="576" y="605" type="curve" smooth="yes"/>
      <point x="536" y="605" smooth="yes"/>
      <point x="504" y="572" smooth="yes"/>
    </contour>
  </outline>
</glyph>
<glyph name="x" format="1">
  <advance width="675"/>
  <unicode hex="0078"/>
  <outline>
    <contour>
      <point x="795" y="0" type="line" smooth="yes" name="hr00"/>
      <point x="830" y="0"/>
      <point x="865" y="12"/>
      <point x="865" y="70" type="curve"/>
      <point x="613" y="70" type="line" smooth="yes"/>
      <point x="565" y="70" smooth="yes"/>
      <point x="544" y="86" smooth="yes"/>
      <point x="469" y="204" type="curve" smooth="yes"/>
      <point x="418" y="284" type="line"/>
      <point x="443" y="326" type="line" smooth="yes"/>
      <point x="515" y="446" smooth="yes"/>
      <point x="539" y="460" smooth="yes"/>
      <point x="597" y="460" type="curve" smooth="yes"/>
      <point x="640" y="460" type="line"/>
      <point x="640" y="471" type="line" smooth="yes"/>
      <point x="640" y="520" smooth="yes"/>
      <point x="626" y="540" smooth="yes"/>
      <point x="584" y="540" type="curve" smooth="yes"/>
      <point x="506" y="540" smooth="yes"/>
      <point x="476" y="526" smooth="yes"/>
      <point x="398" y="400" type="curve" smooth="yes"/>
      <point x="372" y="357" type="line"/>
      <point x="345" y="400" type="line" smooth="yes"/>
      <point x="266" y="525" smooth="yes"/>
      <point x="234" y="540" smooth="yes"/>
      <point x="156" y="540" type="curve" smooth="yes"/>
      <point x="114" y="540" smooth="yes"/>
      <point x="100" y="520" smooth="yes"/>
      <point x="100" y="471" type="curve" smooth="yes"/>
      <point x="100" y="460" type="line"/>
      <point x="143" y="460" type="line" smooth="yes"/>
      <point x="201" y="460" smooth="yes"/>
      <point x="220" y="445" smooth="yes"/>
      <point x="294" y="326" type="curve" smooth="yes"/>
      <point x="320" y="284" type="line"/>
      <point x="270" y="204" type="line" smooth="yes"/>
      <point x="196" y="85" smooth="yes"/>
      <point x="171" y="70" smooth="yes"/>
      <point x="123" y="70" type="curve" smooth="yes"/>
      <point x="80" y="70" type="line"/>
      <point x="80" y="59" type="line" smooth="yes"/>
      <point x="80" y="10" smooth="yes"/>
      <point x="94" y="0" smooth="yes"/>
      <point x="149" y="0" type="curve" smooth="yes"/>
      <point x="192" y="0" smooth="yes"/>
      <point x="239" y="6" smooth="yes"/>
      <point x="322" y="140" type="curve" smooth="yes"/>
      <point x="366" y="211" type="line"/>
      <point x="411" y="140" type="line" smooth="yes"/>
      <point x="495" y="7" smooth="yes"/>
      <point x="541" y="0" smooth="yes"/>
      <point x="584" y="0" type="curve" smooth="yes"/>
    </contour>
  </outline>
</glyph>
<glyph name="bar" format="1">
  <advance width="500"/>
  <unicode hex="007C"/>
  <outline>
    <contour>
      <point x="320" y="760" type="line" name="hr00"/>
      <point x="311" y="760" type="line" smooth="yes"/>
      <point x="268" y="760" smooth="yes"/>
      <point x="250" y="755" smooth="yes"/>
      <point x="250" y="700" type="curve" smooth="yes"/>
      <point x="250" y="-50" type="line"/>
      <point x="259" y="-50" type="line" smooth="yes"/>
      <point x="308" y="-50" smooth="yes"/>
      <point x="320" y="-38" smooth="yes"/>
      <point x="320" y="10" type="curve" smooth="yes"/>
    </contour>
  </outline>
</glyph>
<glyph name="exclamdown" format="1">
  <advance width="406"/>
  <unicode hex="00A1"/>
  <outline>
    <contour>
      <point x="279" y="334" type="line" smooth="yes" name="hr00"/>
      <point x="279" y="345" smooth="yes"/>
      <point x="269" y="354" smooth="yes"/>
      <point x="258" y="354" type="curve" smooth="yes"/>
      <point x="219" y="354" type="line" smooth="yes"/>
      <point x="208" y="354" smooth="yes"/>
      <point x="199" y="345" smooth="yes"/>
      <point x="199" y="334" type="curve" smooth="yes"/>
      <point x="199" y="117" type="line"/>
      <point x="181" y="21" smooth="yes"/>
      <point x="170" y="-53" smooth="yes"/>
      <point x="170" y="-101" type="curve" smooth="yes"/>
      <point x="170" y="-164"/>
      <point x="188" y="-206"/>
      <point x="279" y="-206" type="curve"/>
    </contour>
    <contour>
      <point x="306" y="493" type="curve" smooth="yes"/>
      <point x="306" y="531" smooth="yes"/>
      <point x="293" y="560" smooth="yes"/>
      <point x="239" y="560" type="curve" smooth="yes"/>
      <point x="187" y="560" smooth="yes"/>
      <point x="171" y="531" smooth="yes"/>
      <point x="171" y="493" type="curve" smooth="yes"/>
      <point x="171" y="456" smooth="yes"/>
      <point x="187" y="425" smooth="yes"/>
      <point x="239" y="425" type="curve" smooth="yes"/>
      <point x="293" y="425" smooth="yes"/>
      <point x="306" y="456" smooth="yes"/>
    </contour>
  </outline>
</glyph>
<glyph name="sterling" format="1">
  <advance width="600"/>
  <unicode hex="00A3"/>
  <outline>
    <contour>
      <point x="377" y="286" type="line" smooth="yes" name="hr00"/>
      <point x="421" y="286"/>
      <point x="431" y="311"/>
      <point x="431" y="356" type="curve"/>
      <point x="247" y="356" type="line"/>
      <point x="247" y="370" type="line" smooth="yes"/>
      <point x="247" y="606" smooth="yes"/>
      <point x="299" y="630" smooth="yes"/>
      <point x="424" y="630" type="curve" smooth="yes"/>
      <point x="534" y="630" type="line"/>
      <point x="534" y="656" type="line" smooth="yes"/>
      <point x="534" y="683" smooth="yes"/>
      <point x="525" y="710" smooth="yes"/>
      <point x="480" y="710" type="curve" smooth="yes"/>
      <point x="424" y="710" type="line" smooth="yes"/>
      <point x="235" y="710" smooth="yes"/>
      <point x="157" y="641" smooth="yes"/>
      <point x="157" y="370" type="curve" smooth="yes"/>
      <point x="157" y="356" type="line"/>
      <point x="117" y="356" type="line" smooth="yes"/>
      <point x="72" y="356"/>
      <point x="63" y="331"/>
      <point x="63" y="286" type="curve"/>
      <point x="157" y="286" type="line"/>
      <point x="157" y="80" type="line"/>
      <point x="122" y="80"/>
      <point x="87" y="58"/>
      <point x="87" y="0" type="curve"/>
      <point x="506" y="0" type="line" smooth="yes"/>
      <point x="541" y="0"/>
      <point x="576" y="22"/>
      <point x="576" y="80" type="curve"/>
      <point x="247" y="80" type="line"/>
      <point x="247" y="286" type="line"/>
    </contour>
  </outline>
</glyph>
<glyph name="currency" format="1">
  <advance width="567"/>
  <unicode hex="00A4"/>
  <outline>
    <contour>
      <point x="137" y="195" type="line" name="hr00"/>
      <point x="50" y="14" type="line"/>
      <point x="73" y="14" type="line" smooth="yes"/>
      <point x="118" y="14" smooth="yes"/>
      <point x="134" y="22" smooth="yes"/>
      <point x="154" y="63" type="curve" smooth="yes"/>
      <point x="217" y="196" type="line"/>
    </contour>
    <contour>
      <point x="443" y="540" type="line"/>
      <point x="517" y="696" type="line"/>
      <point x="495" y="696" type="line" smooth="yes"/>
      <point x="456" y="696" smooth="yes"/>
      <point x="435" y="691" smooth="yes"/>
      <point x="414" y="647" type="curve" smooth="yes"/>
      <point x="368" y="550" type="line"/>
    </contour>
    <contour>
      <point x="346" y="206" type="line"/>
      <point x="368" y="162" smooth="yes"/>
      <point x="393" y="108" smooth="yes"/>
      <point x="414" y="63" type="curve" smooth="yes"/>
      <point x="435" y="19" smooth="yes"/>
      <point x="456" y="14" smooth="yes"/>
      <point x="495" y="14" type="curve" smooth="yes"/>
      <point x="517" y="14" type="line"/>
      <point x="413" y="231" type="line"/>
    </contour>
    <contour>
      <point x="205" y="542" type="line"/>
      <point x="154" y="647" type="line" smooth="yes"/>
      <point x="134" y="688" smooth="yes"/>
      <point x="119" y="696" smooth="yes"/>
      <point x="73" y="696" type="curve" smooth="yes"/>
      <point x="50" y="696" type="line"/>
      <point x="149" y="490" type="line"/>
    </contour>
    <contour>
      <point x="405" y="597" type="curve" smooth="yes"/>
      <point x="166" y="597" smooth="yes"/>
      <point x="106" y="560" smooth="yes"/>
      <point x="106" y="356" type="curve" smooth="yes"/>
      <point x="106" y="216" type="line" smooth="yes"/>
      <point x="106" y="178" smooth="yes"/>
      <point x="116" y="146" smooth="yes"/>
      <point x="172" y="146" type="curve" smooth="yes"/>
      <point x="410" y="146" smooth="yes"/>
      <point x="471" y="183" smooth="yes"/>
      <point x="471" y="387" type="curve" smooth="yes"/>
      <point x="471" y="527" type="line" smooth="yes"/>
      <point x="471" y="565" smooth="yes"/>
      <point x="458" y="597" smooth="yes"/>
    </contour>
    <contour>
      <point x="386" y="387" type="line" smooth="yes"/>
      <point x="386" y="235"/>
      <point x="359" y="226"/>
      <point x="191" y="223" type="curve"/>
      <point x="191" y="356" type="line" smooth="yes"/>
      <point x="191" y="508"/>
      <point x="216" y="517"/>
      <point x="386" y="520" type="curve"/>
    </contour>
  </outline>
</glyph>
<glyph name="yen" format="1">
  <advance width="600"/>
  <unicode hex="00A5"/>
  <outline>
    <contour>
      <point x="430" y="126" type="line" smooth="yes" name="hr00"/>
      <point x="474" y="126"/>
      <point x="484" y="151"/>
      <point x="484" y="196" type="curve"/>
      <point x="345" y="196" type="line"/>
      <point x="345" y="276" type="line"/>
      <point x="347" y="278"/>
      <point x="349" y="282"/>
      <point x="350" y="285" type="curve"/>
      <point x="430" y="285" type="line" smooth="yes"/>
      <point x="474" y="285"/>
      <point x="484" y="310"/>
      <point x="484" y="355" type="curve"/>
      <point x="383" y="355" type="line"/>
      <point x="546" y="704" type="line"/>
      <point x="521" y="715" smooth="yes"/>
      <point x="499" y="720" smooth="yes"/>
      <point x="486" y="720" type="curve" smooth="yes"/>
      <point x="471" y="720" smooth="yes"/>
      <point x="453" y="711" smooth="yes"/>
      <point x="445" y="692" type="curve" smooth="yes"/>
      <point x="300" y="370" type="line"/>
      <point x="155" y="692" type="line" smooth="yes"/>
      <point x="147" y="711" smooth="yes"/>
      <point x="129" y="720" smooth="yes"/>
      <point x="114" y="720" type="curve" smooth="yes"/>
      <point x="101" y="720"/>
      <point x="79" y="715"/>
      <point x="54" y="704" type="curve"/>
      <point x="217" y="355" type="line"/>
      <point x="170" y="355" type="line" smooth="yes"/>
      <point x="125" y="355"/>
      <point x="116" y="330"/>
      <point x="116" y="285" type="curve"/>
      <point x="249" y="285" type="line"/>
      <point x="255" y="276" type="line"/>
      <point x="255" y="196" type="line"/>
      <point x="170" y="196" type="line" smooth="yes"/>
      <point x="125" y="196"/>
      <point x="116" y="171"/>
      <point x="116" y="126" type="curve"/>
      <point x="255" y="126" type="line"/>
      <point x="255" y="60" type="line" smooth="yes"/>
      <point x="255" y="10" smooth="yes"/>
      <point x="286" y="0" smooth="yes"/>
      <point x="316" y="0" type="curve" smooth="yes"/>
      <point x="345" y="0" type="line"/>
      <point x="345" y="126" type="line"/>
    </contour>
  </outline>
</glyph>
<glyph name="section" format="1">
  <advance width="618"/>
  <unicode hex="00A7"/>
  <outline>
    <contour>
      <point x="435" y="61" type="line"/>
      <point x="435" y="-27" smooth="yes"/>
      <point x="420" y="-195" smooth="yes"/>
      <point x="159" y="-195" type="curve" smooth="yes"/>
      <point x="100" y="-195" type="line"/>
      <point x="100" y="-215" type="line" smooth="yes"/>
      <point x="100" y="-265" smooth="yes"/>
      <point x="125" y="-275" smooth="yes"/>
      <point x="150" y="-275" type="curve" smooth="yes"/>
      <point x="453" y="-275" smooth="yes"/>
      <point x="525" y="-95" smooth="yes"/>
      <point x="525" y="51" type="curve" smooth="yes"/>
      <point x="525" y="121" smooth="yes"/>
      <point x="492" y="126" smooth="yes"/>
      <point x="451" y="126" type="curve" smooth="yes"/>
      <point x="386" y="126" type="line"/>
      <point x="500" y="179" smooth="yes"/>
      <point x="538" y="272" smooth="yes"/>
      <point x="538" y="355" type="curve" smooth="yes" name="hr01"/>
      <point x="538" y="425" smooth="yes"/>
      <point x="515" y="435" smooth="yes"/>
      <point x="474" y="435" type="curve" smooth="yes"/>
      <point x="183" y="435" type="line"/>
      <point x="183" y="523" smooth="yes"/>
      <point x="198" y="691" smooth="yes"/>
      <point x="459" y="691" type="curve" smooth="yes"/>
      <point x="518" y="691" type="line"/>
      <point x="518" y="711" type="line" smooth="yes"/>
      <point x="518" y="761" smooth="yes"/>
      <point x="493" y="771" smooth="yes"/>
      <point x="468" y="771" type="curve" smooth="yes"/>
      <point x="165" y="771" smooth="yes"/>
      <point x="93" y="591" smooth="yes"/>
      <point x="93" y="445" type="curve" smooth="yes"/>
      <point x="93" y="375" smooth="yes"/>
      <point x="126" y="370" smooth="yes"/>
      <point x="167" y="370" type="curve" smooth="yes"/>
      <point x="230" y="370" type="line"/>
      <point x="118" y="316" smooth="yes"/>
      <point x="80" y="223" smooth="yes"/>
      <point x="80" y="141" type="curve" smooth="yes" name="hr02"/>
      <point x="80" y="71" smooth="yes"/>
      <point x="103" y="61" smooth="yes"/>
      <point x="144" y="61" type="curve" smooth="yes"/>
    </contour>
    <contour>
      <point x="156" y="128" type="curve"/>
      <point x="157" y="217"/>
      <point x="201" y="362"/>
      <point x="462" y="367" type="curve" name="hr03"/>
      <point x="460" y="278"/>
      <point x="417" y="134"/>
    </contour>
  </outline>
</glyph>
<glyph name="dieresis" format="1">
  <advance width="391"/>
  <unicode hex="00A8"/>
  <outline>
    <contour>
      <point x="63" y="704" type="curve" smooth="yes" name="hr00"/>
      <point x="63" y="670" smooth="yes"/>
      <point x="83" y="643" smooth="yes"/>
      <point x="124" y="643" type="curve" smooth="yes"/>
      <point x="164" y="643" smooth="yes"/>
      <point x="186" y="670" smooth="yes"/>
      <point x="186" y="704" type="curve" smooth="yes"/>
      <point x="186" y="737" smooth="yes"/>
      <point x="164" y="766" smooth="yes"/>
      <point x="124" y="766" type="curve" smooth="yes"/>
      <point x="83" y="766" smooth="yes"/>
      <point x="63" y="737" smooth="yes"/>
    </contour>
    <contour>
      <point x="285" y="704" type="curve" smooth="yes"/>
      <point x="285" y="670" smooth="yes"/>
      <point x="305" y="643" smooth="yes"/>
      <point x="346" y="643" type="curve" smooth="yes"/>
      <point x="386" y="643" smooth="yes"/>
      <point x="408" y="670" smooth="yes"/>
      <point x="408" y="704" type="curve" smooth="yes"/>
      <point x="408" y="737" smooth="yes"/>
      <point x="386" y="766" smooth="yes"/>
      <point x="346" y="766" type="curve" smooth="yes"/>
      <point x="305" y="766" smooth="yes"/>
      <point x="285" y="737" smooth="yes"/>
    </contour>
  </outline>
</glyph>
<glyph name="logicalnot" format="1">
  <advance width="460"/>
  <unicode hex="00AC"/>
  <outline>
    <contour>
      <point x="427" y="299" type="line" name="hr00"/>
      <point x="427" y="183" type="line"/>
      <point x="479" y="183" smooth="yes"/>
      <point x="490" y="189" smooth="yes"/>
      <point x="490" y="221" type="curve" smooth="yes"/>
      <point x="490" y="299" type="line" smooth="yes"/>
      <point x="490" y="361" smooth="yes"/>
      <point x="483" y="374" smooth="yes"/>
      <point x="445" y="374" type="curve" smooth="yes"/>
      <point x="130" y="374" type="line"/>
      <point x="130" y="312" smooth="yes"/>
      <point x="137" y="299" smooth="yes"/>
      <point x="175" y="299" type="curve" smooth="yes"/>
    </contour>
  </outline>
</glyph>
<glyph name="registered" format="1">
  <advance width="775"/>
  <unicode hex="00AE"/>
  <outline>
    <contour>
      <point x="441" y="463" type="line" name="hr00"/>
      <point x="457" y="465"/>
      <point x="464" y="468"/>
      <point x="477" y="472" type="curve"/>
      <point x="493" y="426" smooth="yes"/>
      <point x="531" y="349" smooth="yes"/>
      <point x="580" y="349" type="curve" smooth="yes"/>
      <point x="596" y="349"/>
      <point x="610" y="358"/>
      <point x="623" y="390" type="curve"/>
      <point x="575" y="412"/>
      <point x="549" y="460"/>
      <point x="537" y="496" type="curve"/>
      <point x="597" y="529" smooth="yes"/>
      <point x="618" y="575" smooth="yes"/>
      <point x="618" y="608" type="curve" smooth="yes"/>
      <point x="618" y="655" smooth="yes"/>
      <point x="598" y="710" smooth="yes"/>
      <point x="499" y="710" type="curve" smooth="yes"/>
      <point x="370" y="710" type="line"/>
      <point x="370" y="373" type="line" smooth="yes"/>
      <point x="370" y="363" smooth="yes"/>
      <point x="378" y="355" smooth="yes"/>
      <point x="387" y="355" type="curve" smooth="yes"/>
      <point x="424" y="355" type="line" smooth="yes"/>
      <point x="433" y="355" smooth="yes"/>
      <point x="441" y="363" smooth="yes"/>
      <point x="441" y="373" type="curve" smooth="yes"/>
    </contour>
    <contour>
      <point x="260" y="492" type="line" smooth="yes"/>
      <point x="260" y="748"/>
      <point x="348" y="760"/>
      <point x="715" y="760" type="curve"/>
      <point x="715" y="567" type="line" smooth="yes"/>
      <point x="715" y="311"/>
      <point x="627" y="290"/>
      <point x="260" y="290" type="curve"/>
    </contour>
    <contour>
      <point x="775" y="769" type="line" smooth="yes"/>
      <point x="775" y="813" smooth="yes"/>
      <point x="754" y="829" smooth="yes"/>
      <point x="715" y="829" type="curve" smooth="yes"/>
      <point x="302" y="829" smooth="yes"/>
      <point x="200" y="789" smooth="yes"/>
      <point x="200" y="492" type="curve" smooth="yes"/>
      <point x="200" y="290" type="line" smooth="yes"/>
      <point x="200" y="246" smooth="yes"/>
      <point x="221" y="230" smooth="yes"/>
      <point x="260" y="230" type="curve" smooth="yes"/>
      <point x="673" y="230" smooth="yes"/>
      <point x="775" y="270" smooth="yes"/>
      <point x="775" y="567" type="curve" smooth="yes"/>
    </contour>
    <contour>
      <point x="441" y="524" type="curve"/>
      <point x="441" y="645" type="line"/>
      <point x="503" y="645" type="line" smooth="yes"/>
      <point x="534" y="645" smooth="yes"/>
      <point x="547" y="632" smooth="yes"/>
      <point x="547" y="608" type="curve" smooth="yes"/>
      <point x="547" y="568"/>
      <point x="515" y="540"/>
    </contour>
  </outline>
</glyph>
<glyph name="macron" format="1">
  <advance width="490"/>
  <unicode hex="00AF"/>
  <outline>
    <contour>
      <point x="490" y="650" type="line" name="hr00"/>
      <point x="490" y="669" type="line" smooth="yes"/>
      <point x="490" y="699" smooth="yes"/>
      <point x="480" y="730" smooth="yes"/>
      <point x="430" y="730" type="curve" smooth="yes"/>
      <point x="170" y="730" type="line"/>
      <point x="170" y="704" type="line" smooth="yes"/>
      <point x="170" y="677" smooth="yes"/>
      <point x="179" y="650" smooth="yes"/>
      <point x="224" y="650" type="curve" smooth="yes"/>
    </contour>
  </outline>
</glyph>
<glyph name="ordmasculine" format="1">
  <advance width="489"/>
  <unicode hex="00BA"/>
  <outline>
    <contour>
      <point x="169" y="584" type="line" smooth="yes" name="hr00"/>
      <point x="169" y="644" smooth="yes"/>
      <point x="191" y="656" smooth="yes"/>
      <point x="240" y="656" type="curve" smooth="yes"/>
      <point x="284" y="656" type="line"/>
      <point x="284" y="670" type="line" smooth="yes"/>
      <point x="284" y="705" smooth="yes"/>
      <point x="267" y="720" smooth="yes"/>
      <point x="240" y="720" type="curve" smooth="yes"/>
      <point x="137" y="720" smooth="yes"/>
      <point x="100" y="677" smooth="yes"/>
      <point x="100" y="584" type="curve" smooth="yes"/>
      <point x="100" y="414" type="line" smooth="yes"/>
      <point x="100" y="380" smooth="yes"/>
      <point x="109" y="353" smooth="yes"/>
      <point x="161" y="353" type="curve" smooth="yes"/>
      <point x="316" y="353" smooth="yes"/>
      <point x="389" y="425" smooth="yes"/>
      <point x="389" y="571" type="curve" smooth="yes"/>
      <point x="389" y="659" type="line" smooth="yes"/>
      <point x="389" y="693"/>
      <point x="376" y="720"/>
      <point x="319" y="720" type="curve"/>
      <point x="319" y="571" type="line" smooth="yes"/>
      <point x="319" y="458"/>
      <point x="270" y="420"/>
      <point x="169" y="417" type="curve"/>
    </contour>
  </outline>
</glyph>
<glyph name="onequarter" format="1">
  <advance width="977"/>
  <unicode hex="00BC"/>
  <outline>
    <contour>
      <point x="695" y="710" type="line"/>
      <point x="686" y="710" type="line" smooth="yes"/>
      <point x="643" y="710" smooth="yes"/>
      <point x="628" y="704" smooth="yes"/>
      <point x="609" y="650" type="curve" smooth="yes"/>
      <point x="382" y="0" type="line"/>
      <point x="391" y="0" type="line" smooth="yes"/>
      <point x="440" y="0" smooth="yes"/>
      <point x="451" y="12" smooth="yes"/>
      <point x="468" y="60" type="curve" smooth="yes"/>
    </contour>
    <contour>
      <point x="377" y="287" type="line" smooth="yes"/>
      <point x="402" y="287"/>
      <point x="427" y="305"/>
      <point x="427" y="351" type="curve"/>
      <point x="328" y="351" type="line"/>
      <point x="328" y="635" type="line"/>
      <point x="336" y="650" smooth="yes"/>
      <point x="340" y="668" smooth="yes"/>
      <point x="340" y="680" type="curve" smooth="yes" name="hr01"/>
      <point x="340" y="707" smooth="yes"/>
      <point x="325" y="720" smooth="yes"/>
      <point x="299" y="720" type="curve" smooth="yes"/>
      <point x="261" y="720" type="line"/>
      <point x="261" y="675" type="line" smooth="yes"/>
      <point x="261" y="656" smooth="yes"/>
      <point x="236" y="595" smooth="yes"/>
      <point x="169" y="595" type="curve" smooth="yes"/>
      <point x="157" y="595" smooth="yes"/>
      <point x="148" y="584" smooth="yes"/>
      <point x="148" y="575" type="curve" smooth="yes"/>
      <point x="148" y="551" type="line" smooth="yes"/>
      <point x="148" y="540" smooth="yes"/>
      <point x="157" y="531" smooth="yes"/>
      <point x="169" y="531" type="curve" smooth="yes"/>
      <point x="202" y="531"/>
      <point x="235" y="542"/>
      <point x="258" y="560" type="curve"/>
      <point x="258" y="351" type="line"/>
      <point x="208" y="351" type="line" smooth="yes"/>
      <point x="182" y="351"/>
      <point x="158" y="334"/>
      <point x="158" y="287" type="curve"/>
    </contour>
    <contour>
      <point x="624" y="160" type="line"/>
      <point x="624" y="120" smooth="yes"/>
      <point x="646" y="102" smooth="yes"/>
      <point x="673" y="102" type="curve" smooth="yes"/>
      <point x="818" y="102" type="line"/>
      <point x="818" y="44" type="line" smooth="yes"/>
      <point x="818" y="7" smooth="yes"/>
      <point x="841" y="0" smooth="yes"/>
      <point x="863" y="0" type="curve" smooth="yes"/>
      <point x="888" y="0" type="line"/>
      <point x="888" y="102" type="line"/>
      <point x="922" y="102" type="line" smooth="yes"/>
      <point x="930" y="102" smooth="yes"/>
      <point x="940" y="111" smooth="yes"/>
      <point x="940" y="121" type="curve" smooth="yes"/>
      <point x="940" y="149" type="line" smooth="yes"/>
      <point x="940" y="159" smooth="yes"/>
      <point x="930" y="167" smooth="yes"/>
      <point x="922" y="167" type="curve" smooth="yes"/>
      <point x="888" y="167" type="line"/>
      <point x="888" y="313" type="line" smooth="yes"/>
      <point x="888" y="325" smooth="yes"/>
      <point x="877" y="334" smooth="yes"/>
      <point x="868" y="334" type="curve" smooth="yes"/>
      <point x="838" y="334" type="line" smooth="yes"/>
      <point x="828" y="334" smooth="yes"/>
      <point x="818" y="325" smooth="yes"/>
      <point x="818" y="313" type="curve" smooth="yes"/>
      <point x="818" y="167" type="line"/>
      <point x="692" y="167" type="line"/>
      <point x="719" y="266" smooth="yes"/>
      <point x="732" y="318" smooth="yes"/>
      <point x="750" y="393" type="curve" smooth="yes"/>
      <point x="751" y="398" smooth="yes"/>
      <point x="751" y="404" smooth="yes"/>
      <point x="751" y="409" type="curve" smooth="yes"/>
      <point x="751" y="435"/>
      <point x="733" y="439"/>
      <point x="690" y="439" type="curve"/>
    </contour>
  </outline>
</glyph>
<glyph name="onehalf" format="1">
  <advance width="977"/>
  <unicode hex="00BD"/>
  <outline>
    <contour>
      <point x="695" y="710" type="line"/>
      <point x="686" y="710" type="line" smooth="yes"/>
      <point x="643" y="710" smooth="yes"/>
      <point x="628" y="704" smooth="yes"/>
      <point x="609" y="650" type="curve" smooth="yes"/>
      <point x="382" y="0" type="line"/>
      <point x="391" y="0" type="line" smooth="yes"/>
      <point x="440" y="0" smooth="yes"/>
      <point x="451" y="12" smooth="yes"/>
      <point x="468" y="60" type="curve" smooth="yes"/>
    </contour>
    <contour>
      <point x="377" y="287" type="line" smooth="yes"/>
      <point x="402" y="287"/>
      <point x="427" y="305"/>
      <point x="427" y="351" type="curve"/>
      <point x="328" y="351" type="line"/>
      <point x="328" y="635" type="line"/>
      <point x="336" y="650" smooth="yes"/>
      <point x="340" y="668" smooth="yes"/>
      <point x="340" y="680" type="curve" smooth="yes"/>
      <point x="340" y="707" smooth="yes"/>
      <point x="325" y="720" smooth="yes"/>
      <point x="299" y="720" type="curve" smooth="yes" name="hr01"/>
      <point x="261" y="720" type="line"/>
      <point x="261" y="675" type="line" smooth="yes"/>
      <point x="261" y="656" smooth="yes"/>
      <point x="236" y="595" smooth="yes"/>
      <point x="169" y="595" type="curve" smooth="yes"/>
      <point x="157" y="595" smooth="yes"/>
      <point x="148" y="584" smooth="yes"/>
      <point x="148" y="575" type="curve" smooth="yes"/>
      <point x="148" y="551" type="line" smooth="yes"/>
      <point x="148" y="540" smooth="yes"/>
      <point x="157" y="531" smooth="yes"/>
      <point x="169" y="531" type="curve" smooth="yes"/>
      <point x="202" y="531"/>
      <point x="235" y="542"/>
      <point x="258" y="560" type="curve"/>
      <point x="258" y="351" type="line"/>
      <point x="208" y="351" type="line" smooth="yes"/>
      <point x="182" y="351"/>
      <point x="158" y="334"/>
      <point x="158" y="287" type="curve"/>
    </contour>
    <contour>
      <point x="647" y="433" type="line"/>
      <point x="647" y="413" type="line" smooth="yes"/>
      <point x="647" y="375" smooth="yes"/>
      <point x="667" y="369" smooth="yes"/>
      <point x="684" y="369" type="curve" smooth="yes"/>
      <point x="790" y="369" type="line" smooth="yes"/>
      <point x="829" y="369" smooth="yes"/>
      <point x="841" y="365" smooth="yes"/>
      <point x="841" y="337" type="curve" smooth="yes"/>
      <point x="840" y="269" smooth="yes"/>
      <point x="763" y="183" smooth="yes"/>
      <point x="686" y="101" type="curve" smooth="yes"/>
      <point x="638" y="50" type="line" smooth="yes"/>
      <point x="630" y="42"/>
      <point x="625" y="24"/>
      <point x="625" y="0" type="curve"/>
      <point x="879" y="0" type="line" smooth="yes"/>
      <point x="904" y="0"/>
      <point x="929" y="18"/>
      <point x="929" y="64" type="curve"/>
      <point x="739" y="64" type="line"/>
      <point x="812" y="140" smooth="yes"/>
      <point x="911" y="253" smooth="yes"/>
      <point x="911" y="337" type="curve" smooth="yes"/>
      <point x="911" y="419" smooth="yes"/>
      <point x="882" y="433" smooth="yes"/>
      <point x="790" y="433" type="curve" smooth="yes"/>
    </contour>
  </outline>
</glyph>
<glyph name="questiondown" format="1">
  <advance width="406"/>
  <unicode hex="00BF"/>
  <outline>
    <contour>
      <point x="306" y="493" type="curve" smooth="yes" name="hr00"/>
      <point x="306" y="531" smooth="yes"/>
      <point x="293" y="560" smooth="yes"/>
      <point x="239" y="560" type="curve" smooth="yes"/>
      <point x="187" y="560" smooth="yes"/>
      <point x="171" y="531" smooth="yes"/>
      <point x="171" y="493" type="curve" smooth="yes"/>
      <point x="171" y="456" smooth="yes"/>
      <point x="187" y="425" smooth="yes"/>
      <point x="239" y="425" type="curve" smooth="yes"/>
      <point x="293" y="425" smooth="yes"/>
      <point x="306" y="456" smooth="yes"/>
    </contour>
    <contour>
      <point x="288" y="-136" type="line" smooth="yes"/>
      <point x="68" y="-136"/>
      <point x="-1" y="18"/>
      <point x="-1" y="151" type="curve"/>
      <point x="219" y="151" type="line" smooth="yes"/>
      <point x="269" y="151" smooth="yes"/>
      <point x="279" y="181" smooth="yes"/>
      <point x="279" y="211" type="curve" smooth="yes"/>
      <point x="279" y="334" type="line" smooth="yes"/>
      <point x="279" y="345" smooth="yes"/>
      <point x="269" y="354" smooth="yes"/>
      <point x="258" y="354" type="curve" smooth="yes"/>
      <point x="219" y="354" type="line" smooth="yes"/>
      <point x="208" y="354" smooth="yes"/>
      <point x="199" y="345" smooth="yes"/>
      <point x="199" y="334" type="curve" smooth="yes"/>
      <point x="199" y="241" type="line"/>
      <point x="9" y="241" type="line" smooth="yes"/>
      <point x="-41" y="241" smooth="yes"/>
      <point x="-81" y="221" smooth="yes"/>
      <point x="-81" y="151" type="curve" smooth="yes"/>
      <point x="-81" y="-112" smooth="yes"/>
      <point x="113" y="-216" smooth="yes"/>
      <point x="288" y="-216" type="curve" smooth="yes"/>
      <point x="333" y="-216" smooth="yes"/>
      <point x="342" y="-189" smooth="yes"/>
      <point x="342" y="-162" type="curve" smooth="yes"/>
      <point x="342" y="-136" type="line"/>
    </contour>
  </outline>
</glyph>
<glyph name="Atilde" format="1">
  <advance width="779"/>
  <unicode hex="00C3"/>
  <outline>
    <contour>
      <point x="616" y="70" type="line"/>
      <point x="616" y="640" type="line"/>
      <point x="670" y="640" type="line"/>
      <point x="670" y="666" type="line" smooth="yes"/>
      <point x="670" y="693" smooth="yes"/>
      <point x="661" y="720" smooth="yes"/>
      <point x="616" y="720" type="curve" smooth="yes"/>
      <point x="395" y="720" smooth="yes"/>
      <point x="104" y="580" smooth="yes"/>
      <point x="104" y="60" type="curve" smooth="yes"/>
      <point x="104" y="0" type="line"/>
      <point x="139" y="0" type="line" smooth="yes"/>
      <point x="169" y="0" smooth="yes"/>
      <point x="194" y="10" smooth="yes"/>
      <point x="194" y="60" type="curve" smooth="yes"/>
      <point x="194" y="151"/>
      <point x="204" y="230"/>
      <point x="222" y="299" type="curve"/>
      <point x="526" y="299" type="line"/>
      <point x="526" y="60" type="line" smooth="yes"/>
      <point x="526" y="10" smooth="yes"/>
      <point x="556" y="0" smooth="yes"/>
      <point x="586" y="0" type="curve" smooth="yes"/>
      <point x="899" y="0" type="line" smooth="yes"/>
      <point x="934" y="0"/>
      <point x="969" y="12"/>
      <point x="969" y="70" type="curve"/>
    </contour>
    <contour>
      <point x="526" y="630" type="curve"/>
      <point x="526" y="374" type="line"/>
      <point x="247" y="374" type="line"/>
      <point x="306" y="521"/>
      <point x="409" y="603"/>
    </contour>
    <contour>
      <point x="331" y="910" type="line"/>
      <point x="312" y="889" smooth="yes"/>
      <point x="310" y="872" smooth="yes"/>
      <point x="310" y="859" type="curve" smooth="yes"/>
      <point x="310" y="815" smooth="yes"/>
      <point x="348" y="783" smooth="yes"/>
      <point x="398" y="783" type="curve" smooth="yes"/>
      <point x="417" y="783" smooth="yes"/>
      <point x="438" y="787" smooth="yes"/>
      <point x="460" y="797" type="curve" smooth="yes"/>
      <point x="494" y="812" type="line" smooth="yes"/>
      <point x="522" y="824" smooth="yes"/>
      <point x="541" y="830" smooth="yes"/>
      <point x="554" y="830" type="curve" smooth="yes" name="hr01"/>
      <point x="573" y="830" smooth="yes"/>
      <point x="584" y="822" smooth="yes"/>
      <point x="596" y="811" type="curve" smooth="yes"/>
      <point x="622" y="786" type="line"/>
      <point x="641" y="807" smooth="yes"/>
      <point x="643" y="824" smooth="yes"/>
      <point x="643" y="837" type="curve" smooth="yes"/>
      <point x="643" y="881" smooth="yes"/>
      <point x="605" y="913" smooth="yes"/>
      <point x="555" y="913" type="curve" smooth="yes"/>
      <point x="536" y="913" smooth="yes"/>
      <point x="515" y="909" smooth="yes"/>
      <point x="493" y="899" type="curve" smooth="yes"/>
      <point x="459" y="884" type="line" smooth="yes"/>
      <point x="431" y="872" smooth="yes"/>
      <point x="412" y="866" smooth="yes"/>
      <point x="399" y="866" type="curve" smooth="yes" name="hr02"/>
      <point x="380" y="866" smooth="yes"/>
      <point x="369" y="874" smooth="yes"/>
      <point x="357" y="885" type="curve" smooth="yes"/>
    </contour>
  </outline>
</glyph>
<glyph name="Aring" format="1">
  <advance width="779"/>
  <unicode hex="00C5"/>
  <outline>
    <contour>
      <point x="616" y="70" type="line"/>
      <point x="616" y="640" type="line"/>
      <point x="670" y="640" type="line"/>
      <point x="670" y="666" type="line" smooth="yes"/>
      <point x="670" y="693" smooth="yes"/>
      <point x="661" y="720" smooth="yes"/>
      <point x="616" y="720" type="curve" smooth="yes"/>
      <point x="395" y="720" smooth="yes"/>
      <point x="104" y="580" smooth="yes"/>
      <point x="104" y="60" type="curve" smooth="yes"/>
      <point x="104" y="0" type="line"/>
      <point x="139" y="0" type="line" smooth="yes"/>
      <point x="169" y="0" smooth="yes"/>
      <point x="194" y="10" smooth="yes"/>
      <point x="194" y="60" type="curve" smooth="yes"/>
      <point x="194" y="151"/>
      <point x="204" y="230"/>
      <point x="222" y="299" type="curve"/>
      <point x="526" y="299" type="line"/>
      <point x="526" y="60" type="line" smooth="yes"/>
      <point x="526" y="10" smooth="yes"/>
      <point x="556" y="0" smooth="yes"/>
      <point x="586" y="0" type="curve" smooth="yes"/>
      <point x="899" y="0" type="line" smooth="yes"/>
      <point x="934" y="0"/>
      <point x="969" y="12"/>
      <point x="969" y="70" type="curve"/>
    </contour>
    <contour>
      <point x="526" y="630" type="curve"/>
      <point x="526" y="374" type="line"/>
      <point x="247" y="374" type="line"/>
      <point x="306" y="521"/>
      <point x="409" y="603"/>
    </contour>
    <contour>
      <point x="426" y="761" type="curve"/>
      <point x="507" y="761" smooth="yes"/>
      <point x="545" y="811" smooth="yes"/>
      <point x="545" y="877" type="curve" smooth="yes" name="hr01"/>
      <point x="545" y="944" smooth="yes"/>
      <point x="507" y="994" smooth="yes"/>
      <point x="426" y="994" type="curve" smooth="yes"/>
      <point x="345" y="994" smooth="yes"/>
      <point x="307" y="944" smooth="yes"/>
      <point x="307" y="877" type="curve" smooth="yes"/>
      <point x="307" y="811" smooth="yes"/>
      <point x="345" y="761" smooth="yes"/>
    </contour>
    <contour>
      <point x="426" y="825" type="curve" smooth="yes"/>
      <point x="389" y="825" smooth="yes"/>
      <point x="372" y="847" smooth="yes"/>
      <point x="372" y="877" type="curve" smooth="yes"/>
      <point x="372" y="908" smooth="yes"/>
      <point x="389" y="930" smooth="yes"/>
      <point x="426" y="930" type="curve" smooth="yes"/>
      <point x="463" y="930" smooth="yes"/>
      <point x="480" y="908" smooth="yes"/>
      <point x="480" y="877" type="curve" smooth="yes"/>
      <point x="480" y="847" smooth="yes"/>
      <point x="463" y="825" smooth="yes"/>
    </contour>
  </outline>
</glyph>
<glyph name="AE" format="1">
  <advance width="967"/>
  <unicode hex="00C6"/>
  <outline>
    <contour>
      <point x="104" y="0" type="line" name="hr00"/>
      <point x="139" y="0" type="line" smooth="yes"/>
      <point x="169" y="0" smooth="yes"/>
      <point x="194" y="10" smooth="yes"/>
      <point x="194" y="60" type="curve" smooth="yes"/>
      <point x="194" y="152"/>
      <point x="204" y="231"/>
      <point x="222" y="299" type="curve"/>
      <point x="507" y="299" type="line"/>
      <point x="519" y="153" smooth="yes"/>
      <point x="601" y="0" smooth="yes"/>
      <point x="856" y="0" type="curve" smooth="yes"/>
      <point x="1087" y="0" type="line" smooth="yes"/>
      <point x="1122" y="0"/>
      <point x="1157" y="12"/>
      <point x="1157" y="70" type="curve"/>
      <point x="860" y="70" type="line" smooth="yes"/>
      <point x="658" y="70"/>
      <point x="606" y="206"/>
      <point x="597" y="299" type="curve"/>
      <point x="790" y="299" type="line" smooth="yes"/>
      <point x="825" y="299"/>
      <point x="860" y="316"/>
      <point x="860" y="374" type="curve"/>
      <point x="596" y="374" type="line"/>
      <point x="603" y="493" smooth="yes"/>
      <point x="651" y="630" smooth="yes"/>
      <point x="860" y="630" type="curve" smooth="yes"/>
      <point x="942" y="630" type="line"/>
      <point x="942" y="656" type="line" smooth="yes"/>
      <point x="942" y="683" smooth="yes"/>
      <point x="933" y="710" smooth="yes"/>
      <point x="888" y="710" type="curve" smooth="yes"/>
      <point x="866" y="710" type="line" smooth="yes"/>
      <point x="785" y="710"/>
      <point x="720" y="694"/>
      <point x="669" y="667" type="curve"/>
      <point x="667" y="690" smooth="yes"/>
      <point x="654" y="710" smooth="yes"/>
      <point x="616" y="710" type="curve" smooth="yes"/>
      <point x="395" y="710" smooth="yes"/>
      <point x="104" y="580" smooth="yes"/>
      <point x="104" y="60" type="curve" smooth="yes"/>
    </contour>
    <contour>
      <point x="507" y="374" type="curve"/>
      <point x="248" y="374" type="line"/>
      <point x="322" y="553"/>
      <point x="464" y="630"/>
      <point x="615" y="630" type="curve"/>
      <point x="544" y="567"/>
      <point x="513" y="474"/>
    </contour>
  </outline>
</glyph>
<glyph name="Eacute" format="1">
  <advance width="693"/>
  <unicode hex="00C9"/>
  <outline>
    <contour>
      <point x="233" y="70" type="line"/>
      <point x="233" y="131"/>
      <point x="270" y="238"/>
      <point x="388" y="299" type="curve"/>
      <point x="590" y="299" type="line"/>
      <point x="590" y="379" smooth="yes"/>
      <point x="539" y="403" smooth="yes"/>
      <point x="494" y="403" type="curve" smooth="yes"/>
      <point x="444" y="403"/>
      <point x="399" y="392"/>
      <point x="360" y="374" type="curve"/>
      <point x="253" y="374" type="line" name="hr01"/>
      <point x="253" y="462" smooth="yes"/>
      <point x="371" y="640" smooth="yes"/>
      <point x="650" y="640" type="curve" smooth="yes"/>
      <point x="704" y="640" type="line"/>
      <point x="704" y="666" type="line" smooth="yes"/>
      <point x="704" y="693" smooth="yes"/>
      <point x="695" y="720" smooth="yes"/>
      <point x="650" y="720" type="curve" smooth="yes"/>
      <point x="379" y="720" smooth="yes"/>
      <point x="173" y="525" smooth="yes"/>
      <point x="173" y="379" type="curve" smooth="yes"/>
      <point x="173" y="312"/>
      <point x="209" y="300"/>
      <point x="256" y="299" type="curve"/>
      <point x="188" y="229" smooth="yes"/>
      <point x="153" y="140" smooth="yes"/>
      <point x="153" y="80" type="curve" smooth="yes" name="hr02"/>
      <point x="153" y="10" smooth="yes"/>
      <point x="193" y="0" smooth="yes"/>
      <point x="243" y="0" type="curve" smooth="yes"/>
      <point x="813" y="0" type="line" smooth="yes"/>
      <point x="848" y="0"/>
      <point x="883" y="12"/>
      <point x="883" y="70" type="curve"/>
    </contour>
    <contour>
      <point x="378" y="770" type="line"/>
      <point x="469" y="787" smooth="yes"/>
      <point x="602" y="819" smooth="yes"/>
      <point x="602" y="865" type="curve" smooth="yes"/>
      <point x="602" y="878" smooth="yes"/>
      <point x="595" y="896" smooth="yes"/>
      <point x="578" y="922" type="curve" smooth="yes"/>
      <point x="565" y="942" type="line"/>
      <point x="355" y="811" type="line"/>
    </contour>
  </outline>
</glyph>
<glyph name="Ntilde" format="1">
  <advance width="807"/>
  <unicode hex="00D1"/>
  <outline>
    <contour>
      <point x="250" y="0" type="line"/>
      <point x="250" y="63" type="line" smooth="yes"/>
      <point x="250" y="342"/>
      <point x="492" y="640"/>
      <point x="587" y="640" type="curve"/>
      <point x="587" y="60" type="line" smooth="yes"/>
      <point x="587" y="10" smooth="yes"/>
      <point x="617" y="0" smooth="yes"/>
      <point x="647" y="0" type="curve" smooth="yes"/>
      <point x="927" y="0" type="line" smooth="yes"/>
      <point x="962" y="0"/>
      <point x="997" y="12"/>
      <point x="997" y="70" type="curve"/>
      <point x="677" y="70" type="line"/>
      <point x="677" y="630" type="line" smooth="yes"/>
      <point x="677" y="680" smooth="yes"/>
      <point x="657" y="720" smooth="yes"/>
      <point x="587" y="720" type="curve" smooth="yes"/>
      <point x="478" y="720"/>
      <point x="335" y="554"/>
      <point x="250" y="363" type="curve"/>
      <point x="250" y="690" type="line" smooth="yes" name="hr01"/>
      <point x="250" y="701" smooth="yes"/>
      <point x="241" y="710" smooth="yes"/>
      <point x="230" y="710" type="curve" smooth="yes"/>
      <point x="180" y="710" type="line" smooth="yes"/>
      <point x="169" y="710" smooth="yes"/>
      <point x="160" y="701" smooth="yes"/>
      <point x="160" y="690" type="curve" smooth="yes"/>
      <point x="160" y="191" type="line"/>
      <point x="147" y="160" smooth="yes"/>
      <point x="139" y="127" smooth="yes"/>
      <point x="139" y="91" type="curve" smooth="yes"/>
      <point x="139" y="28" smooth="yes"/>
      <point x="165" y="0" smooth="yes"/>
      <point x="220" y="0" type="curve" smooth="yes"/>
    </contour>
    <contour>
      <point x="302" y="910" type="line"/>
      <point x="283" y="889" smooth="yes"/>
      <point x="281" y="872" smooth="yes"/>
      <point x="281" y="859" type="curve" smooth="yes"/>
      <point x="281" y="815" smooth="yes"/>
      <point x="319" y="783" smooth="yes"/>
      <point x="369" y="783" type="curve" smooth="yes"/>
      <point x="388" y="783" smooth="yes"/>
      <point x="409" y="787" smooth="yes"/>
      <point x="431" y="797" type="curve" smooth="yes"/>
      <point x="465" y="812" type="line" smooth="yes"/>
      <point x="493" y="824" smooth="yes"/>
      <point x="512" y="830" smooth="yes"/>
      <point x="525" y="830" type="curve" smooth="yes" name="hr02"/>
      <point x="544" y="830" smooth="yes"/>
      <point x="555" y="822" smooth="yes"/>
      <point x="567" y="811" type="curve" smooth="yes"/>
      <point x="593" y="786" type="line"/>
      <point x="612" y="807" smooth="yes"/>
      <point x="614" y="824" smooth="yes"/>
      <point x="614" y="837" type="curve" smooth="yes"/>
      <point x="614" y="881" smooth="yes"/>
      <point x="576" y="913" smooth="yes"/>
      <point x="526" y="913" type="curve" smooth="yes"/>
      <point x="507" y="913" smooth="yes"/>
      <point x="486" y="909" smooth="yes"/>
      <point x="464" y="899" type="curve" smooth="yes"/>
      <point x="430" y="884" type="line" smooth="yes"/>
      <point x="402" y="872" smooth="yes"/>
      <point x="383" y="866" smooth="yes"/>
      <point x="370" y="866" type="curve" smooth="yes" name="hr03"/>
      <point x="351" y="866" smooth="yes"/>
      <point x="340" y="874" smooth="yes"/>
      <point x="328" y="885" type="curve" smooth="yes"/>
    </contour>
  </outline>
</glyph>
<glyph name="Otilde" format="1">
  <advance width="761"/>
  <unicode hex="00D5"/>
  <outline>
    <contour>
      <point x="670" y="636" type="line" smooth="yes"/>
      <point x="670" y="682" smooth="yes"/>
      <point x="657" y="720" smooth="yes"/>
      <point x="591" y="720" type="curve" smooth="yes"/>
      <point x="267" y="720" smooth="yes"/>
      <point x="115" y="589" smooth="yes"/>
      <point x="115" y="282" type="curve" smooth="yes"/>
      <point x="115" y="84" type="line" smooth="yes"/>
      <point x="115" y="38" smooth="yes"/>
      <point x="128" y="0" smooth="yes"/>
      <point x="194" y="0" type="curve" smooth="yes"/>
      <point x="881" y="0" type="line" smooth="yes"/>
      <point x="916" y="0"/>
      <point x="951" y="12"/>
      <point x="951" y="70" type="curve"/>
      <point x="495" y="70" type="line"/>
      <point x="613" y="133" smooth="yes"/>
      <point x="670" y="249" smooth="yes"/>
      <point x="670" y="437" type="curve" smooth="yes"/>
    </contour>
    <contour>
      <point x="205" y="282" type="line" smooth="yes"/>
      <point x="205" y="538"/>
      <point x="313" y="640"/>
      <point x="580" y="640" type="curve"/>
      <point x="580" y="437" type="line" smooth="yes"/>
      <point x="580" y="181"/>
      <point x="472" y="70"/>
      <point x="205" y="70" type="curve"/>
    </contour>
    <contour>
      <point x="275" y="910" type="line"/>
      <point x="256" y="889" smooth="yes"/>
      <point x="254" y="872" smooth="yes"/>
      <point x="254" y="859" type="curve" smooth="yes"/>
      <point x="254" y="815" smooth="yes"/>
      <point x="292" y="783" smooth="yes"/>
      <point x="342" y="783" type="curve" smooth="yes"/>
      <point x="361" y="783" smooth="yes"/>
      <point x="382" y="787" smooth="yes"/>
      <point x="404" y="797" type="curve" smooth="yes"/>
      <point x="438" y="812" type="line" smooth="yes"/>
      <point x="466" y="824" smooth="yes"/>
      <point x="485" y="830" smooth="yes"/>
      <point x="498" y="830" type="curve" smooth="yes" name="hr01"/>
      <point x="517" y="830" smooth="yes"/>
      <point x="528" y="822" smooth="yes"/>
      <point x="540" y="811" type="curve" smooth="yes"/>
      <point x="566" y="786" type="line"/>
      <point x="585" y="807" smooth="yes"/>
      <point x="587" y="824" smooth="yes"/>
      <point x="587" y="837" type="curve" smooth="yes"/>
      <point x="587" y="881" smooth="yes"/>
      <point x="549" y="913" smooth="yes"/>
      <point x="499" y="913" type="curve" smooth="yes"/>
      <point x="480" y="913" smooth="yes"/>
      <point x="459" y="909" smooth="yes"/>
      <point x="437" y="899" type="curve" smooth="yes"/>
      <point x="403" y="884" type="line" smooth="yes"/>
      <point x="375" y="872" smooth="yes"/>
      <point x="356" y="866" smooth="yes"/>
      <point x="343" y="866" type="curve" smooth="yes" name="hr02"/>
      <point x="324" y="866" smooth="yes"/>
      <point x="313" y="874" smooth="yes"/>
      <point x="301" y="885" type="curve" smooth="yes"/>
    </contour>
  </outline>
</glyph>
<glyph name="Oslash" format="1">
  <advance width="761"/>
  <unicode hex="00D8"/>
  <outline>
    <contour>
      <point x="547" y="810" type="line" name="hr00"/>
      <point x="538" y="810" type="line" smooth="yes"/>
      <point x="495" y="810" smooth="yes"/>
      <point x="476" y="805" smooth="yes"/>
      <point x="461" y="750" type="curve" smooth="yes"/>
      <point x="450" y="710" type="line"/>
      <point x="223" y="674" smooth="yes"/>
      <point x="115" y="540" smooth="yes"/>
      <point x="115" y="282" type="curve" smooth="yes"/>
      <point x="115" y="84" type="line" smooth="yes"/>
      <point x="115" y="38" smooth="yes"/>
      <point x="128" y="0" smooth="yes"/>
      <point x="194" y="0" type="curve" smooth="yes"/>
      <point x="260" y="0" type="line"/>
      <point x="234" y="-100" type="line"/>
      <point x="243" y="-100" type="line" smooth="yes"/>
      <point x="292" y="-100" smooth="yes"/>
      <point x="307" y="-89" smooth="yes"/>
      <point x="320" y="-40" type="curve" smooth="yes"/>
      <point x="330" y="0" type="line"/>
      <point x="881" y="0" type="line" smooth="yes"/>
      <point x="916" y="0"/>
      <point x="951" y="12"/>
      <point x="951" y="70" type="curve"/>
      <point x="495" y="70" type="line"/>
      <point x="613" y="133" smooth="yes"/>
      <point x="670" y="249" smooth="yes"/>
      <point x="670" y="437" type="curve" smooth="yes"/>
      <point x="670" y="636" type="line" smooth="yes"/>
      <point x="670" y="682" smooth="yes"/>
      <point x="657" y="720" smooth="yes"/>
      <point x="591" y="720" type="curve" smooth="yes"/>
      <point x="567" y="720"/>
      <point x="544" y="719"/>
      <point x="522" y="718" type="curve"/>
    </contour>
    <contour>
      <point x="580" y="640" type="curve"/>
      <point x="580" y="437" type="line" smooth="yes"/>
      <point x="580" y="235"/>
      <point x="512" y="123"/>
      <point x="353" y="85" type="curve"/>
      <point x="500" y="636" type="line"/>
      <point x="525" y="639"/>
      <point x="552" y="640"/>
    </contour>
    <contour>
      <point x="205" y="282" type="line" smooth="yes"/>
      <point x="205" y="482"/>
      <point x="271" y="588"/>
      <point x="427" y="625" type="curve"/>
      <point x="280" y="73" type="line"/>
      <point x="256" y="71"/>
      <point x="231" y="70"/>
      <point x="205" y="70" type="curve"/>
    </contour>
  </outline>
</glyph>
<glyph name="Thorn" format="1">
  <advance width="617"/>
  <unicode hex="00DE"/>
  <outline>
    <contour>
      <point x="170" y="120" type="line" name="hr00"/>
      <point x="170" y="60" type="line" smooth="yes"/>
      <point x="170" y="10" smooth="yes"/>
      <point x="201" y="0" smooth="yes"/>
      <point x="231" y="0" type="curve" smooth="yes"/>
      <point x="737" y="0" type="line" smooth="yes"/>
      <point x="772" y="0"/>
      <point x="807" y="12"/>
      <point x="807" y="70" type="curve"/>
      <point x="260" y="70" type="line"/>
      <point x="260" y="132" type="line"/>
      <point x="429" y="173" smooth="yes"/>
      <point x="601" y="309" smooth="yes"/>
      <point x="601" y="452" type="curve" smooth="yes"/>
      <point x="601" y="505" smooth="yes"/>
      <point x="573" y="630" smooth="yes"/>
      <point x="349" y="630" type="curve" smooth="yes"/>
      <point x="260" y="630" type="line"/>
      <point x="260" y="690" type="line" smooth="yes"/>
      <point x="260" y="701" smooth="yes"/>
      <point x="250" y="710" smooth="yes"/>
      <point x="239" y="710" type="curve" smooth="yes"/>
      <point x="190" y="710" type="line" smooth="yes"/>
      <point x="179" y="710" smooth="yes"/>
      <point x="170" y="701" smooth="yes"/>
      <point x="170" y="690" type="curve" smooth="yes"/>
      <point x="170" y="202" type="line"/>
      <point x="152" y="200"/>
      <point x="134" y="200"/>
      <point x="116" y="200" type="curve"/>
      <point x="116" y="180" type="line" smooth="yes"/>
      <point x="116" y="130" smooth="yes"/>
      <point x="138" y="120" smooth="yes"/>
      <point x="161" y="120" type="curve" smooth="yes"/>
    </contour>
    <contour>
      <point x="349" y="550" type="line" smooth="yes"/>
      <point x="471" y="550" smooth="yes"/>
      <point x="511" y="509" smooth="yes"/>
      <point x="511" y="452" type="curve" smooth="yes"/>
      <point x="511" y="376"/>
      <point x="435" y="258"/>
      <point x="260" y="216" type="curve"/>
      <point x="260" y="550" type="line"/>
    </contour>
  </outline>
</glyph>
<glyph name="germandbls" format="1">
  <advance width="837"/>
  <unicode hex="00DF"/>
  <outline>
    <contour>
      <point x="666" y="630" type="curve" smooth="yes" name="hr00"/>
      <point x="696" y="630" smooth="yes"/>
      <point x="726" y="640" smooth="yes"/>
      <point x="726" y="690" type="curve" smooth="yes"/>
      <point x="726" y="710" type="line"/>
      <point x="457" y="710" type="line" smooth="yes"/>
      <point x="268" y="710" smooth="yes"/>
      <point x="190" y="641" smooth="yes"/>
      <point x="190" y="370" type="curve" smooth="yes"/>
      <point x="190" y="30" type="line" smooth="yes"/>
      <point x="190" y="-206" smooth="yes"/>
      <point x="138" y="-230" smooth="yes"/>
      <point x="13" y="-230" type="curve" smooth="yes"/>
      <point x="-43" y="-230" type="line"/>
      <point x="-43" y="-241" type="line" smooth="yes"/>
      <point x="-43" y="-290" smooth="yes"/>
      <point x="-29" y="-310" smooth="yes"/>
      <point x="13" y="-310" type="curve" smooth="yes"/>
      <point x="195" y="-310"/>
      <point x="273" y="-246"/>
      <point x="279" y="0" type="curve"/>
      <point x="957" y="0" type="line" smooth="yes"/>
      <point x="992" y="0"/>
      <point x="1027" y="12"/>
      <point x="1027" y="70" type="curve"/>
      <point x="618" y="70" type="line"/>
      <point x="717" y="126" smooth="yes"/>
      <point x="755" y="211" smooth="yes"/>
      <point x="755" y="294" type="curve" smooth="yes"/>
      <point x="755" y="364" smooth="yes"/>
      <point x="715" y="374" smooth="yes"/>
      <point x="665" y="374" type="curve" smooth="yes"/>
      <point x="520" y="374" type="line"/>
      <point x="520" y="545" smooth="yes"/>
      <point x="543" y="630" smooth="yes"/>
    </contour>
    <contour>
      <point x="280" y="370" type="line" smooth="yes"/>
      <point x="280" y="606" smooth="yes"/>
      <point x="332" y="630" smooth="yes"/>
      <point x="457" y="630" type="curve" smooth="yes"/>
      <point x="496" y="630" type="line"/>
      <point x="445" y="569" smooth="yes"/>
      <point x="430" y="464" smooth="yes"/>
      <point x="430" y="384" type="curve" smooth="yes"/>
      <point x="430" y="314" smooth="yes"/>
      <point x="470" y="299" smooth="yes"/>
      <point x="520" y="299" type="curve" smooth="yes"/>
      <point x="665" y="299" type="line"/>
      <point x="665" y="211"/>
      <point x="616" y="70"/>
      <point x="280" y="70" type="curve"/>
    </contour>
  </outline>
</glyph>
<glyph name="atilde" format="1">
  <advance width="777"/>
  <unicode hex="00E3"/>
  <outline>
    <contour>
      <point x="280" y="331" type="line" smooth="yes"/>
      <point x="280" y="446" smooth="yes"/>
      <point x="322" y="470" smooth="yes"/>
      <point x="417" y="470" type="curve" smooth="yes"/>
      <point x="506" y="470" type="line"/>
      <point x="506" y="480" type="line" smooth="yes"/>
      <point x="506" y="530" smooth="yes"/>
      <point x="474" y="550" smooth="yes"/>
      <point x="417" y="550" type="curve" smooth="yes"/>
      <point x="251" y="550" smooth="yes"/>
      <point x="190" y="481" smooth="yes"/>
      <point x="190" y="331" type="curve" smooth="yes"/>
      <point x="190" y="85" type="line" smooth="yes"/>
      <point x="190" y="35" smooth="yes"/>
      <point x="210" y="-5" smooth="yes"/>
      <point x="280" y="-5" type="curve" smooth="yes"/>
      <point x="375" y="-5"/>
      <point x="485" y="74"/>
      <point x="556" y="198" type="curve"/>
      <point x="556" y="60" type="line" smooth="yes"/>
      <point x="556" y="10" smooth="yes"/>
      <point x="587" y="0" smooth="yes"/>
      <point x="617" y="0" type="curve" smooth="yes" name="hr01"/>
      <point x="897" y="0" type="line" smooth="yes"/>
      <point x="932" y="0"/>
      <point x="967" y="12"/>
      <point x="967" y="70" type="curve" name="hr02"/>
      <point x="646" y="70" type="line"/>
      <point x="646" y="349" type="line"/>
      <point x="658" y="379" smooth="yes"/>
      <point x="667" y="413" smooth="yes"/>
      <point x="667" y="449" type="curve" smooth="yes"/>
      <point x="667" y="509" smooth="yes"/>
      <point x="643" y="540" smooth="yes"/>
      <point x="592" y="540" type="curve" smooth="yes"/>
      <point x="556" y="540" type="line"/>
      <point x="556" y="477" type="line" smooth="yes"/>
      <point x="556" y="198"/>
      <point x="375" y="75"/>
      <point x="280" y="75" type="curve"/>
    </contour>
    <contour>
      <point x="304" y="760" type="line"/>
      <point x="285" y="739" smooth="yes"/>
      <point x="283" y="722" smooth="yes"/>
      <point x="283" y="709" type="curve" smooth="yes"/>
      <point x="283" y="665" smooth="yes"/>
      <point x="321" y="633" smooth="yes"/>
      <point x="371" y="633" type="curve" smooth="yes"/>
      <point x="390" y="633" smooth="yes"/>
      <point x="411" y="637" smooth="yes"/>
      <point x="433" y="647" type="curve" smooth="yes"/>
      <point x="467" y="662" type="line" smooth="yes"/>
      <point x="495" y="674" smooth="yes"/>
      <point x="514" y="680" smooth="yes"/>
      <point x="527" y="680" type="curve" smooth="yes" name="hr03"/>
      <point x="546" y="680" smooth="yes"/>
      <point x="557" y="672" smooth="yes"/>
      <point x="569" y="661" type="curve" smooth="yes"/>
      <point x="595" y="636" type="line"/>
      <point x="614" y="657" smooth="yes"/>
      <point x="616" y="674" smooth="yes"/>
      <point x="616" y="687" type="curve" smooth="yes"/>
      <point x="616" y="731" smooth="yes"/>
      <point x="578" y="763" smooth="yes"/>
      <point x="528" y="763" type="curve" smooth="yes"/>
      <point x="509" y="763" smooth="yes"/>
      <point x="488" y="759" smooth="yes"/>
      <point x="466" y="749" type="curve" smooth="yes"/>
      <point x="432" y="734" type="line" smooth="yes"/>
      <point x="404" y="722" smooth="yes"/>
      <point x="385" y="716" smooth="yes"/>
      <point x="372" y="716" type="curve" smooth="yes" name="hr04"/>
      <point x="353" y="716" smooth="yes"/>
      <point x="342" y="724" smooth="yes"/>
      <point x="330" y="735" type="curve" smooth="yes"/>
    </contour>
  </outline>
</glyph>
<glyph name="ae" format="1">
  <advance width="1045"/>
  <unicode hex="00E6"/>
  <outline>
    <contour>
      <point x="708" y="272" type="line"/>
      <point x="708" y="251" type="line" smooth="yes"/>
      <point x="708" y="210" smooth="yes"/>
      <point x="722" y="199" smooth="yes"/>
      <point x="758" y="199" type="curve" smooth="yes"/>
      <point x="939" y="199" smooth="yes"/>
      <point x="1014" y="255" smooth="yes"/>
      <point x="1014" y="461" type="curve" smooth="yes"/>
      <point x="1014" y="510" smooth="yes"/>
      <point x="994" y="550" smooth="yes"/>
      <point x="924" y="550" type="curve" smooth="yes"/>
      <point x="785" y="550"/>
      <point x="698" y="536"/>
      <point x="643" y="502" type="curve"/>
      <point x="635" y="533" smooth="yes"/>
      <point x="610" y="540" smooth="yes"/>
      <point x="585" y="540" type="curve" smooth="yes" name="hr01"/>
      <point x="556" y="540" type="line"/>
      <point x="556" y="477" type="line" smooth="yes"/>
      <point x="556" y="198"/>
      <point x="375" y="75"/>
      <point x="280" y="75" type="curve"/>
      <point x="280" y="331" type="line" smooth="yes"/>
      <point x="280" y="446" smooth="yes"/>
      <point x="322" y="470" smooth="yes"/>
      <point x="417" y="470" type="curve" smooth="yes" name="hr02"/>
      <point x="506" y="470" type="line"/>
      <point x="506" y="480" type="line" smooth="yes"/>
      <point x="506" y="530" smooth="yes"/>
      <point x="474" y="550" smooth="yes"/>
      <point x="417" y="550" type="curve" smooth="yes"/>
      <point x="251" y="550" smooth="yes"/>
      <point x="190" y="481" smooth="yes"/>
      <point x="190" y="331" type="curve" smooth="yes"/>
      <point x="190" y="85" type="line" smooth="yes"/>
      <point x="190" y="35" smooth="yes"/>
      <point x="210" y="-5" smooth="yes"/>
      <point x="280" y="-5" type="curve" smooth="yes"/>
      <point x="375" y="-5"/>
      <point x="485" y="74"/>
      <point x="556" y="198" type="curve"/>
      <point x="556" y="38" smooth="yes"/>
      <point x="571" y="0" smooth="yes"/>
      <point x="789" y="0" type="curve" smooth="yes" name="hr03"/>
      <point x="1165" y="0" type="line" smooth="yes"/>
      <point x="1200" y="0"/>
      <point x="1235" y="12"/>
      <point x="1235" y="70" type="curve" name="hr04"/>
      <point x="789" y="70" type="line" smooth="yes"/>
      <point x="655" y="70" smooth="yes"/>
      <point x="647" y="82" smooth="yes"/>
      <point x="647" y="200" type="curve" smooth="yes"/>
      <point x="647" y="240" type="line" smooth="yes"/>
      <point x="647" y="445"/>
      <point x="681" y="470"/>
      <point x="924" y="470" type="curve"/>
      <point x="924" y="295" smooth="yes"/>
      <point x="885" y="279" smooth="yes"/>
      <point x="787" y="275" type="curve" smooth="yes"/>
    </contour>
  </outline>
</glyph>
<glyph name="igrave" format="1">
  <advance width="411"/>
  <unicode hex="00EC"/>
  <outline>
    <contour>
      <point x="280" y="70" type="line" name="hr00"/>
      <point x="280" y="520" type="line" smooth="yes"/>
      <point x="279" y="531" smooth="yes"/>
      <point x="270" y="540" smooth="yes"/>
      <point x="259" y="540" type="curve" smooth="yes"/>
      <point x="210" y="540" type="line" smooth="yes"/>
      <point x="199" y="540" smooth="yes"/>
      <point x="190" y="531" smooth="yes"/>
      <point x="190" y="520" type="curve" smooth="yes"/>
      <point x="190" y="60" type="line" smooth="yes"/>
      <point x="190" y="10" smooth="yes"/>
      <point x="221" y="0" smooth="yes"/>
      <point x="251" y="0" type="curve" smooth="yes"/>
      <point x="531" y="0" type="line" smooth="yes"/>
      <point x="566" y="0"/>
      <point x="601" y="12"/>
      <point x="601" y="70" type="curve"/>
    </contour>
    <contour>
      <point x="359" y="661" type="line"/>
      <point x="150" y="792" type="line"/>
      <point x="137" y="772" type="line" smooth="yes"/>
      <point x="120" y="746" smooth="yes"/>
      <point x="112" y="728" smooth="yes"/>
      <point x="112" y="715" type="curve" smooth="yes"/>
      <point x="112" y="669"/>
      <point x="245" y="637"/>
      <point x="337" y="620" type="curve"/>
    </contour>
  </outline>
</glyph>
<glyph name="iacute" format="1">
  <advance width="411"/>
  <unicode hex="00ED"/>
  <outline>
    <contour>
      <point x="280" y="70" type="line" name="hr00"/>
      <point x="280" y="520" type="line" smooth="yes"/>
      <point x="279" y="531" smooth="yes"/>
      <point x="270" y="540" smooth="yes"/>
      <point x="259" y="540" type="curve" smooth="yes"/>
      <point x="210" y="540" type="line" smooth="yes"/>
      <point x="199" y="540" smooth="yes"/>
      <point x="190" y="531" smooth="yes"/>
      <point x="190" y="520" type="curve" smooth="yes"/>
      <point x="190" y="60" type="line" smooth="yes"/>
      <point x="190" y="10" smooth="yes"/>
      <point x="221" y="0" smooth="yes"/>
      <point x="251" y="0" type="curve" smooth="yes"/>
      <point x="531" y="0" type="line" smooth="yes"/>
      <point x="566" y="0"/>
      <point x="601" y="12"/>
      <point x="601" y="70" type="curve"/>
    </contour>
    <contour>
      <point x="165" y="620" type="line"/>
      <point x="256" y="637" smooth="yes"/>
      <point x="389" y="669" smooth="yes"/>
      <point x="389" y="715" type="curve" smooth="yes"/>
      <point x="389" y="728" smooth="yes"/>
      <point x="382" y="746" smooth="yes"/>
      <point x="365" y="772" type="curve" smooth="yes"/>
      <point x="352" y="792" type="line"/>
      <point x="142" y="661" type="line"/>
    </contour>
  </outline>
</glyph>
<glyph name="icircumflex" format="1">
  <advance width="411"/>
  <unicode hex="00EE"/>
  <outline>
    <contour>
      <point x="280" y="70" type="line" name="hr00"/>
      <point x="280" y="520" type="line" smooth="yes"/>
      <point x="279" y="531" smooth="yes"/>
      <point x="270" y="540" smooth="yes"/>
      <point x="259" y="540" type="curve" smooth="yes"/>
      <point x="210" y="540" type="line" smooth="yes"/>
      <point x="199" y="540" smooth="yes"/>
      <point x="190" y="531" smooth="yes"/>
      <point x="190" y="520" type="curve" smooth="yes"/>
      <point x="190" y="60" type="line" smooth="yes"/>
      <point x="190" y="10" smooth="yes"/>
      <point x="221" y="0" smooth="yes"/>
      <point x="251" y="0" type="curve" smooth="yes"/>
      <point x="531" y="0" type="line" smooth="yes"/>
      <point x="566" y="0"/>
      <point x="601" y="12"/>
      <point x="601" y="70" type="curve"/>
    </contour>
    <contour>
      <point x="399" y="661" type="line"/>
      <point x="254" y="792" type="line"/>
      <point x="214" y="792" type="line"/>
      <point x="69" y="661" type="line"/>
      <point x="93" y="621" type="line"/>
      <point x="154" y="634"/>
      <point x="210" y="667"/>
      <point x="234" y="695" type="curve"/>
      <point x="255" y="670"/>
      <point x="317" y="633"/>
      <point x="375" y="621" type="curve"/>
    </contour>
  </outline>
</glyph>
<glyph name="eth" format="1">
  <advance width="739"/>
  <unicode hex="00F0"/>
  <outline>
    <contour>
      <point x="373" y="608" type="line" name="hr00"/>
      <point x="391" y="572" smooth="yes"/>
      <point x="404" y="560" smooth="yes"/>
      <point x="421" y="560" type="curve" smooth="yes"/>
      <point x="430" y="560" smooth="yes"/>
      <point x="441" y="564" smooth="yes"/>
      <point x="453" y="570" type="curve" smooth="yes"/>
      <point x="511" y="599" type="line"/>
      <point x="555" y="544" smooth="yes"/>
      <point x="568" y="468" smooth="yes"/>
      <point x="568" y="350" type="curve" smooth="yes"/>
      <point x="568" y="142" smooth="yes"/>
      <point x="483" y="73" smooth="yes"/>
      <point x="294" y="70" type="curve" smooth="yes"/>
      <point x="280" y="70" type="line"/>
      <point x="280" y="281" type="line" smooth="yes"/>
      <point x="280" y="396" smooth="yes"/>
      <point x="322" y="420" smooth="yes"/>
      <point x="417" y="420" type="curve" smooth="yes"/>
      <point x="476" y="420" type="line"/>
      <point x="476" y="430" type="line" smooth="yes"/>
      <point x="476" y="480" smooth="yes"/>
      <point x="454" y="500" smooth="yes"/>
      <point x="417" y="500" type="curve" smooth="yes"/>
      <point x="251" y="500" smooth="yes"/>
      <point x="190" y="431" smooth="yes"/>
      <point x="190" y="281" type="curve" smooth="yes"/>
      <point x="190" y="90" type="line" smooth="yes"/>
      <point x="190" y="40" smooth="yes"/>
      <point x="205" y="0" smooth="yes"/>
      <point x="280" y="0" type="curve" smooth="yes"/>
      <point x="859" y="0" type="line" smooth="yes"/>
      <point x="894" y="0"/>
      <point x="929" y="12"/>
      <point x="929" y="70" type="curve"/>
      <point x="533" y="70" type="line"/>
      <point x="614" y="125" smooth="yes"/>
      <point x="658" y="219" smooth="yes"/>
      <point x="658" y="350" type="curve" smooth="yes"/>
      <point x="658" y="482"/>
      <point x="637" y="574"/>
      <point x="591" y="640" type="curve"/>
      <point x="689" y="690" type="line"/>
      <point x="671" y="726" smooth="yes"/>
      <point x="657" y="738" smooth="yes"/>
      <point x="640" y="738" type="curve" smooth="yes"/>
      <point x="631" y="738" smooth="yes"/>
      <point x="621" y="734" smooth="yes"/>
      <point x="609" y="728" type="curve" smooth="yes"/>
      <point x="543" y="694" type="line"/>
      <point x="508" y="725" smooth="yes"/>
      <point x="463" y="749" smooth="yes"/>
      <point x="409" y="769" type="curve" smooth="yes"/>
      <point x="382" y="779" smooth="yes"/>
      <point x="370" y="780" smooth="yes"/>
      <point x="362" y="780" type="curve" smooth="yes"/>
      <point x="333" y="780" smooth="yes"/>
      <point x="318" y="757" smooth="yes"/>
      <point x="307" y="727" type="curve" smooth="yes"/>
      <point x="304" y="719" type="line"/>
      <point x="361" y="697" type="line" smooth="yes"/>
      <point x="399" y="682"/>
      <point x="430" y="667"/>
      <point x="456" y="650" type="curve"/>
    </contour>
  </outline>
</glyph>
<glyph name="ocircumflex" format="1">
  <advance width="739"/>
  <unicode hex="00F4"/>
  <outline>
    <contour>
      <point x="496" y="532" type="curve" smooth="yes"/>
      <point x="496" y="492"/>
      <point x="520" y="460"/>
      <point x="568" y="460" type="curve"/>
      <point x="568" y="360" type="line" smooth="yes"/>
      <point x="568" y="147"/>
      <point x="479" y="80"/>
      <point x="280" y="80" type="curve"/>
      <point x="280" y="331" type="line" smooth="yes"/>
      <point x="280" y="446" smooth="yes"/>
      <point x="322" y="470" smooth="yes"/>
      <point x="417" y="470" type="curve" smooth="yes"/>
      <point x="476" y="470" type="line"/>
      <point x="476" y="480" type="line" smooth="yes"/>
      <point x="476" y="530" smooth="yes"/>
      <point x="454" y="550" smooth="yes"/>
      <point x="417" y="550" type="curve" smooth="yes"/>
      <point x="251" y="550" smooth="yes"/>
      <point x="190" y="481" smooth="yes"/>
      <point x="190" y="331" type="curve" smooth="yes"/>
      <point x="190" y="90" type="line" smooth="yes"/>
      <point x="190" y="40" smooth="yes"/>
      <point x="205" y="0" smooth="yes"/>
      <point x="280" y="0" type="curve" smooth="yes"/>
      <point x="536" y="0" smooth="yes"/>
      <point x="658" y="119" smooth="yes"/>
      <point x="658" y="360" type="curve" smooth="yes"/>
      <point x="658" y="460" type="line"/>
      <point x="929" y="460" type="line" smooth="yes"/>
      <point x="964" y="460"/>
      <point x="999" y="482"/>
      <point x="999" y="540" type="curve" name="hr01"/>
      <point x="641" y="540" type="line"/>
      <point x="638" y="576" smooth="yes"/>
      <point x="613" y="605" smooth="yes"/>
      <point x="568" y="605" type="curve" smooth="yes"/>
      <point x="520" y="605" smooth="yes"/>
      <point x="496" y="572" smooth="yes"/>
    </contour>
    <contour>
      <point x="594" y="661" type="line"/>
      <point x="449" y="792" type="line"/>
      <point x="409" y="792" type="line"/>
      <point x="264" y="661" type="line"/>
      <point x="288" y="621" type="line"/>
      <point x="349" y="634"/>
      <point x="405" y="667"/>
      <point x="429" y="695" type="curve"/>
      <point x="450" y="670"/>
      <point x="512" y="633"/>
      <point x="570" y="621" type="curve"/>
    </contour>
  </outline>
</glyph>
<glyph name="divide" format="1">
  <advance width="460"/>
  <unicode hex="00F7"/>
  <outline>
    <contour>
      <point x="250" y="504" type="curve" smooth="yes" name="hr00"/>
      <point x="250" y="470" smooth="yes"/>
      <point x="261" y="444" smooth="yes"/>
      <point x="310" y="444" type="curve" smooth="yes"/>
      <point x="357" y="444" smooth="yes"/>
      <point x="371" y="470" smooth="yes"/>
      <point x="371" y="504" type="curve" smooth="yes"/>
      <point x="371" y="537" smooth="yes"/>
      <point x="357" y="565" smooth="yes"/>
      <point x="310" y="565" type="curve" smooth="yes"/>
      <point x="261" y="565" smooth="yes"/>
      <point x="250" y="537" smooth="yes"/>
    </contour>
    <contour>
      <point x="130" y="374" type="line"/>
      <point x="130" y="312" smooth="yes"/>
      <point x="137" y="299" smooth="yes"/>
      <point x="175" y="299" type="curve" smooth="yes"/>
      <point x="490" y="299" type="line"/>
      <point x="490" y="361" smooth="yes"/>
      <point x="483" y="374" smooth="yes"/>
      <point x="445" y="374" type="curve" smooth="yes"/>
    </contour>
    <contour>
      <point x="250" y="168" type="curve" smooth="yes"/>
      <point x="250" y="134" smooth="yes"/>
      <point x="261" y="108" smooth="yes"/>
      <point x="310" y="108" type="curve" smooth="yes"/>
      <point x="357" y="108" smooth="yes"/>
      <point x="371" y="134" smooth="yes"/>
      <point x="371" y="168" type="curve" smooth="yes"/>
      <point x="371" y="201" smooth="yes"/>
      <point x="357" y="229" smooth="yes"/>
      <point x="310" y="229" type="curve" smooth="yes"/>
      <point x="261" y="229" smooth="yes"/>
      <point x="250" y="201" smooth="yes"/>
    </contour>
  </outline>
</glyph>
<glyph name="oslash" format="1">
  <advance width="739"/>
  <unicode hex="00F8"/>
  <outline>
    <contour>
      <point x="582" y="757" type="line"/>
      <point x="573" y="757" type="line" smooth="yes"/>
      <point x="530" y="757" smooth="yes"/>
      <point x="511" y="752" smooth="yes"/>
      <point x="496" y="697" type="curve" smooth="yes"/>
      <point x="454" y="540" type="line"/>
      <point x="444" y="547" smooth="yes"/>
      <point x="432" y="550" smooth="yes"/>
      <point x="417" y="550" type="curve" smooth="yes" name="hr01"/>
      <point x="251" y="550" smooth="yes"/>
      <point x="190" y="481" smooth="yes"/>
      <point x="190" y="331" type="curve" smooth="yes"/>
      <point x="190" y="90" type="line" smooth="yes"/>
      <point x="190" y="40" smooth="yes"/>
      <point x="205" y="0" smooth="yes"/>
      <point x="280" y="0" type="curve" smooth="yes"/>
      <point x="310" y="0" type="line"/>
      <point x="269" y="-153" type="line"/>
      <point x="278" y="-153" type="line" smooth="yes"/>
      <point x="327" y="-153" smooth="yes"/>
      <point x="342" y="-142" smooth="yes"/>
      <point x="355" y="-93" type="curve" smooth="yes"/>
      <point x="382" y="7" type="line"/>
      <point x="568" y="37" smooth="yes"/>
      <point x="658" y="153" smooth="yes"/>
      <point x="658" y="360" type="curve" smooth="yes"/>
      <point x="658" y="460" type="line"/>
      <point x="929" y="460" type="line" smooth="yes"/>
      <point x="964" y="460"/>
      <point x="999" y="482"/>
      <point x="999" y="540" type="curve" name="hr02"/>
      <point x="647" y="540" type="line" smooth="yes"/>
      <point x="594" y="540" smooth="yes"/>
      <point x="568" y="504" smooth="yes"/>
      <point x="568" y="460" type="curve" smooth="yes" name="hr03"/>
      <point x="568" y="360" type="line" smooth="yes"/>
      <point x="568" y="198"/>
      <point x="516" y="121"/>
      <point x="405" y="93" type="curve"/>
    </contour>
    <contour>
      <point x="280" y="80" type="line"/>
      <point x="280" y="331" type="line" smooth="yes"/>
      <point x="280" y="446" smooth="yes"/>
      <point x="322" y="470" smooth="yes"/>
      <point x="417" y="470" type="curve" smooth="yes"/>
      <point x="435" y="470" type="line"/>
      <point x="331" y="81" type="line"/>
    </contour>
  </outline>
</glyph>
<glyph name="ucircumflex" format="1">
  <advance width="767"/>
  <unicode hex="00FB"/>
  <outline>
    <contour>
      <point x="280" y="520" type="line" smooth="yes"/>
      <point x="280" y="531" smooth="yes"/>
      <point x="270" y="540" smooth="yes"/>
      <point x="259" y="540" type="curve" smooth="yes"/>
      <point x="210" y="540" type="line" smooth="yes"/>
      <point x="199" y="540" smooth="yes"/>
      <point x="190" y="531" smooth="yes"/>
      <point x="190" y="520" type="curve" smooth="yes"/>
      <point x="190" y="85" type="line" smooth="yes"/>
      <point x="190" y="35" smooth="yes"/>
      <point x="210" y="-5" smooth="yes"/>
      <point x="280" y="-5" type="curve" smooth="yes"/>
      <point x="373" y="-5"/>
      <point x="478" y="72"/>
      <point x="546" y="192" type="curve"/>
      <point x="546" y="60" type="line" smooth="yes"/>
      <point x="546" y="10" smooth="yes"/>
      <point x="577" y="0" smooth="yes"/>
      <point x="607" y="0" type="curve" smooth="yes" name="hr01"/>
      <point x="887" y="0" type="line" smooth="yes"/>
      <point x="922" y="0"/>
      <point x="957" y="12"/>
      <point x="957" y="70" type="curve" name="hr02"/>
      <point x="636" y="70" type="line"/>
      <point x="636" y="349" type="line"/>
      <point x="648" y="379" smooth="yes"/>
      <point x="657" y="413" smooth="yes"/>
      <point x="657" y="449" type="curve" smooth="yes"/>
      <point x="657" y="509" smooth="yes"/>
      <point x="633" y="540" smooth="yes"/>
      <point x="582" y="540" type="curve" smooth="yes"/>
      <point x="546" y="540" type="line"/>
      <point x="546" y="477" type="line" smooth="yes"/>
      <point x="546" y="198"/>
      <point x="375" y="75"/>
      <point x="280" y="75" type="curve"/>
    </contour>
    <contour>
      <point x="578" y="661" type="line"/>
      <point x="433" y="792" type="line"/>
      <point x="393" y="792" type="line"/>
      <point x="248" y="661" type="line"/>
      <point x="272" y="621" type="line"/>
      <point x="333" y="634"/>
      <point x="389" y="667"/>
      <point x="413" y="695" type="curve"/>
      <point x="434" y="670"/>
      <point x="496" y="633"/>
      <point x="554" y="621" type="curve"/>
    </contour>
  </outline>
</glyph>
<glyph name="dotlessi" format="1">
  <advance width="411"/>
  <unicode hex="0131"/>
  <outline>
    <contour>
      <point x="280" y="70" type="line" name="hr00"/>
      <point x="280" y="520" type="line" smooth="yes"/>
      <point x="279" y="531" smooth="yes"/>
      <point x="270" y="540" smooth="yes"/>
      <point x="259" y="540" type="curve" smooth="yes"/>
      <point x="210" y="540" type="line" smooth="yes"/>
      <point x="199" y="540" smooth="yes"/>
      <point x="190" y="531" smooth="yes"/>
      <point x="190" y="520" type="curve" smooth="yes"/>
      <point x="190" y="60" type="line" smooth="yes"/>
      <point x="190" y="10" smooth="yes"/>
      <point x="221" y="0" smooth="yes"/>
      <point x="251" y="0" type="curve" smooth="yes"/>
      <point x="531" y="0" type="line" smooth="yes"/>
      <point x="566" y="0"/>
      <point x="601" y="12"/>
      <point x="601" y="70" type="curve"/>
    </contour>
  </outline>
</glyph>
<glyph name="kgreenlandic" format="1">
  <advance width="670"/>
  <unicode hex="0138"/>
  <outline>
    <contour>
      <point x="280" y="0" type="line" name="hr00"/>
      <point x="280" y="78" type="line" smooth="yes"/>
      <point x="280" y="357"/>
      <point x="451" y="480"/>
      <point x="546" y="480" type="curve"/>
      <point x="546" y="451" type="line" smooth="yes"/>
      <point x="546" y="285" smooth="yes"/>
      <point x="504" y="251" smooth="yes"/>
      <point x="409" y="251" type="curve" smooth="yes"/>
      <point x="330" y="251" type="line"/>
      <point x="330" y="241" type="line" smooth="yes"/>
      <point x="330" y="191"/>
      <point x="352" y="181"/>
      <point x="409" y="181" type="curve"/>
      <point x="506" y="20" type="line" smooth="yes"/>
      <point x="516" y="3" smooth="yes"/>
      <point x="537" y="0" smooth="yes"/>
      <point x="556" y="0" type="curve" smooth="yes"/>
      <point x="790" y="0" type="line" smooth="yes"/>
      <point x="825" y="0"/>
      <point x="860" y="12"/>
      <point x="860" y="70" type="curve"/>
      <point x="573" y="70" type="line"/>
      <point x="497" y="190" type="line"/>
      <point x="597" y="214" smooth="yes"/>
      <point x="636" y="290" smooth="yes"/>
      <point x="636" y="451" type="curve" smooth="yes"/>
      <point x="636" y="470" type="line" smooth="yes"/>
      <point x="636" y="520" smooth="yes"/>
      <point x="616" y="560" smooth="yes"/>
      <point x="546" y="560" type="curve" smooth="yes"/>
      <point x="452" y="560"/>
      <point x="348" y="483"/>
      <point x="280" y="362" type="curve"/>
      <point x="280" y="520" type="line" smooth="yes"/>
      <point x="280" y="531" smooth="yes"/>
      <point x="271" y="540" smooth="yes"/>
      <point x="260" y="540" type="curve" smooth="yes"/>
      <point x="210" y="540" type="line" smooth="yes"/>
      <point x="199" y="540" smooth="yes"/>
      <point x="190" y="531" smooth="yes"/>
      <point x="190" y="520" type="curve" smooth="yes"/>
      <point x="190" y="191" type="line"/>
      <point x="177" y="160" smooth="yes"/>
      <point x="169" y="127" smooth="yes"/>
      <point x="169" y="91" type="curve" smooth="yes"/>
      <point x="169" y="28" smooth="yes"/>
      <point x="195" y="0" smooth="yes"/>
      <point x="250" y="0" type="curve" smooth="yes"/>
    </contour>
  </outline>
</glyph>
<glyph name="scedilla" format="1">
  <advance width="576"/>
  <unicode hex="015F"/>
  <outline>
    <contour>
      <point x="262" y="70" type="line" name="hr00"/>
      <point x="231" y="-90" smooth="yes"/>
      <point x="224" y="-129" smooth="yes"/>
      <point x="224" y="-134" type="curve" smooth="yes"/>
      <point x="224" y="-151" smooth="yes"/>
      <point x="232" y="-160" smooth="yes"/>
      <point x="254" y="-160" type="curve" smooth="yes"/>
      <point x="349" y="-160" type="line"/>
      <point x="349" y="-224" smooth="yes"/>
      <point x="318" y="-243" smooth="yes"/>
      <point x="227" y="-243" type="curve" smooth="yes"/>
      <point x="206" y="-243" type="line"/>
      <point x="206" y="-300" smooth="yes"/>
      <point x="213" y="-310" smooth="yes"/>
      <point x="247" y="-310" type="curve" smooth="yes"/>
      <point x="364" y="-310" smooth="yes"/>
      <point x="430" y="-250" smooth="yes"/>
      <point x="430" y="-149" type="curve" smooth="yes"/>
      <point x="430" y="-122" smooth="yes"/>
      <point x="413" y="-93" smooth="yes"/>
      <point x="379" y="-93" type="curve" smooth="yes"/>
      <point x="290" y="-93" type="line"/>
      <point x="311" y="17" type="line"/>
    </contour>
    <component  base="s"/>
  </outline>
</glyph>
<glyph name="Scaron" format="1">
  <advance width="707"/>
  <unicode hex="0160"/>
  <outline>
    <contour>
      <point x="180" y="374" type="line" name="hr00"/>
      <point x="180" y="462" smooth="yes"/>
      <point x="199" y="640" smooth="yes"/>
      <point x="522" y="640" type="curve" smooth="yes"/>
      <point x="595" y="640" type="line"/>
      <point x="595" y="660" type="line" smooth="yes"/>
      <point x="595" y="710" smooth="yes"/>
      <point x="565" y="720" smooth="yes"/>
      <point x="535" y="720" type="curve" smooth="yes"/>
      <point x="175" y="720" smooth="yes"/>
      <point x="90" y="530" smooth="yes"/>
      <point x="90" y="384" type="curve" smooth="yes"/>
      <point x="90" y="314" smooth="yes"/>
      <point x="130" y="299" smooth="yes"/>
      <point x="180" y="299" type="curve" smooth="yes"/>
      <point x="535" y="299" type="line"/>
      <point x="535" y="211" smooth="yes"/>
      <point x="486" y="70" smooth="yes"/>
      <point x="153" y="70" type="curve" smooth="yes"/>
      <point x="90" y="70" type="line"/>
      <point x="90" y="60" type="line" smooth="yes"/>
      <point x="90" y="10" smooth="yes"/>
      <point x="120" y="0" smooth="yes"/>
      <point x="150" y="0" type="curve" smooth="yes"/>
      <point x="827" y="0" type="line" smooth="yes"/>
      <point x="862" y="0"/>
      <point x="897" y="12"/>
      <point x="897" y="70" type="curve"/>
      <point x="488" y="70" type="line"/>
      <point x="587" y="126" smooth="yes"/>
      <point x="625" y="211" smooth="yes"/>
      <point x="625" y="294" type="curve" smooth="yes"/>
      <point x="625" y="364" smooth="yes"/>
      <point x="585" y="374" smooth="yes"/>
      <point x="535" y="374" type="curve" smooth="yes"/>
    </contour>
    <contour>
      <point x="189" y="922" type="line"/>
      <point x="334" y="791" type="line"/>
      <point x="374" y="791" type="line"/>
      <point x="519" y="922" type="line"/>
      <point x="495" y="962" type="line"/>
      <point x="434" y="949"/>
      <point x="378" y="916"/>
      <point x="354" y="888" type="curve"/>
      <point x="333" y="913"/>
      <point x="271" y="950"/>
      <point x="213" y="962" type="curve"/>
    </contour>
  </outline>
</glyph>
<glyph name="Zcaron" format="1">
  <advance width="610"/>
  <unicode hex="017D"/>
  <outline>
    <contour>
      <point x="540" y="299" type="line" smooth="yes"/>
      <point x="575" y="299"/>
      <point x="610" y="316"/>
      <point x="610" y="374" type="curve"/>
      <point x="467" y="374" type="line"/>
      <point x="496" y="451" smooth="yes"/>
      <point x="513" y="537" smooth="yes"/>
      <point x="513" y="630" type="curve" smooth="yes"/>
      <point x="513" y="700" smooth="yes"/>
      <point x="473" y="710" smooth="yes"/>
      <point x="423" y="710" type="curve" smooth="yes"/>
      <point x="79" y="710" type="line"/>
      <point x="79" y="684" type="line" smooth="yes"/>
      <point x="79" y="657" smooth="yes"/>
      <point x="88" y="630" smooth="yes"/>
      <point x="133" y="630" type="curve" smooth="yes"/>
      <point x="423" y="630" type="line"/>
      <point x="423" y="546"/>
      <point x="403" y="457"/>
      <point x="369" y="374" type="curve"/>
      <point x="239" y="374" type="line" smooth="yes"/>
      <point x="204" y="374"/>
      <point x="169" y="357"/>
      <point x="169" y="299" type="curve"/>
      <point x="333" y="299" type="line"/>
      <point x="260" y="168" smooth="yes"/>
      <point x="149" y="70" smooth="yes"/>
      <point x="20" y="70" type="curve" smooth="yes"/>
      <point x="-40" y="70" type="line"/>
      <point x="-40" y="-4" smooth="yes"/>
      <point x="7" y="-20" smooth="yes"/>
      <point x="49" y="-20" type="curve" smooth="yes"/>
      <point x="83" y="-20"/>
      <point x="116" y="-11"/>
      <point x="145" y="0" type="curve" name="hr01"/>
      <point x="730" y="0" type="line" smooth="yes"/>
      <point x="765" y="0"/>
      <point x="800" y="12"/>
      <point x="800" y="70" type="curve"/>
      <point x="235" y="70" type="line"/>
      <point x="312" y="122"/>
      <point x="383" y="201"/>
      <point x="433" y="299" type="curve"/>
    </contour>
    <contour>
      <point x="140" y="922" type="line"/>
      <point x="285" y="791" type="line"/>
      <point x="325" y="791" type="line"/>
      <point x="470" y="922" type="line"/>
      <point x="446" y="962" type="line"/>
      <point x="385" y="949"/>
      <point x="329" y="916"/>
      <point x="305" y="888" type="curve"/>
      <point x="284" y="913"/>
      <point x="222" y="950"/>
      <point x="164" y="962" type="curve"/>
    </contour>
  </outline>
</glyph>
<glyph name="zcaron" format="1">
  <advance width="500"/>
  <unicode hex="017E"/>
  <outline>
    <contour>
      <point x="62" y="60" type="line" smooth="yes" name="hr00"/>
      <point x="50" y="45" smooth="yes"/>
      <point x="40" y="30" smooth="yes"/>
      <point x="40" y="21" type="curve" smooth="yes"/>
      <point x="40" y="2" smooth="yes"/>
      <point x="48" y="0" smooth="yes"/>
      <point x="73" y="0" type="curve" smooth="yes"/>
      <point x="620" y="0" type="line" smooth="yes"/>
      <point x="655" y="0"/>
      <point x="690" y="12"/>
      <point x="690" y="70" type="curve"/>
      <point x="174" y="70" type="line"/>
      <point x="516" y="480" type="line" smooth="yes"/>
      <point x="528" y="495" smooth="yes"/>
      <point x="538" y="510" smooth="yes"/>
      <point x="538" y="519" type="curve" smooth="yes"/>
      <point x="538" y="538" smooth="yes"/>
      <point x="521" y="540" smooth="yes"/>
      <point x="496" y="540" type="curve" smooth="yes"/>
      <point x="78" y="540" type="line"/>
      <point x="78" y="482" smooth="yes"/>
      <point x="113" y="460" smooth="yes"/>
      <point x="148" y="460" type="curve" smooth="yes"/>
      <point x="394" y="460" type="line"/>
    </contour>
    <contour>
      <point x="143" y="752" type="line"/>
      <point x="288" y="621" type="line"/>
      <point x="328" y="621" type="line"/>
      <point x="473" y="752" type="line"/>
      <point x="449" y="792" type="line"/>
      <point x="388" y="779"/>
      <point x="332" y="746"/>
      <point x="308" y="718" type="curve"/>
      <point x="287" y="743"/>
      <point x="225" y="780"/>
      <point x="167" y="792" type="curve"/>
    </contour>
  </outline>
</glyph>
<glyph name="caron" format="1">
  <advance width="474"/>
  <unicode hex="02C7"/>
  <outline>
    <contour>
      <point x="216" y="752" type="line" name="hr00"/>
      <point x="361" y="621" type="line"/>
      <point x="401" y="621" type="line"/>
      <point x="546" y="752" type="line"/>
      <point x="522" y="792" type="line"/>
      <point x="461" y="779"/>
      <point x="405" y="746"/>
      <point x="381" y="718" type="curve"/>
      <point x="360" y="743"/>
      <point x="298" y="780"/>
      <point x="240" y="792" type="curve"/>
    </contour>
  </outline>
</glyph>
<glyph name="breve" format="1">
  <advance width="474"/>
  <unicode hex="02D8"/>
  <outline>
    <contour>
      <point x="269" y="792" type="line" name="hr00"/>
      <point x="229" y="759" type="line"/>
      <point x="289" y="659" smooth="yes"/>
      <point x="330" y="621" smooth="yes"/>
      <point x="381" y="621" type="curve" smooth="yes"/>
      <point x="432" y="621"/>
      <point x="473" y="659"/>
      <point x="533" y="759" type="curve"/>
      <point x="493" y="792" type="line"/>
      <point x="381" y="699" type="line"/>
    </contour>
  </outline>
</glyph>
<glyph name="dotaccent" format="1">
  <advance width="411"/>
  <unicode hex="02D9"/>
  <outline>
    <contour>
      <point x="174" y="704" type="curve" smooth="yes" name="hr00"/>
      <point x="174" y="670" smooth="yes"/>
      <point x="186" y="643" smooth="yes"/>
      <point x="235" y="643" type="curve" smooth="yes"/>
      <point x="283" y="643" smooth="yes"/>
      <point x="297" y="670" smooth="yes"/>
      <point x="297" y="704" type="curve" smooth="yes"/>
      <point x="297" y="737" smooth="yes"/>
      <point x="283" y="766" smooth="yes"/>
      <point x="235" y="766" type="curve" smooth="yes"/>
      <point x="186" y="766" smooth="yes"/>
      <point x="174" y="737" smooth="yes"/>
    </contour>
  </outline>
</glyph>
<glyph name="ogonek" format="1">
  <advance width="639"/>
  <unicode hex="02DB"/>
  <outline>
    <contour>
      <point x="513" y="37" type="line" name="hr00"/>
      <point x="361" y="37" smooth="yes"/>
      <point x="325" y="-36" smooth="yes"/>
      <point x="325" y="-98" type="curve" smooth="yes"/>
      <point x="325" y="-159" smooth="yes"/>
      <point x="362" y="-238" smooth="yes"/>
      <point x="477" y="-238" type="curve" smooth="yes"/>
      <point x="553" y="-238" smooth="yes"/>
      <point x="599" y="-217" smooth="yes"/>
      <point x="599" y="-162" type="curve" smooth="yes"/>
      <point x="599" y="-152"/>
      <point x="598" y="-141"/>
      <point x="595" y="-129" type="curve"/>
      <point x="559" y="-150" smooth="yes"/>
      <point x="525" y="-158" smooth="yes"/>
      <point x="497" y="-158" type="curve" smooth="yes"/>
      <point x="442" y="-158" smooth="yes"/>
      <point x="412" y="-130" smooth="yes"/>
      <point x="412" y="-81" type="curve" smooth="yes"/>
      <point x="412" y="-29"/>
      <point x="454" y="0"/>
      <point x="513" y="0" type="curve"/>
    </contour>
  </outline>
</glyph>
<glyph name="hungarumlaut" format="1">
  <advance width="600"/>
  <unicode hex="02DD"/>
  <outline>
    <contour>
      <point x="186" y="620" type="line" name="hr00"/>
      <point x="277" y="637" smooth="yes"/>
      <point x="370" y="669" smooth="yes"/>
      <point x="370" y="715" type="curve" smooth="yes"/>
      <point x="370" y="728" smooth="yes"/>
      <point x="363" y="746" smooth="yes"/>
      <point x="346" y="772" type="curve" smooth="yes"/>
      <point x="333" y="792" type="line"/>
      <point x="163" y="661" type="line"/>
    </contour>
    <contour>
      <point x="416" y="620" type="line"/>
      <point x="507" y="637" smooth="yes"/>
      <point x="600" y="669" smooth="yes"/>
      <point x="600" y="715" type="curve" smooth="yes"/>
      <point x="600" y="728" smooth="yes"/>
      <point x="593" y="746" smooth="yes"/>
      <point x="576" y="772" type="curve" smooth="yes"/>
      <point x="563" y="792" type="line"/>
      <point x="393" y="661" type="line"/>
    </contour>
  </outline>
</glyph>
<glyph name="pi" format="1">
  <advance width="709"/>
  <unicode hex="03C0"/>
  <outline>
    <contour>
      <point x="70" y="539" type="line" name="hr00"/>
      <point x="70" y="529" type="line" smooth="yes"/>
      <point x="70" y="479" smooth="yes"/>
      <point x="92" y="459" smooth="yes"/>
      <point x="129" y="459" type="curve" smooth="yes"/>
      <point x="170" y="459" type="line"/>
      <point x="170" y="60" type="line" smooth="yes"/>
      <point x="170" y="10" smooth="yes"/>
      <point x="201" y="0" smooth="yes"/>
      <point x="231" y="0" type="curve" smooth="yes"/>
      <point x="260" y="0" type="line"/>
      <point x="260" y="459" type="line"/>
      <point x="448" y="459" type="line"/>
      <point x="448" y="60" type="line" smooth="yes"/>
      <point x="448" y="10" smooth="yes"/>
      <point x="479" y="0" smooth="yes"/>
      <point x="509" y="0" type="curve" smooth="yes"/>
      <point x="538" y="0" type="line"/>
      <point x="538" y="459" type="line"/>
      <point x="639" y="459" type="line"/>
      <point x="639" y="469" type="line" smooth="yes"/>
      <point x="639" y="519" smooth="yes"/>
      <point x="617" y="539" smooth="yes"/>
      <point x="580" y="539" type="curve" smooth="yes"/>
    </contour>
  </outline>
</glyph>
<glyph name="endash" format="1">
  <advance width="660"/>
  <unicode hex="2013"/>
  <outline>
    <contour>
      <point x="100" y="374" type="line" name="hr00"/>
      <point x="100" y="312" smooth="yes"/>
      <point x="137" y="299" smooth="yes"/>
      <point x="175" y="299" type="curve" smooth="yes"/>
      <point x="600" y="299" type="line"/>
      <point x="600" y="361" smooth="yes"/>
      <point x="562" y="374" smooth="yes"/>
      <point x="525" y="374" type="curve" smooth="yes"/>
    </contour>
  </outline>
</glyph>
<glyph name="quotedblleft" format="1">
  <advance width="363"/>
  <unicode hex="201C"/>
  <outline>
    <contour>
      <point x="156" y="807" type="line" name="hr00"/>
      <point x="102" y="755" smooth="yes"/>
      <point x="39" y="659" smooth="yes"/>
      <point x="39" y="578" type="curve" smooth="yes"/>
      <point x="39" y="521" smooth="yes"/>
      <point x="62" y="496" smooth="yes"/>
      <point x="112" y="496" type="curve" smooth="yes"/>
      <point x="143" y="496" type="line"/>
      <point x="143" y="551" type="line" smooth="yes"/>
      <point x="143" y="681"/>
      <point x="168" y="728"/>
      <point x="193" y="776" type="curve"/>
    </contour>
    <contour>
      <point x="336" y="807" type="line"/>
      <point x="282" y="755" smooth="yes"/>
      <point x="219" y="659" smooth="yes"/>
      <point x="219" y="578" type="curve" smooth="yes"/>
      <point x="219" y="521" smooth="yes"/>
      <point x="242" y="496" smooth="yes"/>
      <point x="292" y="496" type="curve" smooth="yes"/>
      <point x="323" y="496" type="line"/>
      <point x="323" y="551" type="line" smooth="yes"/>
      <point x="323" y="681"/>
      <point x="348" y="728"/>
      <point x="373" y="776" type="curve"/>
    </contour>
  </outline>
</glyph>
<glyph name="quotedblright" format="1">
  <advance width="373"/>
  <unicode hex="201D"/>
  <outline>
    <contour>
      <point x="256" y="486" type="line" name="hr00"/>
      <point x="310" y="538" smooth="yes"/>
      <point x="373" y="634" smooth="yes"/>
      <point x="373" y="715" type="curve" smooth="yes"/>
      <point x="373" y="772" smooth="yes"/>
      <point x="350" y="797" smooth="yes"/>
      <point x="300" y="797" type="curve" smooth="yes"/>
      <point x="269" y="797" type="line"/>
      <point x="269" y="742" type="line" smooth="yes"/>
      <point x="269" y="612"/>
      <point x="244" y="565"/>
      <point x="219" y="517" type="curve"/>
    </contour>
    <contour>
      <point x="76" y="486" type="line"/>
      <point x="130" y="538" smooth="yes"/>
      <point x="193" y="634" smooth="yes"/>
      <point x="193" y="715" type="curve" smooth="yes"/>
      <point x="193" y="772" smooth="yes"/>
      <point x="170" y="797" smooth="yes"/>
      <point x="120" y="797" type="curve" smooth="yes"/>
      <point x="89" y="797" type="line"/>
      <point x="89" y="742" type="line" smooth="yes"/>
      <point x="89" y="612"/>
      <point x="64" y="565"/>
      <point x="39" y="517" type="curve"/>
    </contour>
  </outline>
</glyph>
<glyph name="quotedblbase" format="1">
  <advance width="523"/>
  <unicode hex="201E"/>
  <outline>
    <contour>
      <point x="411" y="-188" type="line" name="hr00"/>
      <point x="465" y="-136" smooth="yes"/>
      <point x="528" y="-40" smooth="yes"/>
      <point x="528" y="41" type="curve" smooth="yes"/>
      <point x="528" y="98" smooth="yes"/>
      <point x="505" y="123" smooth="yes"/>
      <point x="455" y="123" type="curve" smooth="yes"/>
      <point x="424" y="123" type="line"/>
      <point x="424" y="68" type="line" smooth="yes"/>
      <point x="424" y="-62"/>
      <point x="399" y="-109"/>
      <point x="374" y="-157" type="curve"/>
    </contour>
    <contour>
      <point x="231" y="-188" type="line"/>
      <point x="285" y="-136" smooth="yes"/>
      <point x="348" y="-40" smooth="yes"/>
      <point x="348" y="41" type="curve" smooth="yes"/>
      <point x="348" y="98" smooth="yes"/>
      <point x="325" y="123" smooth="yes"/>
      <point x="275" y="123" type="curve" smooth="yes"/>
      <point x="244" y="123" type="line"/>
      <point x="244" y="68" type="line" smooth="yes"/>
      <point x="244" y="-62"/>
      <point x="219" y="-109"/>
      <point x="194" y="-157" type="curve"/>
    </contour>
  </outline>
</glyph>
<glyph name="daggerdbl" format="1">
  <advance width="650"/>
  <unicode hex="2021"/>
  <outline>
    <contour>
      <point x="470" y="660" type="line" smooth="yes" name="hr00"/>
      <point x="470" y="710" smooth="yes"/>
      <point x="439" y="720" smooth="yes"/>
      <point x="409" y="720" type="curve" smooth="yes"/>
      <point x="380" y="720" type="line"/>
      <point x="380" y="541" type="line"/>
      <point x="200" y="541" type="line"/>
      <point x="200" y="515" type="line" smooth="yes"/>
      <point x="200" y="488" smooth="yes"/>
      <point x="209" y="461" smooth="yes"/>
      <point x="254" y="461" type="curve" smooth="yes"/>
      <point x="380" y="461" type="line"/>
      <point x="380" y="159" type="line"/>
      <point x="200" y="159" type="line"/>
      <point x="200" y="140" type="line" smooth="yes"/>
      <point x="200" y="110" smooth="yes"/>
      <point x="210" y="79" smooth="yes"/>
      <point x="260" y="79" type="curve" smooth="yes"/>
      <point x="380" y="79" type="line"/>
      <point x="380" y="-40" type="line" smooth="yes"/>
      <point x="380" y="-90" smooth="yes"/>
      <point x="411" y="-100" smooth="yes"/>
      <point x="441" y="-100" type="curve" smooth="yes"/>
      <point x="470" y="-100" type="line"/>
      <point x="470" y="79" type="line"/>
      <point x="650" y="79" type="line"/>
      <point x="650" y="105" type="line" smooth="yes"/>
      <point x="650" y="132" smooth="yes"/>
      <point x="641" y="159" smooth="yes"/>
      <point x="596" y="159" type="curve" smooth="yes"/>
      <point x="470" y="159" type="line"/>
      <point x="470" y="461" type="line"/>
      <point x="650" y="461" type="line"/>
      <point x="650" y="480" type="line" smooth="yes"/>
      <point x="650" y="510" smooth="yes"/>
      <point x="640" y="541" smooth="yes"/>
      <point x="590" y="541" type="curve" smooth="yes"/>
      <point x="470" y="541" type="line"/>
    </contour>
  </outline>
</glyph>
<glyph name="bullet" format="1">
  <advance width="397"/>
  <unicode hex="2022"/>
  <outline>
    <contour>
      <point x="185" y="355" type="curve" smooth="yes" name="hr00"/>
      <point x="185" y="302" smooth="yes"/>
      <point x="203" y="261" smooth="yes"/>
      <point x="279" y="261" type="curve" smooth="yes"/>
      <point x="352" y="261" smooth="yes"/>
      <point x="374" y="302" smooth="yes"/>
      <point x="374" y="355" type="curve" smooth="yes"/>
      <point x="374" y="407" smooth="yes"/>
      <point x="352" y="450" smooth="yes"/>
      <point x="279" y="450" type="curve" smooth="yes"/>
      <point x="203" y="450" smooth="yes"/>
      <point x="185" y="407" smooth="yes"/>
    </contour>
  </outline>
</glyph>
<glyph name="guilsinglright" format="1">
  <advance width="427"/>
  <unicode hex="203A"/>
  <outline>
    <contour>
      <point x="244" y="224" type="line" smooth="yes" name="hr00"/>
      <point x="237" y="217" smooth="yes"/>
      <point x="225" y="203" smooth="yes"/>
      <point x="225" y="187" type="curve" smooth="yes"/>
      <point x="225" y="173"/>
      <point x="243" y="149"/>
      <point x="263" y="129" type="curve"/>
      <point x="403" y="286" type="line" smooth="yes"/>
      <point x="418" y="300" smooth="yes"/>
      <point x="427" y="319" smooth="yes"/>
      <point x="427" y="334" type="curve" smooth="yes"/>
      <point x="427" y="349" smooth="yes"/>
      <point x="418" y="367" smooth="yes"/>
      <point x="403" y="382" type="curve" smooth="yes"/>
      <point x="263" y="540" type="line"/>
      <point x="243" y="520" smooth="yes"/>
      <point x="225" y="496" smooth="yes"/>
      <point x="225" y="482" type="curve" smooth="yes"/>
      <point x="225" y="466" smooth="yes"/>
      <point x="237" y="452" smooth="yes"/>
      <point x="244" y="445" type="curve" smooth="yes"/>
      <point x="333" y="334" type="line"/>
    </contour>
  </outline>
</glyph>
<glyph name="zeroinferior" format="1">
  <advance width="420"/>
  <unicode hex="2080"/>
  <outline>
    <contour>
      <point x="303" y="239" type="curve" smooth="yes" name="hr00"/>
      <point x="106" y="239" smooth="yes"/>
      <point x="57" y="159" smooth="yes"/>
      <point x="57" y="-26" type="curve" smooth="yes"/>
      <point x="57" y="-142" type="line" smooth="yes"/>
      <point x="57" y="-174" smooth="yes"/>
      <point x="65" y="-200" smooth="yes"/>
      <point x="112" y="-200" type="curve" smooth="yes"/>
      <point x="308" y="-200" smooth="yes"/>
      <point x="358" y="-120" smooth="yes"/>
      <point x="358" y="65" type="curve" smooth="yes"/>
      <point x="358" y="181" type="line" smooth="yes"/>
      <point x="358" y="213" smooth="yes"/>
      <point x="348" y="239" smooth="yes"/>
    </contour>
    <contour>
      <point x="288" y="65" type="line" smooth="yes"/>
      <point x="288" y="-76"/>
      <point x="266" y="-134"/>
      <point x="127" y="-136" type="curve"/>
      <point x="127" y="-26" type="line" smooth="yes"/>
      <point x="127" y="115"/>
      <point x="148" y="173"/>
      <point x="288" y="175" type="curve"/>
    </contour>
  </outline>
</glyph>
<glyph name="fourinferior" format="1">
  <advance width="420"/>
  <unicode hex="2084"/>
  <outline>
    <contour>
      <point x="51" y="-40" type="line" name="hr00"/>
      <point x="51" y="-80" smooth="yes"/>
      <point x="73" y="-98" smooth="yes"/>
      <point x="100" y="-98" type="curve" smooth="yes"/>
      <point x="245" y="-98" type="line"/>
      <point x="245" y="-156" type="line" smooth="yes"/>
      <point x="245" y="-193" smooth="yes"/>
      <point x="268" y="-200" smooth="yes"/>
      <point x="290" y="-200" type="curve" smooth="yes"/>
      <point x="315" y="-200" type="line"/>
      <point x="315" y="-98" type="line"/>
      <point x="349" y="-98" type="line" smooth="yes"/>
      <point x="357" y="-98" smooth="yes"/>
      <point x="367" y="-89" smooth="yes"/>
      <point x="367" y="-79" type="curve" smooth="yes"/>
      <point x="367" y="-51" type="line" smooth="yes"/>
      <point x="367" y="-41" smooth="yes"/>
      <point x="357" y="-33" smooth="yes"/>
      <point x="349" y="-33" type="curve" smooth="yes"/>
      <point x="315" y="-33" type="line"/>
      <point x="315" y="113" type="line" smooth="yes"/>
      <point x="315" y="125" smooth="yes"/>
      <point x="304" y="134" smooth="yes"/>
      <point x="295" y="134" type="curve" smooth="yes"/>
      <point x="265" y="134" type="line" smooth="yes"/>
      <point x="255" y="134" smooth="yes"/>
      <point x="245" y="125" smooth="yes"/>
      <point x="245" y="113" type="curve" smooth="yes"/>
      <point x="245" y="-33" type="line"/>
      <point x="119" y="-33" type="line"/>
      <point x="146" y="66" smooth="yes"/>
      <point x="159" y="118" smooth="yes"/>
      <point x="177" y="193" type="curve" smooth="yes"/>
      <point x="178" y="198" smooth="yes"/>
      <point x="178" y="204" smooth="yes"/>
      <point x="178" y="209" type="curve" smooth="yes"/>
      <point x="178" y="235"/>
      <point x="160" y="239"/>
      <point x="117" y="239" type="curve"/>
    </contour>
  </outline>
</glyph>
<glyph name="seveninferior" format="1">
  <advance width="438"/>
  <unicode hex="2087"/>
  <outline>
    <contour>
      <point x="74" y="233" type="line" name="hr00"/>
      <point x="74" y="213" type="line" smooth="yes"/>
      <point x="74" y="175" smooth="yes"/>
      <point x="94" y="169" smooth="yes"/>
      <point x="111" y="169" type="curve" smooth="yes"/>
      <point x="295" y="169" type="line"/>
      <point x="246" y="54" smooth="yes"/>
      <point x="151" y="-155" smooth="yes"/>
      <point x="151" y="-176" type="curve" smooth="yes"/>
      <point x="151" y="-202"/>
      <point x="169" y="-206"/>
      <point x="212" y="-206" type="curve"/>
      <point x="367" y="176" type="line"/>
      <point x="367" y="215" smooth="yes"/>
      <point x="344" y="233" smooth="yes"/>
      <point x="318" y="233" type="curve" smooth="yes"/>
    </contour>
  </outline>
</glyph>
<glyph name="eightinferior" format="1">
  <advance width="420"/>
  <unicode hex="2088"/>
  <outline>
    <contour>
      <point x="63" y="-79" type="curve" name="hr00"/>
      <point x="63" y="-143" type="line" smooth="yes"/>
      <point x="63" y="-175" smooth="yes"/>
      <point x="72" y="-200" smooth="yes"/>
      <point x="123" y="-200" type="curve" smooth="yes"/>
      <point x="260" y="-200" smooth="yes"/>
      <point x="352" y="-142" smooth="yes"/>
      <point x="352" y="-11" type="curve" smooth="yes"/>
      <point x="352" y="10"/>
      <point x="350" y="26"/>
      <point x="332" y="36" type="curve"/>
      <point x="347" y="56" smooth="yes"/>
      <point x="352" y="83" smooth="yes"/>
      <point x="352" y="118" type="curve" smooth="yes"/>
      <point x="352" y="182" type="line" smooth="yes"/>
      <point x="352" y="214" smooth="yes"/>
      <point x="341" y="239" smooth="yes"/>
      <point x="292" y="239" type="curve" smooth="yes"/>
      <point x="153" y="239" smooth="yes"/>
      <point x="69" y="181" smooth="yes"/>
      <point x="69" y="50" type="curve" smooth="yes"/>
      <point x="69" y="32"/>
      <point x="74" y="16"/>
      <point x="87" y="5" type="curve"/>
      <point x="69" y="-16"/>
      <point x="63" y="-43"/>
    </contour>
    <contour>
      <point x="285" y="-10" type="line"/>
      <point x="281" y="-102"/>
      <point x="228" y="-134"/>
      <point x="134" y="-136" type="curve"/>
      <point x="134" y="-76" type="line" smooth="yes"/>
      <point x="134" y="-23" smooth="yes"/>
      <point x="160" y="-10" smooth="yes"/>
      <point x="208" y="-10" type="curve" smooth="yes"/>
    </contour>
    <contour>
      <point x="137" y="49" type="line"/>
      <point x="140" y="141"/>
      <point x="186" y="173"/>
      <point x="282" y="175" type="curve"/>
      <point x="282" y="115" type="line" smooth="yes"/>
      <point x="282" y="62" smooth="yes"/>
      <point x="260" y="49" smooth="yes"/>
      <point x="213" y="49" type="curve" smooth="yes"/>
    </contour>
  </outline>
</glyph>
<glyph name="lira" format="1">
  <advance width="600"/>
  <unicode hex="20A4"/>
  <outline>
    <contour>
      <point x="157" y="80" type="line"/>
      <point x="122" y="80"/>
      <point x="87" y="58"/>
      <point x="87" y="0" type="curve"/>
      <point x="506" y="0" type="line" smooth="yes"/>
      <point x="541" y="0"/>
      <point x="576" y="22"/>
      <point x="576" y="80" type="curve"/>
      <point x="247" y="80" type="line"/>
      <point x="247" y="370" type="line" smooth="yes"/>
      <point x="247" y="606" smooth="yes"/>
      <point x="299" y="630" smooth="yes"/>
      <point x="424" y="630" type="curve" smooth="yes"/>
      <point x="534" y="630" type="line"/>
      <point x="534" y="656" type="line" smooth="yes"/>
      <point x="534" y="683" smooth="yes"/>
      <point x="525" y="710" smooth="yes"/>
      <point x="480" y="710" type="curve" smooth="yes"/>
      <point x="424" y="710" type="line" smooth="yes"/>
      <point x="235" y="710" smooth="yes"/>
      <point x="157" y="641" smooth="yes"/>
      <point x="157" y="370" type="curve" smooth="yes"/>
    </contour>
    <contour>
      <point x="117" y="445" type="line"/>
      <point x="72" y="445"/>
      <point x="63" y="420"/>
      <point x="63" y="375" type="curve"/>
      <point x="377" y="375" type="line" smooth="yes"/>
      <point x="421" y="375"/>
      <point x="431" y="400"/>
      <point x="431" y="445" type="curve"/>
    </contour>
    <contour>
      <point x="117" y="286" type="line" smooth="yes"/>
      <point x="72" y="286"/>
      <point x="63" y="261"/>
      <point x="63" y="216" type="curve"/>
      <point x="377" y="216" type="line" smooth="yes"/>
      <point x="421" y="216"/>
      <point x="431" y="241"/>
      <point x="431" y="286" type="curve"/>
    </contour>
  </outline>
</glyph>
<glyph name="Euro" format="1">
  <advance width="600"/>
  <unicode hex="20AC"/>
  <outline>
    <contour>
      <point x="389" y="240" type="line" smooth="yes" name="hr00"/>
      <point x="433" y="240"/>
      <point x="443" y="265"/>
      <point x="443" y="310" type="curve"/>
      <point x="220" y="310" type="line"/>
      <point x="219" y="324" smooth="yes"/>
      <point x="219" y="339" smooth="yes"/>
      <point x="219" y="353" type="curve" smooth="yes"/>
      <point x="219" y="368"/>
      <point x="219" y="384"/>
      <point x="221" y="400" type="curve"/>
      <point x="389" y="400" type="line" smooth="yes"/>
      <point x="433" y="400"/>
      <point x="443" y="425"/>
      <point x="443" y="470" type="curve"/>
      <point x="234" y="470" type="line"/>
      <point x="259" y="555" smooth="yes"/>
      <point x="325" y="630" smooth="yes"/>
      <point x="484" y="630" type="curve" smooth="yes"/>
      <point x="544" y="630" type="line"/>
      <point x="544" y="656" type="line" smooth="yes"/>
      <point x="544" y="683" smooth="yes"/>
      <point x="535" y="710" smooth="yes"/>
      <point x="490" y="710" type="curve" smooth="yes"/>
      <point x="274" y="710"/>
      <point x="175" y="604"/>
      <point x="143" y="470" type="curve"/>
      <point x="129" y="470" type="line" smooth="yes"/>
      <point x="84" y="470"/>
      <point x="75" y="445"/>
      <point x="75" y="400" type="curve"/>
      <point x="132" y="400" type="line"/>
      <point x="130" y="384" smooth="yes"/>
      <point x="130" y="369" smooth="yes"/>
      <point x="130" y="353" type="curve" smooth="yes"/>
      <point x="130" y="338"/>
      <point x="130" y="324"/>
      <point x="131" y="310" type="curve"/>
      <point x="129" y="310" type="line" smooth="yes"/>
      <point x="84" y="310"/>
      <point x="75" y="285"/>
      <point x="75" y="240" type="curve"/>
      <point x="142" y="240" type="line"/>
      <point x="174" y="105" smooth="yes"/>
      <point x="272" y="0" smooth="yes"/>
      <point x="490" y="0" type="curve" smooth="yes"/>
      <point x="535" y="0" smooth="yes"/>
      <point x="544" y="27" smooth="yes"/>
      <point x="544" y="54" type="curve" smooth="yes"/>
      <point x="544" y="80" type="line"/>
      <point x="484" y="80" type="line" smooth="yes"/>
      <point x="323" y="80"/>
      <point x="258" y="154"/>
      <point x="233" y="240" type="curve"/>
    </contour>
  </outline>
</glyph>
<glyph name="uni2113" format="1">
  <advance width="411"/>
  <unicode hex="2113"/>
  <outline>
    <contour>
      <point x="280" y="372" type="line" name="hr00"/>
      <point x="298" y="462" smooth="yes"/>
      <point x="312" y="555" smooth="yes"/>
      <point x="312" y="625" type="curve" smooth="yes"/>
      <point x="312" y="688" smooth="yes"/>
      <point x="281" y="710" smooth="yes"/>
      <point x="207" y="710" type="curve" smooth="yes"/>
      <point x="190" y="710" type="line"/>
      <point x="190" y="60" type="line" smooth="yes"/>
      <point x="190" y="10" smooth="yes"/>
      <point x="221" y="0" smooth="yes"/>
      <point x="251" y="0" type="curve" smooth="yes"/>
      <point x="280" y="0" type="line" smooth="yes"/>
      <point x="315" y="0"/>
      <point x="350" y="12"/>
      <point x="350" y="70" type="curve"/>
      <point x="280" y="70" type="line"/>
    </contour>
  </outline>
</glyph>
<glyph name="trademark" format="1">
  <advance width="1199"/>
  <unicode hex="2122"/>
  <outline>
    <contour>
      <point x="614" y="355" type="line"/>
      <point x="614" y="403" type="line"/>
      <point x="619" y="553"/>
      <point x="728" y="709"/>
      <point x="781" y="729" type="curve"/>
      <point x="781" y="471" type="line"/>
      <point x="774" y="452" smooth="yes"/>
      <point x="770" y="434" smooth="yes"/>
      <point x="770" y="417" type="curve" smooth="yes"/>
      <point x="770" y="391"/>
      <point x="777" y="373"/>
      <point x="793" y="364" type="curve"/>
      <point x="802" y="357" smooth="yes"/>
      <point x="813" y="355" smooth="yes"/>
      <point x="825" y="355" type="curve" smooth="yes"/>
      <point x="852" y="355" type="line"/>
      <point x="852" y="392" type="line" smooth="yes"/>
      <point x="852" y="545"/>
      <point x="965" y="709"/>
      <point x="1019" y="729" type="curve"/>
      <point x="1019" y="375" type="line" smooth="yes"/>
      <point x="1019" y="364" smooth="yes"/>
      <point x="1028" y="355" smooth="yes"/>
      <point x="1040" y="355" type="curve" smooth="yes"/>
      <point x="1069" y="355" type="line" smooth="yes"/>
      <point x="1081" y="355" smooth="yes"/>
      <point x="1090" y="364" smooth="yes"/>
      <point x="1090" y="375" type="curve" smooth="yes"/>
      <point x="1090" y="732" type="line" smooth="yes"/>
      <point x="1090" y="767" smooth="yes"/>
      <point x="1076" y="794" smooth="yes"/>
      <point x="1028" y="794" type="curve" smooth="yes"/>
      <point x="973" y="794"/>
      <point x="902" y="714"/>
      <point x="852" y="614" type="curve"/>
      <point x="852" y="732" type="line" smooth="yes"/>
      <point x="852" y="767" smooth="yes"/>
      <point x="838" y="794" smooth="yes"/>
      <point x="790" y="794" type="curve" smooth="yes"/>
      <point x="735" y="794"/>
      <point x="664" y="714"/>
      <point x="614" y="614" type="curve"/>
      <point x="614" y="768" type="line" smooth="yes"/>
      <point x="614" y="779" smooth="yes"/>
      <point x="605" y="788" smooth="yes"/>
      <point x="593" y="788" type="curve" smooth="yes"/>
      <point x="564" y="788" type="line" smooth="yes"/>
      <point x="552" y="788" smooth="yes"/>
      <point x="543" y="779" smooth="yes"/>
      <point x="543" y="768" type="curve" smooth="yes" name="hr01"/>
      <point x="543" y="473" type="line"/>
      <point x="535" y="454" smooth="yes"/>
      <point x="531" y="435" smooth="yes"/>
      <point x="531" y="417" type="curve" smooth="yes" name="hr02"/>
      <point x="531" y="390"/>
      <point x="539" y="372"/>
      <point x="557" y="363" type="curve"/>
      <point x="566" y="356" smooth="yes"/>
      <point x="577" y="355" smooth="yes"/>
      <point x="588" y="355" type="curve" smooth="yes"/>
    </contour>
    <contour>
      <point x="393" y="355" type="line"/>
      <point x="393" y="728" type="line"/>
      <point x="519" y="728" type="line"/>
      <point x="519" y="742" type="line" smooth="yes"/>
      <point x="519" y="765" smooth="yes"/>
      <point x="511" y="788" smooth="yes"/>
      <point x="473" y="788" type="curve" smooth="yes"/>
      <point x="200" y="788" type="line"/>
      <point x="200" y="768" type="line" smooth="yes"/>
      <point x="200" y="748" smooth="yes"/>
      <point x="207" y="728" smooth="yes"/>
      <point x="241" y="728" type="curve" smooth="yes"/>
      <point x="322" y="728" type="line"/>
      <point x="322" y="399" type="line" smooth="yes"/>
      <point x="322" y="362" smooth="yes"/>
      <point x="346" y="355" smooth="yes"/>
      <point x="367" y="355" type="curve" smooth="yes"/>
    </contour>
  </outline>
</glyph>
<glyph name="partialdiff" format="1">
  <advance width="739"/>
  <unicode hex="2202"/>
  <outline>
    <contour>
      <point x="664" y="473" type="curve" smooth="yes" name="hr00"/>
      <point x="664" y="713" smooth="yes"/>
      <point x="461" y="780" smooth="yes"/>
      <point x="418" y="780" type="curve" smooth="yes"/>
      <point x="389" y="780" smooth="yes"/>
      <point x="371" y="757" smooth="yes"/>
      <point x="356" y="727" type="curve" smooth="yes"/>
      <point x="352" y="719" type="line"/>
      <point x="525" y="659" smooth="yes"/>
      <point x="574" y="589" smooth="yes"/>
      <point x="574" y="468" type="curve" smooth="yes"/>
      <point x="574" y="242"/>
      <point x="499" y="70"/>
      <point x="247" y="70" type="curve"/>
      <point x="282" y="321" type="line" smooth="yes"/>
      <point x="298" y="436" smooth="yes"/>
      <point x="334" y="460" smooth="yes"/>
      <point x="429" y="460" type="curve" smooth="yes"/>
      <point x="488" y="460" type="line"/>
      <point x="490" y="477" smooth="yes"/>
      <point x="490" y="483" smooth="yes"/>
      <point x="490" y="489" type="curve" smooth="yes"/>
      <point x="490" y="525" smooth="yes"/>
      <point x="472" y="540" smooth="yes"/>
      <point x="440" y="540" type="curve" smooth="yes"/>
      <point x="274" y="540" smooth="yes"/>
      <point x="213" y="471" smooth="yes"/>
      <point x="192" y="321" type="curve" smooth="yes"/>
      <point x="159" y="90" type="line" smooth="yes"/>
      <point x="158" y="82" smooth="yes"/>
      <point x="157" y="74" smooth="yes"/>
      <point x="157" y="66" type="curve" smooth="yes"/>
      <point x="157" y="28" smooth="yes"/>
      <point x="174" y="0" smooth="yes"/>
      <point x="237" y="0" type="curve" smooth="yes"/>
      <point x="549" y="0" smooth="yes"/>
      <point x="664" y="208" smooth="yes"/>
    </contour>
  </outline>
</glyph>
<glyph name="Delta" format="1">
  <advance width="440"/>
  <unicode hex="2206"/>
  <outline>
    <contour>
      <point x="652" y="0" type="line" name="hr00"/>
      <point x="448" y="650" type="line" smooth="yes"/>
      <point x="431" y="704" smooth="yes"/>
      <point x="414" y="710" smooth="yes"/>
      <point x="371" y="710" type="curve" smooth="yes"/>
      <point x="328" y="710" smooth="yes"/>
      <point x="311" y="704" smooth="yes"/>
      <point x="294" y="650" type="curve" smooth="yes"/>
      <point x="90" y="0" type="line"/>
    </contour>
    <contour>
      <point x="371" y="650" type="line"/>
      <point x="559" y="57" type="line"/>
      <point x="183" y="57" type="line"/>
    </contour>
  </outline>
</glyph>
<glyph name="product" format="1">
  <advance width="739"/>
  <unicode hex="220F"/>
  <outline>
    <contour>
      <point x="70" y="760" type="line" name="hr00"/>
      <point x="70" y="750" type="line" smooth="yes"/>
      <point x="70" y="700" smooth="yes"/>
      <point x="92" y="680" smooth="yes"/>
      <point x="129" y="680" type="curve" smooth="yes"/>
      <point x="170" y="680" type="line"/>
      <point x="170" y="-6" type="line" smooth="yes"/>
      <point x="170" y="-56" smooth="yes"/>
      <point x="201" y="-66" smooth="yes"/>
      <point x="231" y="-66" type="curve" smooth="yes"/>
      <point x="260" y="-66" type="line"/>
      <point x="260" y="680" type="line"/>
      <point x="478" y="680" type="line"/>
      <point x="478" y="-6" type="line" smooth="yes"/>
      <point x="478" y="-56" smooth="yes"/>
      <point x="509" y="-66" smooth="yes"/>
      <point x="539" y="-66" type="curve" smooth="yes"/>
      <point x="568" y="-66" type="line"/>
      <point x="568" y="680" type="line"/>
      <point x="669" y="680" type="line"/>
      <point x="669" y="690" type="line" smooth="yes"/>
      <point x="669" y="740" smooth="yes"/>
      <point x="647" y="760" smooth="yes"/>
      <point x="610" y="760" type="curve" smooth="yes"/>
    </contour>
  </outline>
</glyph>
<glyph name="summation" format="1">
  <advance width="693"/>
  <unicode hex="2211"/>
  <outline>
    <contour>
      <point x="531" y="347" type="curve" smooth="yes" name="hr00"/>
      <point x="531" y="385" smooth="yes"/>
      <point x="494" y="397" smooth="yes"/>
      <point x="458" y="397" type="curve" smooth="yes"/>
      <point x="430" y="397"/>
      <point x="390" y="390"/>
      <point x="369" y="382" type="curve"/>
      <point x="205" y="443"/>
      <point x="165" y="616"/>
      <point x="165" y="680" type="curve"/>
      <point x="605" y="680" type="line"/>
      <point x="605" y="690" type="line" smooth="yes"/>
      <point x="605" y="740" smooth="yes"/>
      <point x="583" y="760" smooth="yes"/>
      <point x="546" y="760" type="curve" smooth="yes"/>
      <point x="175" y="760" type="line" smooth="yes"/>
      <point x="125" y="760" smooth="yes"/>
      <point x="85" y="750" smooth="yes"/>
      <point x="85" y="680" type="curve" smooth="yes"/>
      <point x="85" y="596"/>
      <point x="145" y="425"/>
      <point x="274" y="347" type="curve"/>
      <point x="145" y="269" smooth="yes"/>
      <point x="85" y="98" smooth="yes"/>
      <point x="85" y="14" type="curve" smooth="yes"/>
      <point x="85" y="-56" smooth="yes"/>
      <point x="125" y="-66" smooth="yes"/>
      <point x="175" y="-66" type="curve" smooth="yes"/>
      <point x="566" y="-66" type="line" smooth="yes"/>
      <point x="603" y="-66" smooth="yes"/>
      <point x="625" y="-46" smooth="yes"/>
      <point x="625" y="4" type="curve" smooth="yes"/>
      <point x="625" y="14" type="line"/>
      <point x="165" y="14" type="line"/>
      <point x="165" y="78"/>
      <point x="205" y="251"/>
      <point x="369" y="312" type="curve"/>
      <point x="390" y="304" smooth="yes"/>
      <point x="430" y="297" smooth="yes"/>
      <point x="458" y="297" type="curve" smooth="yes"/>
      <point x="494" y="297" smooth="yes"/>
      <point x="531" y="309" smooth="yes"/>
    </contour>
  </outline>
</glyph>
<glyph name="minus" format="1">
  <advance width="460"/>
  <unicode hex="2212"/>
  <outline>
    <contour>
      <point x="130" y="374" type="line" name="hr00"/>
      <point x="130" y="312" smooth="yes"/>
      <point x="137" y="299" smooth="yes"/>
      <point x="175" y="299" type="curve" smooth="yes"/>
      <point x="490" y="299" type="line"/>
      <point x="490" y="361" smooth="yes"/>
      <point x="483" y="374" smooth="yes"/>
      <point x="445" y="374" type="curve" smooth="yes"/>
    </contour>
  </outline>
</glyph>
<glyph name="radical" format="1">
  <advance width="737"/>
  <unicode hex="221A"/>
  <outline>
    <contour>
      <point x="430" y="800" type="line" name="hr00"/>
      <point x="439" y="700" smooth="yes"/>
      <point x="446" y="602" smooth="yes"/>
      <point x="446" y="504" type="curve" smooth="yes"/>
      <point x="446" y="194"/>
      <point x="360" y="65"/>
      <point x="217" y="65" type="curve"/>
      <point x="189" y="390" type="line" smooth="yes"/>
      <point x="188" y="401" smooth="yes"/>
      <point x="179" y="410" smooth="yes"/>
      <point x="168" y="410" type="curve" smooth="yes"/>
      <point x="118" y="410" type="line" smooth="yes"/>
      <point x="105" y="410"/>
      <point x="99" y="401"/>
      <point x="99" y="390" type="curve"/>
      <point x="126" y="80" type="line" smooth="yes"/>
      <point x="130" y="31" smooth="yes"/>
      <point x="149" y="-10" smooth="yes"/>
      <point x="223" y="-10" type="curve" smooth="yes"/>
      <point x="401" y="-10" smooth="yes"/>
      <point x="530" y="152" smooth="yes"/>
      <point x="530" y="527" type="curve" smooth="yes"/>
      <point x="530" y="585"/>
      <point x="527" y="650"/>
      <point x="521" y="720" type="curve"/>
      <point x="737" y="720" type="line"/>
      <point x="737" y="730" type="line" smooth="yes"/>
      <point x="737" y="780" smooth="yes"/>
      <point x="715" y="800" smooth="yes"/>
      <point x="678" y="800" type="curve" smooth="yes"/>
    </contour>
  </outline>
</glyph>
<glyph name="integral" format="1">
  <advance width="476"/>
  <unicode hex="222B"/>
  <outline>
    <contour>
      <point x="293" y="420" type="line" smooth="yes"/>
      <point x="307" y="656" smooth="yes"/>
      <point x="325" y="680" smooth="yes"/>
      <point x="420" y="680" type="curve" smooth="yes"/>
      <point x="476" y="680" type="line"/>
      <point x="476" y="691" type="line" smooth="yes"/>
      <point x="476" y="740" smooth="yes"/>
      <point x="462" y="760" smooth="yes"/>
      <point x="420" y="760" type="curve" smooth="yes"/>
      <point x="261" y="760" smooth="yes"/>
      <point x="219" y="691" smooth="yes"/>
      <point x="203" y="420" type="curve" smooth="yes"/>
      <point x="183" y="90" type="line" smooth="yes" name="hr01"/>
      <point x="169" y="-146" smooth="yes"/>
      <point x="151" y="-170" smooth="yes"/>
      <point x="56" y="-170" type="curve" smooth="yes"/>
      <point x="0" y="-170" type="line"/>
      <point x="0" y="-181" type="line" smooth="yes"/>
      <point x="0" y="-230" smooth="yes"/>
      <point x="14" y="-250" smooth="yes"/>
      <point x="56" y="-250" type="curve" smooth="yes"/>
      <point x="215" y="-250" smooth="yes"/>
      <point x="257" y="-181" smooth="yes"/>
      <point x="273" y="90" type="curve" smooth="yes"/>
    </contour>
  </outline>
</glyph>
<glyph name="notequal" format="1">
  <advance width="460"/>
  <unicode hex="2260"/>
  <outline>
    <contour>
      <point x="130" y="279" type="line" name="hr00"/>
      <point x="130" y="217" smooth="yes"/>
      <point x="137" y="204" smooth="yes"/>
      <point x="175" y="204" type="curve" smooth="yes"/>
      <point x="237" y="204" type="line"/>
      <point x="186" y="14" type="line"/>
      <point x="211" y="14" type="line" smooth="yes"/>
      <point x="252" y="14" smooth="yes"/>
      <point x="265" y="24" smooth="yes"/>
      <point x="276" y="65" type="curve" smooth="yes"/>
      <point x="313" y="204" type="line"/>
      <point x="490" y="204" type="line"/>
      <point x="490" y="266" smooth="yes"/>
      <point x="483" y="279" smooth="yes"/>
      <point x="445" y="279" type="curve" smooth="yes"/>
      <point x="333" y="279" type="line"/>
      <point x="364" y="394" type="line"/>
      <point x="490" y="394" type="line"/>
      <point x="490" y="456" smooth="yes"/>
      <point x="483" y="469" smooth="yes"/>
      <point x="445" y="469" type="curve" smooth="yes"/>
      <point x="384" y="469" type="line"/>
      <point x="435" y="660" type="line"/>
      <point x="410" y="660" type="line" smooth="yes"/>
      <point x="374" y="660" smooth="yes"/>
      <point x="358" y="656" smooth="yes"/>
      <point x="345" y="609" type="curve" smooth="yes"/>
      <point x="307" y="469" type="line"/>
      <point x="130" y="469" type="line"/>
      <point x="130" y="407" smooth="yes"/>
      <point x="137" y="394" smooth="yes"/>
      <point x="175" y="394" type="curve" smooth="yes"/>
      <point x="287" y="394" type="line"/>
      <point x="257" y="279" type="line"/>
    </contour>
  </outline>
</glyph>
<glyph name="G.alt" format="1">
  <advance width="715"/>
  <outline>
    <contour>
      <point x="825" y="0" type="line"/>
      <point x="860" y="0"/>
      <point x="895" y="12"/>
      <point x="895" y="70" type="curve"/>
      <point x="585" y="70" type="line"/>
      <point x="585" y="253" type="line"/>
      <point x="617" y="262" smooth="yes"/>
      <point x="634" y="289" smooth="yes"/>
      <point x="634" y="322" type="curve" smooth="yes"/>
      <point x="634" y="362" smooth="yes"/>
      <point x="609" y="395" smooth="yes"/>
      <point x="561" y="395" type="curve" smooth="yes"/>
      <point x="516" y="395"/>
      <point x="492" y="366"/>
      <point x="489" y="330" type="curve"/>
      <point x="321" y="330" type="line"/>
      <point x="321" y="304" type="line" smooth="yes"/>
      <point x="321" y="277" smooth="yes"/>
      <point x="330" y="250" smooth="yes"/>
      <point x="375" y="250" type="curve" smooth="yes"/>
      <point x="495" y="250" type="line"/>
      <point x="495" y="70" type="line"/>
      <point x="175" y="70" type="line"/>
      <point x="175" y="430" smooth="yes"/>
      <point x="303" y="640" smooth="yes"/>
      <point x="532" y="640" type="curve" smooth="yes"/>
      <point x="586" y="640" type="line"/>
      <point x="586" y="666" type="line" smooth="yes"/>
      <point x="586" y="693" smooth="yes"/>
      <point x="577" y="720" smooth="yes"/>
      <point x="532" y="720" type="curve" smooth="yes"/>
      <point x="311" y="720" smooth="yes"/>
      <point x="85" y="553" smooth="yes"/>
      <point x="85" y="80" type="curve" smooth="yes"/>
      <point x="85" y="10" smooth="yes"/>
      <point x="125" y="0" smooth="yes"/>
      <point x="175" y="0" type="curve" smooth="yes"/>
    </contour>
  </outline>
</glyph>
<glyph name="breve.case" format="1">
  <advance width="474"/>
  <outline>
    <contour>
      <point x="269" y="942" type="line" name="hr00"/>
      <point x="229" y="909" type="line"/>
      <point x="289" y="809" smooth="yes"/>
      <point x="330" y="771" smooth="yes"/>
      <point x="381" y="771" type="curve" smooth="yes"/>
      <point x="432" y="771"/>
      <point x="473" y="809"/>
      <point x="533" y="909" type="curve"/>
      <point x="493" y="942" type="line"/>
      <point x="381" y="849" type="line"/>
    </contour>
  </outline>
</glyph>
<glyph name="caron.case" format="1">
  <advance width="436"/>
  <outline>
    <contour>
      <point x="216" y="902" type="line" name="hr00"/>
      <point x="361" y="771" type="line"/>
      <point x="401" y="771" type="line"/>
      <point x="546" y="902" type="line"/>
      <point x="522" y="942" type="line"/>
      <point x="461" y="929"/>
      <point x="405" y="896"/>
      <point x="381" y="868" type="curve"/>
      <point x="360" y="893"/>
      <point x="298" y="930"/>
      <point x="240" y="942" type="curve"/>
    </contour>
  </outline>
</glyph>
<glyph name="commaaccent" format="1">
  <advance width="343"/>
  <outline>
    <contour>
      <point x="246" y="-359" type="line" name="hr00"/>
      <point x="293" y="-314" smooth="yes"/>
      <point x="348" y="-230" smooth="yes"/>
      <point x="348" y="-159" type="curve" smooth="yes"/>
      <point x="348" y="-102" smooth="yes"/>
      <point x="325" y="-77" smooth="yes"/>
      <point x="275" y="-77" type="curve" smooth="yes"/>
      <point x="244" y="-77" type="line"/>
      <point x="244" y="-132" type="line" smooth="yes"/>
      <point x="244" y="-245"/>
      <point x="226" y="-286"/>
      <point x="209" y="-328" type="curve"/>
    </contour>
  </outline>
</glyph>
<glyph name="dieresis.case" format="1">
  <advance width="391"/>
  <outline>
    <contour>
      <point x="63" y="854" type="curve" smooth="yes" name="hr00"/>
      <point x="63" y="820" smooth="yes"/>
      <point x="83" y="793" smooth="yes"/>
      <point x="124" y="793" type="curve" smooth="yes"/>
      <point x="164" y="793" smooth="yes"/>
      <point x="186" y="820" smooth="yes"/>
      <point x="186" y="854" type="curve" smooth="yes"/>
      <point x="186" y="887" smooth="yes"/>
      <point x="164" y="916" smooth="yes"/>
      <point x="124" y="916" type="curve" smooth="yes"/>
      <point x="83" y="916" smooth="yes"/>
      <point x="63" y="887" smooth="yes"/>
    </contour>
    <contour>
      <point x="285" y="854" type="curve" smooth="yes"/>
      <point x="285" y="820" smooth="yes"/>
      <point x="305" y="793" smooth="yes"/>
      <point x="346" y="793" type="curve" smooth="yes"/>
      <point x="386" y="793" smooth="yes"/>
      <point x="408" y="820" smooth="yes"/>
      <point x="408" y="854" type="curve" smooth="yes"/>
      <point x="408" y="887" smooth="yes"/>
      <point x="386" y="916" smooth="yes"/>
      <point x="346" y="916" type="curve" smooth="yes"/>
      <point x="305" y="916" smooth="yes"/>
      <point x="285" y="887" smooth="yes"/>
    </contour>
  </outline>
</glyph>
<glyph name="dotaccent.case" format="1">
  <advance width="411"/>
  <outline>
    <contour>
      <point x="174" y="854" type="curve" smooth="yes" name="hr00"/>
      <point x="174" y="820" smooth="yes"/>
      <point x="186" y="793" smooth="yes"/>
      <point x="235" y="793" type="curve" smooth="yes"/>
      <point x="283" y="793" smooth="yes"/>
      <point x="297" y="820" smooth="yes"/>
      <point x="297" y="854" type="curve" smooth="yes"/>
      <point x="297" y="887" smooth="yes"/>
      <point x="283" y="916" smooth="yes"/>
      <point x="235" y="916" type="curve" smooth="yes"/>
      <point x="186" y="916" smooth="yes"/>
      <point x="174" y="887" smooth="yes"/>
    </contour>
  </outline>
</glyph>
<glyph name="macron.case" format="1">
  <advance width="490"/>
  <outline>
    <contour>
      <point x="490" y="800" type="line" name="hr00"/>
      <point x="490" y="819" type="line" smooth="yes"/>
      <point x="490" y="849" smooth="yes"/>
      <point x="480" y="880" smooth="yes"/>
      <point x="430" y="880" type="curve" smooth="yes"/>
      <point x="170" y="880" type="line"/>
      <point x="170" y="854" type="line" smooth="yes"/>
      <point x="170" y="827" smooth="yes"/>
      <point x="179" y="800" smooth="yes"/>
      <point x="224" y="800" type="curve" smooth="yes"/>
    </contour>
  </outline>
</glyph>
